STARTFONT 2.1
FONT -FontForge-Good Times Rg-Book-R-Normal--166-1590-75-75-P-1233-ISO10646-1
SIZE 159 75 75
FONTBOUNDINGBOX 331 197 -46 -34
COMMENT "Generated by fontforge, http://fontforge.sourceforge.net"
COMMENT "(c) 1998-2012 Typodermic Fonts Inc. See attached license agreement. If agreement is missing visit typodermicfonts.com for more info. Languages by Chikako Larabie"
STARTPROPERTIES 39
FOUNDRY "FontForge"
FAMILY_NAME "Good Times Rg"
WEIGHT_NAME "Book"
SLANT "R"
SETWIDTH_NAME "Normal"
ADD_STYLE_NAME ""
PIXEL_SIZE 166
POINT_SIZE 1590
RESOLUTION_X 75
RESOLUTION_Y 75
SPACING "P"
AVERAGE_WIDTH 1233
CHARSET_REGISTRY "ISO10646"
CHARSET_ENCODING "1"
FONTNAME_REGISTRY ""
CHARSET_COLLECTIONS "ISO8859-2 ISO8859-9 ISO8859-4 ISO10646-1"
FONT_NAME "GoodTimesRg-Regular"
FACE_NAME "GoodTimesRg-Regular"
COPYRIGHT "(c) 1998-2012 Typodermic Fonts Inc. See attached license agreement. If agreement is missing visit typodermicfonts.com for more info. Languages by Chikako Larabie"
FONT_VERSION "4.001"
FONT_ASCENT 133
FONT_DESCENT 33
UNDERLINE_POSITION -24
UNDERLINE_THICKNESS 4
X_HEIGHT 120
CAP_HEIGHT 120
RAW_ASCENT 799
RAW_DESCENT 201
NORM_SPACE 49
RELATIVE_WEIGHT 40
RELATIVE_SETWIDTH 50
SUPERSCRIPT_X 0
SUPERSCRIPT_Y 49
SUPERSCRIPT_SIZE 49
SUBSCRIPT_X 0
SUBSCRIPT_Y 0
SUBSCRIPT_SIZE 49
AVG_LOWERCASE_WIDTH 1415
AVG_UPPERCASE_WIDTH 1409
ENDPROPERTIES
CHARS 372
STARTCHAR space
ENCODING 32
SWIDTH 294 0
DWIDTH 49 0
BBX 1 1 0 0
BITMAP
00
ENDCHAR
STARTCHAR exclam
ENCODING 33
SWIDTH 298 0
DWIDTH 49 0
BBX 22 121 14 0
BITMAP
7FFFF8
7FFFF8
7FFFF8
7FFFF8
7FFFF8
7FFFF8
7FFFF8
7FFFF8
7FFFF8
7FFFF8
7FFFF8
7FFFF8
7FFFF8
7FFFF8
7FFFF8
7FFFF8
7FFFF8
7FFFF8
7FFFF8
7FFFF8
7FFFF8
7FFFF8
7FFFF8
7FFFF8
7FFFF8
7FFFF8
7FFFF8
7FFFF8
7FFFF8
7FFFF8
7FFFF8
7FFFF8
7FFFF8
7FFFF8
7FFFF8
7FFFF8
7FFFF8
7FFFF8
7FFFF8
7FFFF8
7FFFF8
7FFFF8
7FFFF8
7FFFF8
7FFFF8
7FFFF8
7FFFF8
7FFFF8
7FFFF8
7FFFF8
7FFFF8
7FFFF8
7FFFF8
7FFFF8
7FFFF8
7FFFF8
7FFFF8
7FFFF8
7FFFF8
7FFFF8
7FFFF8
7FFFF8
7FFFF8
7FFFF8
7FFFF8
7FFFF8
7FFFF8
7FFFF8
7FFFF8
7FFFF8
7FFFF8
7FFFF8
7FFFF8
7FFFF8
7FFFF8
7FFFF8
7FFFF8
7FFFF8
7FFFF8
7FFFF8
7FFFF8
7FFFF8
000000
000000
000000
000000
000000
000000
000000
000000
000000
000000
000000
000000
000000
000000
000000
000000
00FE00
07FF80
0FFFC0
1FFFE0
3FFFF0
7FFFF8
7FFFF8
FFFFFC
FFFFFC
FFFFFC
FFFFFC
FFFFFC
FFFFFC
FFFFFC
FFFFFC
FFFFFC
7FFFF8
7FFFF8
3FFFF0
1FFFF0
0FFFC0
07FF80
01FE00
ENDCHAR
STARTCHAR quotedbl
ENCODING 34
SWIDTH 452 0
DWIDTH 75 0
BBX 53 43 11 78
BITMAP
FFFFFC01FFFFF8
FFFFFC01FFFFF8
7FFFF800FFFFF8
7FFFF800FFFFF0
7FFFF800FFFFF0
7FFFF800FFFFF0
7FFFF800FFFFF0
7FFFF800FFFFF0
7FFFF800FFFFF0
7FFFF800FFFFF0
7FFFF800FFFFF0
7FFFF800FFFFF0
7FFFF800FFFFF0
7FFFF8007FFFF0
3FFFF0007FFFE0
3FFFF0007FFFE0
3FFFF0007FFFE0
3FFFF0007FFFE0
3FFFF0007FFFE0
3FFFF0007FFFE0
3FFFF0007FFFE0
3FFFF0007FFFE0
3FFFF0007FFFE0
3FFFF0003FFFE0
3FFFF0003FFFE0
1FFFE0003FFFC0
1FFFE0003FFFC0
1FFFE0003FFFC0
1FFFE0003FFFC0
1FFFE0003FFFC0
1FFFE0003FFFC0
1FFFE0003FFFC0
1FFFE0003FFFC0
1FFFE0003FFFC0
1FFFE0001FFFC0
1FFFE0001FFFC0
0FFFC0001FFFC0
0FFFC0001FFF80
0FFFC0001FFF80
0FFFC0001FFF80
0FFFC0001FFF80
0FFFC0001FFF80
0FFFC0001FFF80
ENDCHAR
STARTCHAR numbersign
ENCODING 35
SWIDTH 697 0
DWIDTH 116 0
BBX 102 121 7 0
BITMAP
00000000003FFF8000007FFF00
00000000007FFF0000007FFF00
00000000007FFF0000007FFF00
00000000007FFF000000FFFE00
0000000000FFFF000000FFFE00
0000000000FFFE000000FFFE00
0000000000FFFE000000FFFC00
0000000000FFFE000001FFFC00
0000000001FFFC000001FFFC00
0000000001FFFC000001FFFC00
0000000001FFFC000003FFF800
0000000003FFF8000003FFF800
0000000003FFF8000003FFF800
0000000003FFF8000007FFF000
0000000007FFF8000007FFF000
0000000007FFF0000007FFF000
0000000007FFF0000007FFE000
0000000007FFF000000FFFE000
000000000FFFE000000FFFE000
000000000FFFE000000FFFE000
000000000FFFE000001FFFC000
000000001FFFC000001FFFC000
000000001FFFC000001FFFC000
000000001FFFC000003FFF8000
000000003FFFC000003FFF8000
000000003FFF8000003FFF8000
000000003FFF8000003FFF0000
000000003FFF8000007FFF0000
000000007FFF0000007FFF0000
000000007FFF0000007FFF0000
000000007FFF000000FFFE0000
0007FFFFFFFFFFFFFFFFFFFFFC
0007FFFFFFFFFFFFFFFFFFFFFC
0007FFFFFFFFFFFFFFFFFFFFFC
0007FFFFFFFFFFFFFFFFFFFFFC
0007FFFFFFFFFFFFFFFFFFFFFC
0007FFFFFFFFFFFFFFFFFFFFFC
0007FFFFFFFFFFFFFFFFFFFFFC
0007FFFFFFFFFFFFFFFFFFFFFC
0007FFFFFFFFFFFFFFFFFFFFFC
0007FFFFFFFFFFFFFFFFFFFFFC
0007FFFFFFFFFFFFFFFFFFFFFC
0007FFFFFFFFFFFFFFFFFFFFFC
0007FFFFFFFFFFFFFFFFFFFFFC
0007FFFFFFFFFFFFFFFFFFFFFC
0000000FFFE000000FFFE00000
0000000FFFE000001FFFC00000
0000001FFFC000001FFFC00000
0000001FFFC000001FFFC00000
0000001FFFC000001FFF800000
0000001FFF8000003FFF800000
0000003FFF8000003FFF800000
0000003FFF8000003FFF800000
0000003FFF8000007FFF000000
0000007FFF0000007FFF000000
0000007FFF0000007FFF000000
0000007FFF000000FFFE000000
000000FFFE000000FFFE000000
000000FFFE000000FFFE000000
000000FFFE000000FFFE000000
000000FFFE000001FFFC000000
000001FFFC000001FFFC000000
000001FFFC000001FFFC000000
000001FFFC000003FFF8000000
000003FFF8000003FFF8000000
000003FFF8000003FFF8000000
000003FFF8000007FFF0000000
000007FFF0000007FFF0000000
000007FFF0000007FFF0000000
000007FFF0000007FFF0000000
000007FFF000000FFFE0000000
00000FFFE000000FFFE0000000
00000FFFE000000FFFE0000000
00000FFFE000001FFFC0000000
FFFFFFFFFFFFFFFFFFFFFF8000
FFFFFFFFFFFFFFFFFFFFFF8000
FFFFFFFFFFFFFFFFFFFFFF8000
FFFFFFFFFFFFFFFFFFFFFF8000
FFFFFFFFFFFFFFFFFFFFFF8000
FFFFFFFFFFFFFFFFFFFFFF8000
FFFFFFFFFFFFFFFFFFFFFF8000
FFFFFFFFFFFFFFFFFFFFFF8000
FFFFFFFFFFFFFFFFFFFFFF8000
FFFFFFFFFFFFFFFFFFFFFF8000
FFFFFFFFFFFFFFFFFFFFFF8000
FFFFFFFFFFFFFFFFFFFFFF8000
FFFFFFFFFFFFFFFFFFFFFF8000
FFFFFFFFFFFFFFFFFFFFFF8000
0001FFFC000001FFFC00000000
0001FFFC000003FFF800000000
0003FFF8000003FFF800000000
0003FFF8000003FFF800000000
0003FFF8000003FFF800000000
0003FFF8000007FFF000000000
0007FFF0000007FFF000000000
0007FFF0000007FFF000000000
0007FFF000000FFFE000000000
000FFFE000000FFFE000000000
000FFFE000000FFFE000000000
000FFFE000000FFFC000000000
000FFFC000001FFFC000000000
001FFFC000001FFFC000000000
001FFFC000001FFFC000000000
001FFFC000003FFF8000000000
003FFF8000003FFF8000000000
003FFF8000003FFF8000000000
003FFF8000007FFF0000000000
003FFF0000007FFF0000000000
007FFF0000007FFF0000000000
007FFF0000007FFE0000000000
007FFF000000FFFE0000000000
00FFFE000000FFFE0000000000
00FFFE000000FFFE0000000000
00FFFE000001FFFC0000000000
01FFFC000001FFFC0000000000
01FFFC000001FFFC0000000000
01FFFC000003FFF80000000000
01FFF8000003FFF80000000000
03FFF8000003FFF80000000000
03FFF8000003FFF80000000000
03FFF8000007FFF00000000000
ENDCHAR
STARTCHAR dollar
ENCODING 36
SWIDTH 744 0
DWIDTH 124 0
BBX 105 121 9 0
BITMAP
0000000000007FC0000000000000
0000000000007FC0000000000000
0000000000007FC0000000000000
0000000000007FC0000000000000
0000000000007FC0000000000000
0000000000007FC0000000000000
0000000000007FC0000000000000
0000000000007FC0000000000000
0000000000007FC0000000000000
0000000000007FC0000000000000
0000000000007FC0000000000000
0000000000007FC0000000000000
000000FFFFFFFFFFFFFFFFFFF000
00001FFFFFFFFFFFFFFFFFFFF000
0000FFFFFFFFFFFFFFFFFFFFF000
0003FFFFFFFFFFFFFFFFFFFFF000
000FFFFFFFFFFFFFFFFFFFFFF000
001FFFFFFFFFFFFFFFFFFFFFF000
003FFFFFFFFFFFFFFFFFFFFFF000
00FFFFFFFFFFFFFFFFFFFFFFF000
01FFFFFFFFFFFFFFFFFFFFFFF000
03FFFFFFFFFFFFFFFFFFFFFFF000
03FFFFFFFFFFFFFFFFFFFFFFF000
07FFFFFFFFFFFFFFFFFFFFFFF000
0FFFFFFFFFFFFFFFFFFFFFFFF000
0FFFFFFFFFFFFFFFFFFFFFFFF000
1FFFFFFFFFFFFFFFFFFFFFFFF000
1FFFFFFFFFFFFFFFFFFFFFFFF000
3FFFFFFFFFFFFFFFFFFFFFFFF000
3FFFFFC000007FC0000000000000
3FFFFE0000007FC0000000000000
7FFFFC0000007FC0000000000000
7FFFF80000007FC0000000000000
7FFFF00000007FC0000000000000
7FFFF00000007FC0000000000000
7FFFE00000007FC0000000000000
7FFFE00000007FC0000000000000
FFFFC00000007FC0000000000000
FFFFC00000007FC0000000000000
FFFFC00000007FC0000000000000
FFFFC00000007FC0000000000000
7FFFC00000007FC0000000000000
7FFFC00000007FC0000000000000
7FFFC00000007FC0000000000000
7FFFC00000007FC0000000000000
7FFFE00000007FC0000000000000
7FFFE00000007FC0000000000000
3FFFF00000007FC0000000000000
3FFFF00000007FC0000000000000
3FFFF80000007FC0000000000000
1FFFFC0000007FC0000000000000
1FFFFF0000007FC0000000000000
1FFFFFC000007FC0000000000000
0FFFFFFFFFFFFFFFFFFFC0000000
07FFFFFFFFFFFFFFFFFFFE000000
07FFFFFFFFFFFFFFFFFFFFC00000
03FFFFFFFFFFFFFFFFFFFFF00000
01FFFFFFFFFFFFFFFFFFFFFC0000
00FFFFFFFFFFFFFFFFFFFFFE0000
007FFFFFFFFFFFFFFFFFFFFF8000
003FFFFFFFFFFFFFFFFFFFFFC000
001FFFFFFFFFFFFFFFFFFFFFE000
0007FFFFFFFFFFFFFFFFFFFFF000
0001FFFFFFFFFFFFFFFFFFFFF000
00007FFFFFFFFFFFFFFFFFFFF800
00001FFFFFFFFFFFFFFFFFFFF800
000000FFFFFFFFFFFFFFFFFFFC00
0000000000007FC00001FFFFFC00
0000000000007FC000001FFFFE00
0000000000007FC000000FFFFE00
0000000000007FC0000007FFFE00
0000000000007FC0000003FFFF00
0000000000007FC0000001FFFF00
0000000000007FC0000001FFFF00
0000000000007FC0000000FFFF00
0000000000007FC0000000FFFF00
0000000000007FC0000000FFFF80
0000000000007FC0000000FFFF80
0000000000007FC00000007FFF80
0000000000007FC00000007FFF80
0000000000007FC00000007FFF80
0000000000007FC0000000FFFF80
0000000000007FC0000000FFFF80
0000000000007FC0000000FFFF80
0000000000007FC0000000FFFF80
0000000000007FC0000001FFFF00
0000000000007FC0000001FFFF00
0000000000007FC0000003FFFF00
0000000000007FC0000007FFFF00
0000000000007FC000000FFFFF00
0000000000007FC000001FFFFE00
0000000000007FC00000FFFFFE00
3FFFFFFFFFFFFFFFFFFFFFFFFE00
3FFFFFFFFFFFFFFFFFFFFFFFFC00
3FFFFFFFFFFFFFFFFFFFFFFFFC00
3FFFFFFFFFFFFFFFFFFFFFFFF800
3FFFFFFFFFFFFFFFFFFFFFFFF800
3FFFFFFFFFFFFFFFFFFFFFFFF000
3FFFFFFFFFFFFFFFFFFFFFFFE000
3FFFFFFFFFFFFFFFFFFFFFFFE000
3FFFFFFFFFFFFFFFFFFFFFFFC000
3FFFFFFFFFFFFFFFFFFFFFFF8000
3FFFFFFFFFFFFFFFFFFFFFFF0000
3FFFFFFFFFFFFFFFFFFFFFFC0000
3FFFFFFFFFFFFFFFFFFFFFF80000
3FFFFFFFFFFFFFFFFFFFFFE00000
3FFFFFFFFFFFFFFFFFFFFF800000
3FFFFFFFFFFFFFFFFFFFFC000000
3FFFFFFFFFFFFFFFFFFF80000000
0000000000007FC0000000000000
0000000000007FC0000000000000
0000000000007FC0000000000000
0000000000007FC0000000000000
0000000000007FC0000000000000
0000000000007FC0000000000000
0000000000007FC0000000000000
0000000000007FC0000000000000
0000000000007FC0000000000000
0000000000007FC0000000000000
0000000000007FC0000000000000
0000000000007FC0000000000000
ENDCHAR
STARTCHAR percent
ENCODING 37
SWIDTH 965 0
DWIDTH 160 0
BBX 146 140 7 -11
BITMAP
000000000000000000000000000003FFF00000
000000000000000000000000000007FFF00000
000000000000000000000000000007FFE00000
00000000000000000000000000000FFFC00000
00000000000000000000000000001FFF800000
0000007FF80000000000000000003FFF000000
000007FFFF8000000000000000007FFF000000
00003FFFFFF000000000000000007FFE000000
0000FFFFFFFC0000000000000000FFFC000000
0003FFFFFFFF0000000000000001FFF8000000
0007FFFFFFFFC000000000000003FFF8000000
001FFFFFFFFFE000000000000003FFF0000000
003FFFFFFFFFF000000000000007FFE0000000
007FFFFFFFFFF80000000000000FFFC0000000
00FFFFFFFFFFFC0000000000001FFF80000000
01FFFFFFFFFFFE0000000000003FFF80000000
03FFFFC007FFFF0000000000003FFF00000000
03FFFC0000FFFF8000000000007FFE00000000
07FFF000003FFFC00000000000FFFC00000000
0FFFC000000FFFC00000000001FFF800000000
0FFF80000007FFE00000000001FFF800000000
1FFF00000003FFE00000000003FFF000000000
1FFE00000001FFF00000000007FFE000000000
3FFC00000000FFF0000000000FFFC000000000
3FFC000000007FF8000000001FFFC000000000
7FF8000000007FF8000000001FFF8000000000
7FF0000000003FF8000000003FFF0000000000
7FF0000000003FFC000000007FFE0000000000
7FF0000000001FFC00000000FFFC0000000000
FFE0000000001FFC00000001FFFC0000000000
FFE0000000001FFC00000001FFF80000000000
FFE0000000000FFC00000003FFF00000000000
FFE0000000000FFC00000007FFE00000000000
FFE0000000000FFC0000000FFFE00000000000
FFC0000000000FFE0000000FFFC00000000000
FFC0000000000FFE0000001FFF800000000000
FFC0000000000FFE0000003FFF000000000000
FFC0000000000FFC0000007FFE000000000000
FFE0000000000FFC000000FFFE000000000000
FFE0000000000FFC000000FFFC000000000000
FFE0000000001FFC000001FFF8000000000000
7FE0000000001FFC000003FFF0000000000000
7FE0000000001FFC000007FFF0000000000000
7FF0000000001FFC000007FFE0000000000000
7FF0000000003FF800000FFFC0000000000000
3FF0000000003FF800001FFF80000000000000
3FF8000000007FF800003FFF00000000000000
3FFC000000007FF000007FFF00000000000000
1FFC00000000FFF000007FFE00000000000000
1FFE00000001FFE00000FFFC00000000000000
0FFF00000003FFE00001FFF800000000000000
0FFF80000007FFC00003FFF800000000000000
07FFC000000FFFC00007FFF000000000000000
07FFF000003FFF800007FFE000000000000000
03FFFC0000FFFF00000FFFC000000000000000
01FFFFC007FFFF00001FFF8000000000000000
00FFFFFFFFFFFE00003FFF8000000000000000
007FFFFFFFFFFC00003FFF0000000000000000
003FFFFFFFFFF800007FFE0000000000000000
001FFFFFFFFFF00000FFFC0000000000000000
000FFFFFFFFFC00001FFFC0000000000000000
0007FFFFFFFF800003FFF80000000000000000
0001FFFFFFFE000003FFF00000000000000000
00007FFFFFFC000007FFE00000000000000000
00001FFFFFF000000FFFC00000000000000000
000007FFFF8000001FFFC00000000000000000
0000007FF80000001FFF800000000000000000
00000000000000003FFF000000000000000000
00000000000000007FFE000000000000000000
0000000000000000FFFE00000007FF80000000
0000000000000001FFFC0000007FFFF8000000
0000000000000001FFF8000003FFFFFF000000
0000000000000003FFF000000FFFFFFFC00000
0000000000000007FFE000003FFFFFFFF00000
000000000000000FFFE00000FFFFFFFFF80000
000000000000000FFFC00001FFFFFFFFFE0000
000000000000001FFF800003FFFFFFFFFF0000
000000000000003FFF000007FFFFFFFFFF8000
000000000000007FFE00000FFFFFFFFFFFC000
00000000000000FFFE00001FFFFFFFFFFFE000
00000000000000FFFC00003FFFF800FFFFF000
00000000000001FFF800007FFFC0000FFFF800
00000000000003FFF000007FFF000003FFF800
00000000000007FFF00000FFFC000000FFFC00
0000000000000FFFE00001FFF80000007FFC00
0000000000000FFFC00001FFF00000003FFE00
0000000000001FFF800003FFE00000001FFE00
0000000000003FFF000003FFC00000000FFF00
0000000000007FFF000007FF800000000FFF00
0000000000007FFE000007FF8000000007FF80
000000000000FFFC000007FF0000000003FF80
000000000001FFF8000007FF0000000003FF80
000000000003FFF800000FFE0000000003FF80
000000000007FFF000000FFE0000000001FFC0
000000000007FFE000000FFE0000000001FFC0
00000000000FFFC000000FFC0000000001FFC0
00000000001FFF8000000FFC0000000001FFC0
00000000003FFF8000000FFC0000000001FFC0
00000000003FFF0000000FFC0000000000FFC0
00000000007FFE0000000FFC0000000000FFC0
0000000000FFFC0000000FFC0000000000FFC0
0000000001FFFC0000000FFC0000000000FFC0
0000000003FFF80000000FFC0000000001FFC0
0000000003FFF00000000FFC0000000001FFC0
0000000007FFE00000000FFC0000000001FFC0
000000000FFFC00000000FFE0000000001FFC0
000000001FFFC00000000FFE0000000001FF80
000000003FFF8000000007FE0000000003FF80
000000003FFF0000000007FF0000000003FF80
000000007FFE0000000007FF0000000003FF80
00000000FFFE0000000003FF8000000007FF00
00000001FFFC0000000003FF800000000FFF00
00000001FFF80000000003FFC00000000FFE00
00000003FFF00000000001FFE00000001FFE00
00000007FFE00000000001FFF00000003FFE00
0000000FFFE00000000000FFF80000007FFC00
0000001FFFC00000000000FFFC000000FFF800
0000001FFF8000000000007FFF000003FFF800
0000003FFF0000000000003FFFC0000FFFF000
0000007FFF0000000000001FFFF800FFFFE000
000000FFFE0000000000001FFFFFFFFFFFC000
000000FFFC0000000000000FFFFFFFFFFF8000
000001FFF800000000000007FFFFFFFFFF0000
000003FFF000000000000003FFFFFFFFFE0000
000007FFF000000000000000FFFFFFFFFC0000
00000FFFE0000000000000007FFFFFFFF80000
00000FFFC0000000000000001FFFFFFFE00000
00001FFF80000000000000000FFFFFFF800000
00003FFF800000000000000003FFFFFE000000
00007FFF0000000000000000007FFFF8000000
00007FFE00000000000000000007FF00000000
0000FFFC000000000000000000000000000000
0001FFF8000000000000000000000000000000
0003FFF8000000000000000000000000000000
0007FFF0000000000000000000000000000000
0007FFE0000000000000000000000000000000
000FFFC0000000000000000000000000000000
001FFFC0000000000000000000000000000000
003FFF80000000000000000000000000000000
007FFF00000000000000000000000000000000
ENDCHAR
STARTCHAR ampersand
ENCODING 38
SWIDTH 759 0
DWIDTH 126 0
BBX 113 121 8 0
BITMAP
000000007FFFFFFF00000000000000
0000001FFFFFFFFF00000000000000
000000FFFFFFFFFF00000000000000
000007FFFFFFFFFF00000000000000
00001FFFFFFFFFFF00000000000000
00007FFFFFFFFFFF00000000000000
0001FFFFFFFFFFFF00000000000000
0003FFFFFFFFFFFF00000000000000
000FFFFFFFFFFFFF00000000000000
001FFFFFFFFFFFFF00000000000000
003FFFFFFFFFFFFF00000000000000
007FFFFFFFFFFFFF00000000000000
00FFFFFFFFFFFFFF00000000000000
00FFFFFFFFFFFFFF00000000000000
01FFFFFFFFFFFFFF00000000000000
03FFFFFFFFFFFFFF00000000000000
03FFFFFFFFFFFFFF00000000000000
07FFFFFFFFFFFFFF00000000000000
07FFFFFFFFFFFFFF00000000000000
0FFFFFFFFFFFFFFF00000000000000
0FFFFFFFFFFFFFFF00000000000000
0FFFFFFFF000000000000000000000
1FFFFFFF0000000000000000000000
1FFFFFFC0000000000000000000000
1FFFFFF00000000000000000000000
1FFFFFE00000000000000000000000
1FFFFFC00000000000000000000000
1FFFFFC00000000000000000000000
1FFFFF800000000000000000000000
3FFFFF800000000000000000000000
3FFFFF000000000000000000000000
3FFFFF000000000000000000000000
3FFFFF000000000000000000000000
3FFFFF000000000000000000000000
1FFFFF000000000000000000000000
1FFFFF000000000000000000000000
1FFFFF000000000000000000000000
1FFFFF000000000000000000000000
1FFFFF000000000000000000000000
1FFFFF000000000000000000000000
1FFFFF000000000000000000000000
0FFFFF800000000000000000000000
0FFFFF800000000000000000000000
0FFFFFC00000000000000000000000
07FFFFC00000000000000000000000
07FFFFE00000000000000000000000
03FFFFF00000000000000000000000
01FFFFFC0000000000000000000000
01FFFFFF0000000000000000000000
00FFFFFFE000000000000000000000
007FFFFFFFFFFFFFFFFFFFFFFFC000
003FFFFFFFFFFFFFFFFFFFFFFFC000
001FFFFFFFFFFFFFFFFFFFFFFFC000
0007FFFFFFFFFFFFFFFFFFFFFFC000
0003FFFFFFFFFFFFFFFFFFFFFFC000
0000FFFFFFFFFFFFFFFFFFFFFFC000
00003FFFFFFFFFFFFFFFFFFFFFC000
00007FFFFFFFFFFFFFFFFFFFFFC000
0001FFFFFFFFFFFFFFFFFFFFFFC000
0007FFFFFFFFFFFFFFFFFFFFFFC000
000FFFFFFFFFFFFFFFFFFFFFFFC000
003FFFFFFFFFFFFFFFFFFFFFFFC000
007FFFFFFFFFFFFFFFFFFFFFFFC000
00FFFFFFFFFFFFFFFFFFFFFFFFC000
01FFFFFFFFFFFFFFFFFFFFFFFFC000
03FFFFFFFFFFFFFFFFFFFFFFFFC000
07FFFFFFFFFFFFFFFFFFFFFFFFC000
07FFFFFFFFFFFFFFFFFFFFFFFFC000
0FFFFFFFE000000003FFFFE0000000
1FFFFFFE0000000003FFFFE0000000
1FFFFFF80000000003FFFFE0000000
3FFFFFE00000000003FFFFE0000000
3FFFFF800000000003FFFFE0000000
3FFFFF000000000003FFFFE0000000
7FFFFF000000000003FFFFE0000000
7FFFFE000000000003FFFFE0000000
7FFFFE000000000003FFFFE0000000
7FFFFC000000000003FFFFE0000000
7FFFFC000000000003FFFFE0000000
FFFFFC000000000003FFFFE0000000
FFFFFC000000000003FFFFE0000000
FFFFF8000000000003FFFFE0000000
FFFFF8000000000003FFFFE0000000
FFFFF8000000000003FFFFE0000000
FFFFF8000000000003FFFFE0000000
FFFFF8000000000003FFFFE0000000
FFFFFC000000000003FFFFE0000000
FFFFFC000000000003FFFFE0000000
FFFFFC000000000003FFFFE0000000
FFFFFC000000000003FFFFE0000000
7FFFFE000000000003FFFFE0000000
7FFFFE000000000003FFFFE0000000
7FFFFF000000000003FFFFE0000000
7FFFFF800000000003FFFFE0000000
7FFFFFC00000000003FFFFE0000000
3FFFFFE00000000003FFFFE0000000
3FFFFFF00000000003FFFFE0000000
3FFFFFFC0000000003FFFFE0000000
1FFFFFFF0000000003FFFFE0000000
1FFFFFFFF800000003FFFFE0000000
1FFFFFFFFFFFFFFFFFFFFFFFFFFF80
0FFFFFFFFFFFFFFFFFFFFFFFFFFF80
0FFFFFFFFFFFFFFFFFFFFFFFFFFF80
07FFFFFFFFFFFFFFFFFFFFFFFFFF80
07FFFFFFFFFFFFFFFFFFFFFFFFFF80
03FFFFFFFFFFFFFFFFFFFFFFFFFF80
01FFFFFFFFFFFFFFFFFFFFFFFFFF80
01FFFFFFFFFFFFFFFFFFFFFFFFFF80
00FFFFFFFFFFFFFFFFFFFFFFFFFF80
007FFFFFFFFFFFFFFFFFFFFFFFFF80
003FFFFFFFFFFFFFFFFFFFFFFFFF80
001FFFFFFFFFFFFFFFFFFFFFFFFF80
000FFFFFFFFFFFFFFFFFFFFFFFFF80
0003FFFFFFFFFFFFFFFFFFFFFFFF80
0001FFFFFFFFFFFFFFFFFFFFFFFF80
00007FFFFFFFFFFFFFFFFFFFFFFF80
00003FFFFFFFFFFFFFFFFFFFFFFF80
00000FFFFFFFFFFFFFFFFFFFFFFF80
000001FFFFFFFFFFFFFFFFFFFFFF80
0000003FFFFFFFFFFFFFFFFFFFFF80
00000000FFFFFFFFFFFFFFFFFFFF80
ENDCHAR
STARTCHAR quotesingle
ENCODING 39
SWIDTH 255 0
DWIDTH 42 0
BBX 22 43 10 78
BITMAP
FFFFFC
7FFFFC
7FFFFC
7FFFFC
7FFFF8
7FFFF8
7FFFF8
7FFFF8
7FFFF8
7FFFF8
7FFFF8
3FFFF8
3FFFF8
3FFFF8
3FFFF8
3FFFF0
3FFFF0
3FFFF0
3FFFF0
3FFFF0
3FFFF0
3FFFF0
1FFFF0
1FFFF0
1FFFF0
1FFFF0
1FFFE0
1FFFE0
1FFFE0
1FFFE0
1FFFE0
1FFFE0
1FFFE0
0FFFE0
0FFFE0
0FFFE0
0FFFE0
0FFFC0
0FFFC0
0FFFC0
0FFFC0
0FFFC0
0FFFC0
ENDCHAR
STARTCHAR parenleft
ENCODING 40
SWIDTH 356 0
DWIDTH 59 0
BBX 33 152 16 -15
BITMAP
00007FFF00
00007FFF00
0000FFFE00
0000FFFE00
0001FFFE00
0001FFFC00
0003FFFC00
0003FFF800
0003FFF800
0007FFF000
0007FFF000
000FFFF000
000FFFE000
000FFFE000
001FFFC000
001FFFC000
001FFFC000
003FFF8000
003FFF8000
003FFF8000
007FFF0000
007FFF0000
007FFE0000
00FFFE0000
00FFFE0000
00FFFC0000
01FFFC0000
01FFFC0000
01FFF80000
03FFF80000
03FFF80000
03FFF00000
03FFF00000
07FFF00000
07FFF00000
07FFE00000
0FFFE00000
0FFFE00000
0FFFC00000
0FFFC00000
0FFFC00000
1FFFC00000
1FFF800000
1FFF800000
1FFF800000
3FFF800000
3FFF000000
3FFF000000
3FFF000000
3FFF000000
3FFF000000
7FFE000000
7FFE000000
7FFE000000
7FFE000000
7FFE000000
7FFE000000
7FFC000000
7FFC000000
FFFC000000
FFFC000000
FFFC000000
FFFC000000
FFFC000000
FFFC000000
FFF8000000
FFF8000000
FFF8000000
FFF8000000
FFF8000000
FFF8000000
FFF8000000
FFF8000000
FFF8000000
FFF8000000
FFF8000000
FFF8000000
FFF8000000
FFF8000000
FFF8000000
FFF8000000
FFF8000000
FFF8000000
FFF8000000
FFF8000000
FFF8000000
FFF8000000
FFFC000000
FFFC000000
FFFC000000
FFFC000000
FFFC000000
FFFC000000
7FFC000000
7FFC000000
7FFC000000
7FFE000000
7FFE000000
7FFE000000
7FFE000000
3FFE000000
3FFE000000
3FFF000000
3FFF000000
3FFF000000
3FFF000000
1FFF000000
1FFF800000
1FFF800000
1FFF800000
1FFF800000
0FFFC00000
0FFFC00000
0FFFC00000
0FFFC00000
07FFE00000
07FFE00000
07FFE00000
07FFE00000
03FFF00000
03FFF00000
03FFF00000
03FFF80000
01FFF80000
01FFF80000
01FFFC0000
00FFFC0000
00FFFC0000
00FFFE0000
007FFE0000
007FFE0000
007FFF0000
003FFF0000
003FFF8000
003FFF8000
001FFF8000
001FFFC000
000FFFC000
000FFFE000
000FFFE000
0007FFE000
0007FFF000
0003FFF000
0003FFF800
0003FFF800
0001FFFC00
0001FFFC00
0000FFFE00
0000FFFE00
00007FFE00
00007FFF00
00007FFF80
ENDCHAR
STARTCHAR parenright
ENCODING 41
SWIDTH 355 0
DWIDTH 59 0
BBX 33 152 10 -15
BITMAP
7FFF000000
7FFF000000
3FFF800000
3FFF800000
1FFFC00000
1FFFC00000
0FFFC00000
0FFFE00000
0FFFE00000
07FFF00000
07FFF00000
03FFF00000
03FFF80000
03FFF80000
01FFFC0000
01FFFC0000
01FFFC0000
00FFFE0000
00FFFE0000
007FFE0000
007FFF0000
007FFF0000
003FFF0000
003FFF8000
003FFF8000
001FFF8000
001FFFC000
001FFFC000
000FFFC000
000FFFE000
000FFFE000
0007FFE000
0007FFE000
0007FFF000
0003FFF000
0003FFF000
0003FFF000
0003FFF800
0001FFF800
0001FFF800
0001FFF800
0001FFFC00
0000FFFC00
0000FFFC00
0000FFFC00
0000FFFE00
00007FFE00
00007FFE00
00007FFE00
00007FFE00
00007FFE00
00003FFF00
00003FFF00
00003FFF00
00003FFF00
00003FFF00
00003FFF00
00001FFF00
00001FFF80
00001FFF80
00001FFF80
00001FFF80
00001FFF80
00001FFF80
00001FFF80
00001FFF80
00000FFF80
00000FFF80
00000FFF80
00000FFF80
00000FFF80
00000FFF80
00000FFF80
00000FFF80
00000FFF80
00000FFF80
00000FFF80
00000FFF80
00000FFF80
00000FFF80
00000FFF80
00000FFF80
00000FFF80
00000FFF80
00000FFF80
00001FFF80
00001FFF80
00001FFF80
00001FFF80
00001FFF80
00001FFF80
00001FFF80
00001FFF80
00001FFF00
00001FFF00
00003FFF00
00003FFF00
00003FFF00
00003FFF00
00003FFF00
00003FFF00
00007FFE00
00007FFE00
00007FFE00
00007FFE00
00007FFE00
0000FFFE00
0000FFFC00
0000FFFC00
0000FFFC00
0000FFFC00
0001FFF800
0001FFF800
0001FFF800
0001FFF800
0003FFF800
0003FFF000
0003FFF000
0007FFF000
0007FFE000
0007FFE000
0007FFE000
000FFFE000
000FFFC000
000FFFC000
001FFFC000
001FFF8000
001FFF8000
003FFF8000
003FFF0000
007FFF0000
007FFF0000
007FFE0000
00FFFE0000
00FFFE0000
00FFFC0000
01FFFC0000
01FFFC0000
03FFF80000
03FFF80000
03FFF00000
07FFF00000
07FFF00000
0FFFE00000
0FFFE00000
1FFFC00000
1FFFC00000
3FFF800000
3FFF800000
3FFF800000
7FFF000000
FFFF000000
ENDCHAR
STARTCHAR asterisk
ENCODING 42
SWIDTH 469 0
DWIDTH 78 0
BBX 57 55 10 66
BITMAP
000000FFC0000000
000000FFC0000000
000000FFC0000000
000000FFC0000000
000000FFC0000000
000000FFC0000000
000000FFC0000000
000000FFC0000000
000000FFC0000000
000000FFC0000000
000000FFC0000000
000000FFC0000000
000000FFC0000000
000000FFC0000000
000000FFC0000000
180000FFC0000600
1F0000FFC0007E00
1FF000FFC003FE00
3FFE00FFC01FFF00
3FFFC0FFC0FFFF00
3FFFF8FFCFFFFF00
7FFFFFFFFFFFFF80
7FFFFFFFFFFFFF80
7FFFFFFFFFFFFF80
FFFFFFFFFFFFFF80
0FFFFFFFFFFFFC00
01FFFFFFFFFFC000
001FFFFFFFFE0000
0003FFFFFFF00000
00007FFFFF000000
00000FFFF8000000
00000FFFF8000000
00000FFFFC000000
00001FFFFE000000
00003FFFFF000000
00007FFFFF000000
00007FFFFF800000
0000FFF3FFC00000
0001FFE3FFC00000
0001FFE1FFE00000
0003FFC0FFF00000
0007FF80FFF00000
0007FF807FF80000
000FFF003FFC0000
001FFE001FFE0000
003FFC001FFE0000
003FFC000FFF0000
007FF80007FF8000
00FFF00007FFC000
007FF00003FF8000
001FE00001FE0000
000FC00000FC0000
0007C00000F80000
0001800000600000
0000800000400000
ENDCHAR
STARTCHAR plus
ENCODING 43
SWIDTH 690 0
DWIDTH 115 0
BBX 94 94 10 14
BITMAP
0000000000FFFC0000000000
0000000000FFFC0000000000
0000000000FFFC0000000000
0000000000FFFC0000000000
0000000000FFFC0000000000
0000000000FFFC0000000000
0000000000FFFC0000000000
0000000000FFFC0000000000
0000000000FFFC0000000000
0000000000FFFC0000000000
0000000000FFFC0000000000
0000000000FFFC0000000000
0000000000FFFC0000000000
0000000000FFFC0000000000
0000000000FFFC0000000000
0000000000FFFC0000000000
0000000000FFFC0000000000
0000000000FFFC0000000000
0000000000FFFC0000000000
0000000000FFFC0000000000
0000000000FFFC0000000000
0000000000FFFC0000000000
0000000000FFFC0000000000
0000000000FFFC0000000000
0000000000FFFC0000000000
0000000000FFFC0000000000
0000000000FFFC0000000000
0000000000FFFC0000000000
0000000000FFFC0000000000
0000000000FFFC0000000000
0000000000FFFC0000000000
0000000000FFFC0000000000
0000000000FFFC0000000000
0000000000FFFC0000000000
0000000000FFFC0000000000
0000000000FFFC0000000000
0000000000FFFC0000000000
0000000000FFFC0000000000
0000000000FFFC0000000000
0000000000FFFC0000000000
FFFFFFFFFFFFFFFFFFFFFFFC
FFFFFFFFFFFFFFFFFFFFFFFC
FFFFFFFFFFFFFFFFFFFFFFFC
FFFFFFFFFFFFFFFFFFFFFFFC
FFFFFFFFFFFFFFFFFFFFFFFC
FFFFFFFFFFFFFFFFFFFFFFFC
FFFFFFFFFFFFFFFFFFFFFFFC
FFFFFFFFFFFFFFFFFFFFFFFC
FFFFFFFFFFFFFFFFFFFFFFFC
FFFFFFFFFFFFFFFFFFFFFFFC
FFFFFFFFFFFFFFFFFFFFFFFC
FFFFFFFFFFFFFFFFFFFFFFFC
FFFFFFFFFFFFFFFFFFFFFFFC
FFFFFFFFFFFFFFFFFFFFFFFC
0000000000FFFC0000000000
0000000000FFFC0000000000
0000000000FFFC0000000000
0000000000FFFC0000000000
0000000000FFFC0000000000
0000000000FFFC0000000000
0000000000FFFC0000000000
0000000000FFFC0000000000
0000000000FFFC0000000000
0000000000FFFC0000000000
0000000000FFFC0000000000
0000000000FFFC0000000000
0000000000FFFC0000000000
0000000000FFFC0000000000
0000000000FFFC0000000000
0000000000FFFC0000000000
0000000000FFFC0000000000
0000000000FFFC0000000000
0000000000FFFC0000000000
0000000000FFFC0000000000
0000000000FFFC0000000000
0000000000FFFC0000000000
0000000000FFFC0000000000
0000000000FFFC0000000000
0000000000FFFC0000000000
0000000000FFFC0000000000
0000000000FFFC0000000000
0000000000FFFC0000000000
0000000000FFFC0000000000
0000000000FFFC0000000000
0000000000FFFC0000000000
0000000000FFFC0000000000
0000000000FFFC0000000000
0000000000FFFC0000000000
0000000000FFFC0000000000
0000000000FFFC0000000000
0000000000FFFC0000000000
0000000000FFFC0000000000
0000000000FFFC0000000000
0000000000FFFC0000000000
ENDCHAR
STARTCHAR comma
ENCODING 44
SWIDTH 259 0
DWIDTH 43 0
BBX 22 43 11 -20
BITMAP
FFFFFC
FFFFF8
FFFFF8
FFFFF8
FFFFF8
FFFFF0
FFFFF0
FFFFF0
FFFFF0
FFFFF0
FFFFF0
FFFFE0
FFFFE0
FFFFE0
FFFFE0
FFFFE0
FFFFC0
FFFFC0
FFFFC0
FFFFC0
FFFFC0
FFFF80
FFFF80
FFFF80
FFFF80
FFFF80
FFFF00
FFFF00
FFFF00
FFFF00
FFFF00
FFFE00
FFFE00
FFFE00
FFFE00
FFFE00
FFFE00
FFFC00
FFFC00
FFFC00
FFFC00
FFFC00
FFF800
ENDCHAR
STARTCHAR hyphen
ENCODING 45
SWIDTH 296 0
DWIDTH 49 0
BBX 40 14 5 54
BITMAP
FFFFFFFFFF
FFFFFFFFFF
FFFFFFFFFF
FFFFFFFFFF
FFFFFFFFFF
FFFFFFFFFF
FFFFFFFFFF
FFFFFFFFFF
FFFFFFFFFF
FFFFFFFFFF
FFFFFFFFFF
FFFFFFFFFF
FFFFFFFFFF
FFFFFFFFFF
ENDCHAR
STARTCHAR period
ENCODING 46
SWIDTH 262 0
DWIDTH 43 0
BBX 23 23 10 0
BITMAP
00FE00
03FF80
0FFFE0
1FFFF0
1FFFF8
3FFFF8
7FFFFC
7FFFFC
7FFFFE
7FFFFE
FFFFFE
FFFFFE
FFFFFE
7FFFFE
7FFFFE
7FFFFC
7FFFFC
3FFFF8
1FFFF8
1FFFF0
0FFFE0
03FF80
00FE00
ENDCHAR
STARTCHAR slash
ENCODING 47
SWIDTH 444 0
DWIDTH 74 0
BBX 71 121 1 0
BITMAP
000000000000007FFE
000000000000007FFC
00000000000000FFFC
00000000000000FFF8
00000000000001FFF8
00000000000001FFF8
00000000000003FFF0
00000000000003FFF0
00000000000007FFE0
00000000000007FFE0
0000000000000FFFC0
0000000000000FFFC0
0000000000001FFF80
0000000000001FFF80
0000000000003FFF00
0000000000003FFF00
0000000000003FFE00
0000000000007FFE00
0000000000007FFE00
000000000000FFFC00
000000000000FFFC00
000000000001FFF800
000000000001FFF800
000000000003FFF000
000000000003FFF000
000000000007FFE000
000000000007FFE000
00000000000FFFC000
00000000000FFFC000
00000000001FFF8000
00000000001FFF8000
00000000003FFF0000
00000000003FFF0000
00000000003FFF0000
00000000007FFE0000
00000000007FFE0000
0000000000FFFC0000
0000000000FFFC0000
0000000001FFF80000
0000000001FFF80000
0000000003FFF00000
0000000003FFF00000
0000000007FFE00000
0000000007FFE00000
000000000FFFC00000
000000000FFFC00000
000000001FFFC00000
000000001FFF800000
000000003FFF800000
000000003FFF000000
000000003FFF000000
000000007FFE000000
000000007FFE000000
00000000FFFC000000
00000000FFFC000000
00000001FFF8000000
00000001FFF8000000
00000003FFF0000000
00000003FFF0000000
00000007FFF0000000
00000007FFE0000000
0000000FFFE0000000
0000000FFFC0000000
0000001FFFC0000000
0000001FFF80000000
0000001FFF80000000
0000003FFF00000000
0000003FFF00000000
0000007FFE00000000
0000007FFE00000000
000000FFFC00000000
000000FFFC00000000
000001FFFC00000000
000001FFF800000000
000003FFF800000000
000003FFF000000000
000007FFF000000000
000007FFE000000000
00000FFFE000000000
00000FFFC000000000
00001FFFC000000000
00001FFF8000000000
00001FFF8000000000
00003FFF0000000000
00003FFF0000000000
00007FFF0000000000
00007FFE0000000000
0000FFFE0000000000
0000FFFC0000000000
0001FFFC0000000000
0001FFF80000000000
0003FFF80000000000
0003FFF00000000000
0007FFF00000000000
0007FFE00000000000
000FFFE00000000000
000FFFC00000000000
000FFFC00000000000
001FFFC00000000000
001FFF800000000000
003FFF800000000000
003FFF000000000000
007FFF000000000000
007FFE000000000000
00FFFE000000000000
00FFFC000000000000
01FFFC000000000000
01FFF8000000000000
03FFF8000000000000
03FFF0000000000000
07FFF0000000000000
07FFF0000000000000
0FFFE0000000000000
0FFFE0000000000000
0FFFC0000000000000
1FFFC0000000000000
1FFF80000000000000
3FFF80000000000000
3FFF00000000000000
7FFF00000000000000
FFFE00000000000000
ENDCHAR
STARTCHAR zero
ENCODING 48
SWIDTH 838 0
DWIDTH 139 0
BBX 125 121 7 0
BITMAP
00000000000003FFFE00000000000000
000000000000FFFFFFF8000000000000
00000000000FFFFFFFFF800000000000
0000000000FFFFFFFFFFF80000000000
0000000003FFFFFFFFFFFE0000000000
000000001FFFFFFFFFFFFFC000000000
000000007FFFFFFFFFFFFFF000000000
00000001FFFFFFFFFFFFFFFC00000000
00000007FFFFFFFFFFFFFFFF00000000
0000001FFFFFFFFFFFFFFFFFC0000000
0000003FFFFFFFFFFFFFFFFFE0000000
000000FFFFFFFFFFFFFFFFFFF8000000
000001FFFFFFFFFFFFFFFFFFFC000000
000003FFFFFFFFFFFFFFFFFFFE000000
00000FFFFFFFFFFFFFFFFFFFFF800000
00001FFFFFFFFFFFFFFFFFFFFFC00000
00003FFFFFFFFFFFFFFFFFFFFFE00000
00007FFFFFFFFFFFFFFFFFFFFFF00000
0000FFFFFFFFFFFFFFFFFFFFFFF80000
0001FFFFFFFFFFFFFFFFFFFFFFFC0000
0003FFFFFFFFFFFFFFFFFFFFFFFE0000
0007FFFFFFFFFF0007FFFFFFFFFF0000
0007FFFFFFFFC000001FFFFFFFFF0000
000FFFFFFFFE00000003FFFFFFFF8000
001FFFFFFFF0000000007FFFFFFFC000
003FFFFFFFC0000000001FFFFFFFE000
003FFFFFFF000000000007FFFFFFE000
007FFFFFFC000000000001FFFFFFF000
00FFFFFFF0000000000000FFFFFFF800
00FFFFFFE00000000000003FFFFFF800
01FFFFFFC00000000000001FFFFFFC00
01FFFFFF800000000000000FFFFFFC00
03FFFFFF0000000000000007FFFFFE00
03FFFFFE0000000000000003FFFFFE00
07FFFFFC0000000000000001FFFFFF00
07FFFFF80000000000000000FFFFFF00
0FFFFFF000000000000000007FFFFF80
0FFFFFE000000000000000007FFFFF80
1FFFFFE000000000000000003FFFFFC0
1FFFFFC000000000000000001FFFFFC0
1FFFFFC000000000000000001FFFFFC0
3FFFFF8000000000000000000FFFFFE0
3FFFFF8000000000000000000FFFFFE0
3FFFFF00000000000000000007FFFFE0
3FFFFF00000000000000000007FFFFE0
7FFFFE00000000000000000007FFFFF0
7FFFFE00000000000000000003FFFFF0
7FFFFE00000000000000000003FFFFF0
7FFFFE00000000000000000003FFFFF0
7FFFFC00000000000000000001FFFFF0
7FFFFC00000000000000000001FFFFF8
FFFFFC00000000000000000001FFFFF8
FFFFFC00000000000000000001FFFFF8
FFFFF800000000000000000001FFFFF8
FFFFF800000000000000000000FFFFF8
FFFFF800000000000000000000FFFFF8
FFFFF800000000000000000000FFFFF8
FFFFF800000000000000000000FFFFF8
FFFFF800000000000000000000FFFFF8
FFFFF800000000000000000000FFFFF8
FFFFF800000000000000000000FFFFF8
FFFFF800000000000000000000FFFFF8
FFFFF800000000000000000000FFFFF8
FFFFF800000000000000000000FFFFF8
FFFFF800000000000000000000FFFFF8
FFFFF800000000000000000000FFFFF8
FFFFF800000000000000000001FFFFF8
FFFFFC00000000000000000001FFFFF8
7FFFFC00000000000000000001FFFFF8
7FFFFC00000000000000000001FFFFF0
7FFFFC00000000000000000001FFFFF0
7FFFFC00000000000000000001FFFFF0
7FFFFE00000000000000000003FFFFF0
3FFFFE00000000000000000003FFFFF0
3FFFFE00000000000000000003FFFFE0
3FFFFF00000000000000000007FFFFE0
3FFFFF00000000000000000007FFFFE0
1FFFFF0000000000000000000FFFFFE0
1FFFFF8000000000000000000FFFFFC0
1FFFFF8000000000000000000FFFFFC0
0FFFFFC000000000000000001FFFFFC0
0FFFFFC000000000000000003FFFFF80
0FFFFFE000000000000000003FFFFF80
07FFFFF000000000000000007FFFFF00
07FFFFF00000000000000000FFFFFF00
03FFFFF80000000000000000FFFFFE00
03FFFFFC0000000000000001FFFFFE00
01FFFFFE0000000000000003FFFFFC00
01FFFFFF0000000000000007FFFFFC00
00FFFFFF800000000000000FFFFFF800
00FFFFFFC00000000000001FFFFFF800
007FFFFFE00000000000003FFFFFF000
007FFFFFF8000000000000FFFFFFF000
003FFFFFFC000000000001FFFFFFE000
001FFFFFFF000000000007FFFFFFC000
000FFFFFFFC0000000001FFFFFFFC000
000FFFFFFFF0000000007FFFFFFF8000
0007FFFFFFFE00000003FFFFFFFF0000
0003FFFFFFFFC000001FFFFFFFFE0000
0001FFFFFFFFFF0007FFFFFFFFFC0000
0000FFFFFFFFFFFFFFFFFFFFFFF80000
0000FFFFFFFFFFFFFFFFFFFFFFF80000
00007FFFFFFFFFFFFFFFFFFFFFF00000
00003FFFFFFFFFFFFFFFFFFFFFE00000
00001FFFFFFFFFFFFFFFFFFFFFC00000
000007FFFFFFFFFFFFFFFFFFFF000000
000003FFFFFFFFFFFFFFFFFFFE000000
000001FFFFFFFFFFFFFFFFFFFC000000
000000FFFFFFFFFFFFFFFFFFF8000000
0000003FFFFFFFFFFFFFFFFFE0000000
0000001FFFFFFFFFFFFFFFFFC0000000
00000007FFFFFFFFFFFFFFFF00000000
00000003FFFFFFFFFFFFFFFE00000000
00000000FFFFFFFFFFFFFFF800000000
000000003FFFFFFFFFFFFFE000000000
000000000FFFFFFFFFFFFF8000000000
0000000003FFFFFFFFFFFC0000000000
00000000007FFFFFFFFFF00000000000
00000000000FFFFFFFFF800000000000
000000000000FFFFFFF8000000000000
00000000000003FFFE00000000000000
ENDCHAR
STARTCHAR one
ENCODING 49
SWIDTH 385 0
DWIDTH 64 0
BBX 49 121 4 0
BITMAP
FFFFE000000000
FFFFFF00000000
FFFFFFE0000000
FFFFFFFC000000
FFFFFFFF000000
FFFFFFFFC00000
FFFFFFFFE00000
FFFFFFFFF80000
FFFFFFFFFC0000
FFFFFFFFFE0000
FFFFFFFFFF0000
FFFFFFFFFF8000
FFFFFFFFFF8000
FFFFFFFFFFC000
FFFFFFFFFFE000
FFFFFFFFFFF000
FFFFFFFFFFF000
FFFFFFFFFFF800
FFFFFFFFFFF800
FFFFFFFFFFFC00
FFFFFFFFFFFC00
0000FFFFFFFC00
00001FFFFFFE00
000007FFFFFE00
000001FFFFFE00
000000FFFFFF00
0000007FFFFF00
0000007FFFFF00
0000003FFFFF00
0000001FFFFF80
0000001FFFFF80
0000001FFFFF80
0000000FFFFF80
0000000FFFFF80
0000000FFFFF80
0000000FFFFF80
0000000FFFFF80
0000000FFFFF80
0000000FFFFF80
00000007FFFF80
00000007FFFF80
00000007FFFF80
00000007FFFF80
00000007FFFF80
00000007FFFF80
00000007FFFF80
00000007FFFF80
00000007FFFF80
00000007FFFF80
00000007FFFF80
00000007FFFF80
00000007FFFF80
00000007FFFF80
00000007FFFF80
00000007FFFF80
00000007FFFF80
00000007FFFF80
00000007FFFF80
00000007FFFF80
00000007FFFF80
00000007FFFF80
00000007FFFF80
00000007FFFF80
00000007FFFF80
00000007FFFF80
00000007FFFF80
00000007FFFF80
00000007FFFF80
00000007FFFF80
00000007FFFF80
00000007FFFF80
00000007FFFF80
00000007FFFF80
00000007FFFF80
00000007FFFF80
00000007FFFF80
00000007FFFF80
00000007FFFF80
00000007FFFF80
00000007FFFF80
00000007FFFF80
00000007FFFF80
00000007FFFF80
00000007FFFF80
00000007FFFF80
00000007FFFF80
00000007FFFF80
00000007FFFF80
00000007FFFF80
00000007FFFF80
00000007FFFF80
00000007FFFF80
00000007FFFF80
00000007FFFF80
00000007FFFF80
00000007FFFF80
00000007FFFF80
00000007FFFF80
00000007FFFF80
00000007FFFF80
00000007FFFF80
00000007FFFF80
00000007FFFF80
00000007FFFF80
00000007FFFF80
00000007FFFF80
00000007FFFF80
00000007FFFF80
00000007FFFF80
00000007FFFF80
00000007FFFF80
00000007FFFF80
00000007FFFF80
00000007FFFF80
00000007FFFF80
00000007FFFF80
00000007FFFF80
00000007FFFF80
00000007FFFF80
00000007FFFF80
00000007FFFF80
ENDCHAR
STARTCHAR two
ENCODING 50
SWIDTH 825 0
DWIDTH 137 0
BBX 118 121 10 0
BITMAP
7FFFFFFFFFFFFFFFFFFFFF80000000
7FFFFFFFFFFFFFFFFFFFFFFC000000
7FFFFFFFFFFFFFFFFFFFFFFF800000
7FFFFFFFFFFFFFFFFFFFFFFFE00000
7FFFFFFFFFFFFFFFFFFFFFFFF80000
7FFFFFFFFFFFFFFFFFFFFFFFFE0000
7FFFFFFFFFFFFFFFFFFFFFFFFF8000
7FFFFFFFFFFFFFFFFFFFFFFFFFC000
7FFFFFFFFFFFFFFFFFFFFFFFFFE000
7FFFFFFFFFFFFFFFFFFFFFFFFFF800
7FFFFFFFFFFFFFFFFFFFFFFFFFFC00
7FFFFFFFFFFFFFFFFFFFFFFFFFFC00
7FFFFFFFFFFFFFFFFFFFFFFFFFFE00
7FFFFFFFFFFFFFFFFFFFFFFFFFFF00
7FFFFFFFFFFFFFFFFFFFFFFFFFFF80
7FFFFFFFFFFFFFFFFFFFFFFFFFFF80
7FFFFFFFFFFFFFFFFFFFFFFFFFFFC0
7FFFFFFFFFFFFFFFFFFFFFFFFFFFE0
7FFFFFFFFFFFFFFFFFFFFFFFFFFFE0
7FFFFFFFFFFFFFFFFFFFFFFFFFFFE0
7FFFFFFFFFFFFFFFFFFFFFFFFFFFF0
0000000000000000000007FFFFFFF0
00000000000000000000007FFFFFF8
00000000000000000000003FFFFFF8
00000000000000000000000FFFFFF8
000000000000000000000007FFFFF8
000000000000000000000003FFFFFC
000000000000000000000003FFFFFC
000000000000000000000001FFFFFC
000000000000000000000001FFFFFC
000000000000000000000000FFFFFC
000000000000000000000000FFFFFC
000000000000000000000000FFFFFC
000000000000000000000000FFFFFC
0000000000000000000000007FFFFC
0000000000000000000000007FFFFC
0000000000000000000000007FFFFC
000000000000000000000000FFFFFC
000000000000000000000000FFFFFC
000000000000000000000000FFFFFC
000000000000000000000000FFFFFC
000000000000000000000000FFFFFC
000000000000000000000001FFFFF8
000000000000000000000001FFFFF8
000000000000000000000001FFFFF8
000000000000000000000003FFFFF8
000000000000000000000007FFFFF0
00000000000000000000000FFFFFF0
00000000000000000000001FFFFFF0
00000000000000000000007FFFFFE0
0000000000000000000003FFFFFFE0
00000003FFFFFFFFFFFFFFFFFFFFC0
000000FFFFFFFFFFFFFFFFFFFFFFC0
000007FFFFFFFFFFFFFFFFFFFFFF80
00003FFFFFFFFFFFFFFFFFFFFFFF00
0000FFFFFFFFFFFFFFFFFFFFFFFF00
0003FFFFFFFFFFFFFFFFFFFFFFFE00
0007FFFFFFFFFFFFFFFFFFFFFFFC00
001FFFFFFFFFFFFFFFFFFFFFFFF800
003FFFFFFFFFFFFFFFFFFFFFFFF000
007FFFFFFFFFFFFFFFFFFFFFFFE000
00FFFFFFFFFFFFFFFFFFFFFFFFC000
01FFFFFFFFFFFFFFFFFFFFFFFF0000
03FFFFFFFFFFFFFFFFFFFFFFFE0000
03FFFFFFFFFFFFFFFFFFFFFFF80000
07FFFFFFFFFFFFFFFFFFFFFFE00000
07FFFFFFFFFFFFFFFFFFFFFF800000
0FFFFFFFFFFFFFFFFFFFFFF8000000
0FFFFFFFFFFFFFFFFFFFFF00000000
1FFFFFFF0000000000000000000000
1FFFFFF00000000000000000000000
3FFFFFC00000000000000000000000
3FFFFF800000000000000000000000
3FFFFF000000000000000000000000
3FFFFE000000000000000000000000
7FFFFC000000000000000000000000
7FFFFC000000000000000000000000
7FFFFC000000000000000000000000
7FFFF8000000000000000000000000
7FFFF8000000000000000000000000
7FFFF8000000000000000000000000
7FFFF8000000000000000000000000
7FFFF0000000000000000000000000
FFFFF0000000000000000000000000
FFFFF0000000000000000000000000
FFFFF0000000000000000000000000
FFFFF0000000000000000000000000
FFFFF0000000000000000000000000
FFFFF0000000000000000000000000
FFFFF0000000000000000000000000
FFFFF0000000000000000000000000
FFFFF0000000000000000000000000
FFFFF0000000000000000000000000
FFFFF0000000000000000000000000
FFFFF0000000000000000000000000
FFFFF0000000000000000000000000
FFFFF0000000000000000000000000
FFFFF0000000000000000000000000
FFFFF0000000000000000000000000
FFFFF0000000000000000000000000
FFFFFFFFFFFFFFFFFFFFFFFFFFFFF0
FFFFFFFFFFFFFFFFFFFFFFFFFFFFF0
FFFFFFFFFFFFFFFFFFFFFFFFFFFFF0
FFFFFFFFFFFFFFFFFFFFFFFFFFFFF0
FFFFFFFFFFFFFFFFFFFFFFFFFFFFF0
FFFFFFFFFFFFFFFFFFFFFFFFFFFFF0
FFFFFFFFFFFFFFFFFFFFFFFFFFFFF0
FFFFFFFFFFFFFFFFFFFFFFFFFFFFF0
FFFFFFFFFFFFFFFFFFFFFFFFFFFFF0
FFFFFFFFFFFFFFFFFFFFFFFFFFFFF0
FFFFFFFFFFFFFFFFFFFFFFFFFFFFF0
FFFFFFFFFFFFFFFFFFFFFFFFFFFFF0
FFFFFFFFFFFFFFFFFFFFFFFFFFFFF0
FFFFFFFFFFFFFFFFFFFFFFFFFFFFF0
FFFFFFFFFFFFFFFFFFFFFFFFFFFFF0
FFFFFFFFFFFFFFFFFFFFFFFFFFFFF0
FFFFFFFFFFFFFFFFFFFFFFFFFFFFF0
FFFFFFFFFFFFFFFFFFFFFFFFFFFFF0
FFFFFFFFFFFFFFFFFFFFFFFFFFFFF0
FFFFFFFFFFFFFFFFFFFFFFFFFFFFF0
FFFFFFFFFFFFFFFFFFFFFFFFFFFFF0
ENDCHAR
STARTCHAR three
ENCODING 51
SWIDTH 827 0
DWIDTH 137 0
BBX 121 121 8 0
BITMAP
FFFFFFFFFFFFFFFFFFFFFF0000000000
FFFFFFFFFFFFFFFFFFFFFFFC00000000
FFFFFFFFFFFFFFFFFFFFFFFFC0000000
FFFFFFFFFFFFFFFFFFFFFFFFF0000000
FFFFFFFFFFFFFFFFFFFFFFFFFE000000
FFFFFFFFFFFFFFFFFFFFFFFFFF000000
FFFFFFFFFFFFFFFFFFFFFFFFFFC00000
FFFFFFFFFFFFFFFFFFFFFFFFFFF00000
FFFFFFFFFFFFFFFFFFFFFFFFFFF80000
FFFFFFFFFFFFFFFFFFFFFFFFFFFC0000
FFFFFFFFFFFFFFFFFFFFFFFFFFFE0000
FFFFFFFFFFFFFFFFFFFFFFFFFFFF0000
FFFFFFFFFFFFFFFFFFFFFFFFFFFF8000
FFFFFFFFFFFFFFFFFFFFFFFFFFFFC000
FFFFFFFFFFFFFFFFFFFFFFFFFFFFC000
FFFFFFFFFFFFFFFFFFFFFFFFFFFFE000
FFFFFFFFFFFFFFFFFFFFFFFFFFFFE000
FFFFFFFFFFFFFFFFFFFFFFFFFFFFF000
FFFFFFFFFFFFFFFFFFFFFFFFFFFFF000
FFFFFFFFFFFFFFFFFFFFFFFFFFFFF800
FFFFFFFFFFFFFFFFFFFFFFFFFFFFF800
000000000000000000003FFFFFFFF800
0000000000000000000001FFFFFFFC00
00000000000000000000003FFFFFFC00
00000000000000000000000FFFFFFC00
000000000000000000000007FFFFFC00
000000000000000000000003FFFFFC00
000000000000000000000001FFFFFE00
000000000000000000000000FFFFFE00
000000000000000000000000FFFFFE00
0000000000000000000000007FFFFE00
0000000000000000000000007FFFFE00
0000000000000000000000007FFFFE00
0000000000000000000000007FFFFE00
0000000000000000000000003FFFFE00
0000000000000000000000003FFFFE00
0000000000000000000000003FFFFE00
0000000000000000000000003FFFFC00
0000000000000000000000007FFFFC00
0000000000000000000000007FFFFC00
0000000000000000000000007FFFFC00
0000000000000000000000007FFFFC00
0000000000000000000000007FFFF800
000000000000000000000000FFFFF800
000000000000000000000000FFFFF800
000000000000000000000001FFFFF000
000000000000000000000003FFFFF000
000000000000000000000007FFFFE000
00000000000000000000000FFFFFE000
00000000000000000000003FFFFFC000
0000000000000000000003FFFFFF8000
0000000FFFFFFFFFFFFFFFFFFFFF0000
0000000FFFFFFFFFFFFFFFFFFFFE0000
0000000FFFFFFFFFFFFFFFFFFFFC0000
0000000FFFFFFFFFFFFFFFFFFFF80000
0000000FFFFFFFFFFFFFFFFFFFE00000
0000000FFFFFFFFFFFFFFFFFFF800000
0000000FFFFFFFFFFFFFFFFFFE000000
0000000FFFFFFFFFFFFFFFFFFF000000
0000000FFFFFFFFFFFFFFFFFFFE00000
0000000FFFFFFFFFFFFFFFFFFFF00000
0000000FFFFFFFFFFFFFFFFFFFFC0000
0000000FFFFFFFFFFFFFFFFFFFFE0000
0000000FFFFFFFFFFFFFFFFFFFFF0000
0000000FFFFFFFFFFFFFFFFFFFFF8000
0000000FFFFFFFFFFFFFFFFFFFFFC000
0000000FFFFFFFFFFFFFFFFFFFFFE000
0000000FFFFFFFFFFFFFFFFFFFFFF000
0000000FFFFFFFFFFFFFFFFFFFFFF800
0000000000000000000001FFFFFFF800
00000000000000000000001FFFFFFC00
000000000000000000000007FFFFFC00
000000000000000000000001FFFFFE00
000000000000000000000000FFFFFE00
0000000000000000000000007FFFFF00
0000000000000000000000007FFFFF00
0000000000000000000000003FFFFF00
0000000000000000000000003FFFFF00
0000000000000000000000001FFFFF80
0000000000000000000000001FFFFF80
0000000000000000000000001FFFFF80
0000000000000000000000000FFFFF80
0000000000000000000000000FFFFF80
0000000000000000000000000FFFFF80
0000000000000000000000000FFFFF80
0000000000000000000000000FFFFF80
0000000000000000000000000FFFFF80
0000000000000000000000001FFFFF80
0000000000000000000000001FFFFF80
0000000000000000000000001FFFFF80
0000000000000000000000003FFFFF80
0000000000000000000000003FFFFF80
0000000000000000000000007FFFFF00
000000000000000000000000FFFFFF00
000000000000000000000001FFFFFF00
000000000000000000000003FFFFFF00
00000000000000000000000FFFFFFF00
00000000000000000000003FFFFFFE00
0000000000000000000000FFFFFFFE00
000000000000000000001FFFFFFFFC00
FFFFFFFFFFFFFFFFFFFFFFFFFFFFFC00
FFFFFFFFFFFFFFFFFFFFFFFFFFFFFC00
FFFFFFFFFFFFFFFFFFFFFFFFFFFFF800
FFFFFFFFFFFFFFFFFFFFFFFFFFFFF800
FFFFFFFFFFFFFFFFFFFFFFFFFFFFF000
FFFFFFFFFFFFFFFFFFFFFFFFFFFFE000
FFFFFFFFFFFFFFFFFFFFFFFFFFFFE000
FFFFFFFFFFFFFFFFFFFFFFFFFFFFC000
FFFFFFFFFFFFFFFFFFFFFFFFFFFF8000
FFFFFFFFFFFFFFFFFFFFFFFFFFFF0000
FFFFFFFFFFFFFFFFFFFFFFFFFFFE0000
FFFFFFFFFFFFFFFFFFFFFFFFFFFC0000
FFFFFFFFFFFFFFFFFFFFFFFFFFF80000
FFFFFFFFFFFFFFFFFFFFFFFFFFF00000
FFFFFFFFFFFFFFFFFFFFFFFFFFC00000
FFFFFFFFFFFFFFFFFFFFFFFFFF000000
FFFFFFFFFFFFFFFFFFFFFFFFFE000000
FFFFFFFFFFFFFFFFFFFFFFFFF0000000
FFFFFFFFFFFFFFFFFFFFFFFFC0000000
FFFFFFFFFFFFFFFFFFFFFFFE00000000
FFFFFFFFFFFFFFFFFFFFFF8000000000
ENDCHAR
STARTCHAR four
ENCODING 52
SWIDTH 845 0
DWIDTH 140 0
BBX 128 121 8 0
BITMAP
FFFFF800000000000000003FFFFE0000
FFFFF800000000000000003FFFFE0000
FFFFF800000000000000003FFFFE0000
FFFFF800000000000000003FFFFE0000
FFFFF800000000000000003FFFFE0000
FFFFF800000000000000003FFFFE0000
FFFFF800000000000000003FFFFE0000
FFFFF800000000000000003FFFFE0000
FFFFF800000000000000003FFFFE0000
FFFFF800000000000000003FFFFE0000
FFFFF800000000000000003FFFFE0000
FFFFF800000000000000003FFFFE0000
FFFFF800000000000000003FFFFE0000
FFFFF800000000000000003FFFFE0000
FFFFF800000000000000003FFFFE0000
FFFFF800000000000000003FFFFE0000
FFFFF800000000000000003FFFFE0000
FFFFF800000000000000003FFFFE0000
FFFFF800000000000000003FFFFE0000
FFFFF800000000000000003FFFFE0000
FFFFF800000000000000003FFFFE0000
FFFFF800000000000000003FFFFE0000
FFFFF800000000000000003FFFFE0000
FFFFF800000000000000003FFFFE0000
FFFFF800000000000000003FFFFE0000
FFFFF800000000000000003FFFFE0000
FFFFF800000000000000003FFFFE0000
FFFFF800000000000000003FFFFE0000
FFFFF800000000000000003FFFFE0000
FFFFF800000000000000003FFFFE0000
FFFFF800000000000000003FFFFE0000
FFFFF800000000000000003FFFFE0000
FFFFF800000000000000003FFFFE0000
FFFFF800000000000000003FFFFE0000
FFFFF800000000000000003FFFFE0000
FFFFF800000000000000003FFFFE0000
FFFFF800000000000000003FFFFE0000
FFFFF800000000000000003FFFFE0000
FFFFF800000000000000003FFFFE0000
FFFFF800000000000000003FFFFE0000
FFFFF800000000000000003FFFFE0000
FFFFF800000000000000003FFFFE0000
FFFFF800000000000000003FFFFE0000
FFFFF800000000000000003FFFFE0000
FFFFF800000000000000003FFFFE0000
FFFFF800000000000000003FFFFE0000
FFFFF800000000000000003FFFFE0000
FFFFF800000000000000003FFFFE0000
FFFFF800000000000000003FFFFE0000
FFFFF800000000000000003FFFFE0000
FFFFF800000000000000003FFFFE0000
FFFFF800000000000000003FFFFE0000
FFFFF800000000000000003FFFFE0000
FFFFF800000000000000003FFFFE0000
FFFFF800000000000000003FFFFE0000
FFFFF800000000000000003FFFFE0000
FFFFFC00000000000000003FFFFE0000
FFFFFC00000000000000003FFFFE0000
FFFFFC00000000000000003FFFFE0000
7FFFFC00000000000000003FFFFE0000
7FFFFE00000000000000003FFFFE0000
7FFFFE00000000000000003FFFFE0000
7FFFFF00000000000000003FFFFE0000
7FFFFF00000000000000003FFFFE0000
3FFFFF80000000000000003FFFFE0000
3FFFFFC0000000000000003FFFFE0000
3FFFFFF0000000000000003FFFFE0000
3FFFFFFC000000000000003FFFFE0000
1FFFFFFFC00000000000003FFFFE0000
1FFFFFFFFFFFFFFFFFFFFFFFFFFFFFFF
0FFFFFFFFFFFFFFFFFFFFFFFFFFFFFFF
0FFFFFFFFFFFFFFFFFFFFFFFFFFFFFFF
07FFFFFFFFFFFFFFFFFFFFFFFFFFFFFF
07FFFFFFFFFFFFFFFFFFFFFFFFFFFFFF
03FFFFFFFFFFFFFFFFFFFFFFFFFFFFFF
01FFFFFFFFFFFFFFFFFFFFFFFFFFFFFF
01FFFFFFFFFFFFFFFFFFFFFFFFFFFFFF
00FFFFFFFFFFFFFFFFFFFFFFFFFFFFFF
007FFFFFFFFFFFFFFFFFFFFFFFFFFFFF
003FFFFFFFFFFFFFFFFFFFFFFFFFFFFF
001FFFFFFFFFFFFFFFFFFFFFFFFFFFFF
000FFFFFFFFFFFFFFFFFFFFFFFFFFFFF
0003FFFFFFFFFFFFFFFFFFFFFFFFFFFF
0001FFFFFFFFFFFFFFFFFFFFFFFFFFFF
00007FFFFFFFFFFFFFFFFFFFFFFFFFFF
00000FFFFFFFFFFFFFFFFFFFFFFFFFFF
000003FFFFFFFFFFFFFFFFFFFFFFFFFF
0000003FFFFFFFFFFFFFFFFFFFFFFFFF
00000001FFFFFFFFFFFFFFFFFFFFFFFF
00000000000000000000003FFFFE0000
00000000000000000000003FFFFE0000
00000000000000000000003FFFFE0000
00000000000000000000003FFFFE0000
00000000000000000000003FFFFE0000
00000000000000000000003FFFFE0000
00000000000000000000003FFFFE0000
00000000000000000000003FFFFE0000
00000000000000000000003FFFFE0000
00000000000000000000003FFFFE0000
00000000000000000000003FFFFE0000
00000000000000000000003FFFFE0000
00000000000000000000003FFFFE0000
00000000000000000000003FFFFE0000
00000000000000000000003FFFFE0000
00000000000000000000003FFFFE0000
00000000000000000000003FFFFE0000
00000000000000000000003FFFFE0000
00000000000000000000003FFFFE0000
00000000000000000000003FFFFE0000
00000000000000000000003FFFFE0000
00000000000000000000003FFFFE0000
00000000000000000000003FFFFE0000
00000000000000000000003FFFFE0000
00000000000000000000003FFFFE0000
00000000000000000000003FFFFE0000
00000000000000000000003FFFFE0000
00000000000000000000003FFFFE0000
00000000000000000000003FFFFE0000
00000000000000000000003FFFFE0000
00000000000000000000003FFFFE0000
00000000000000000000003FFFFE0000
ENDCHAR
STARTCHAR five
ENCODING 53
SWIDTH 885 0
DWIDTH 147 0
BBX 128 121 10 0
BITMAP
FFFFFFFFFFFFFFFFFFFFFFFFFFFFFFC0
FFFFFFFFFFFFFFFFFFFFFFFFFFFFFFC0
FFFFFFFFFFFFFFFFFFFFFFFFFFFFFFC0
FFFFFFFFFFFFFFFFFFFFFFFFFFFFFFC0
FFFFFFFFFFFFFFFFFFFFFFFFFFFFFFC0
FFFFFFFFFFFFFFFFFFFFFFFFFFFFFFC0
FFFFFFFFFFFFFFFFFFFFFFFFFFFFFFC0
FFFFFFFFFFFFFFFFFFFFFFFFFFFFFFC0
FFFFFFFFFFFFFFFFFFFFFFFFFFFFFFC0
FFFFFFFFFFFFFFFFFFFFFFFFFFFFFFC0
FFFFFFFFFFFFFFFFFFFFFFFFFFFFFFC0
FFFFFFFFFFFFFFFFFFFFFFFFFFFFFFC0
FFFFFFFFFFFFFFFFFFFFFFFFFFFFFFC0
FFFFFFFFFFFFFFFFFFFFFFFFFFFFFFC0
FFFFFFFFFFFFFFFFFFFFFFFFFFFFFFC0
FFFFFFFFFFFFFFFFFFFFFFFFFFFFFFC0
FFFFFFFFFFFFFFFFFFFFFFFFFFFFFFC0
FFFFFFFFFFFFFFFFFFFFFFFFFFFFFFC0
FFFFFFFFFFFFFFFFFFFFFFFFFFFFFFC0
FFFFFFFFFFFFFFFFFFFFFFFFFFFFFFC0
FFFFFFFFFFFFFFFFFFFFFFFFFFFFFFC0
FFFFFC00000000000000000000000000
FFFFFC00000000000000000000000000
FFFFFC00000000000000000000000000
FFFFFC00000000000000000000000000
FFFFFC00000000000000000000000000
FFFFFC00000000000000000000000000
FFFFFC00000000000000000000000000
FFFFFC00000000000000000000000000
FFFFFC00000000000000000000000000
FFFFFC00000000000000000000000000
FFFFFC00000000000000000000000000
FFFFFC00000000000000000000000000
FFFFFC00000000000000000000000000
FFFFFC00000000000000000000000000
FFFFFC00000000000000000000000000
FFFFFC00000000000000000000000000
FFFFFC00000000000000000000000000
FFFFFC00000000000000000000000000
FFFFFC00000000000000000000000000
FFFFFC00000000000000000000000000
FFFFFC00000000000000000000000000
FFFFFC00000000000000000000000000
FFFFFC00000000000000000000000000
FFFFFC00000000000000000000000000
FFFFFC00000000000000000000000000
FFFFFC00000000000000000000000000
FFFFFC00000000000000000000000000
FFFFFC00000000000000000000000000
FFFFFC00000000000000000000000000
FFFFFC00000000000000000000000000
FFFFFFFFFFFFFFFFFFFFFFFFE0000000
FFFFFFFFFFFFFFFFFFFFFFFFFF800000
FFFFFFFFFFFFFFFFFFFFFFFFFFF00000
FFFFFFFFFFFFFFFFFFFFFFFFFFFE0000
FFFFFFFFFFFFFFFFFFFFFFFFFFFF8000
FFFFFFFFFFFFFFFFFFFFFFFFFFFFE000
FFFFFFFFFFFFFFFFFFFFFFFFFFFFF000
FFFFFFFFFFFFFFFFFFFFFFFFFFFFF800
FFFFFFFFFFFFFFFFFFFFFFFFFFFFFE00
FFFFFFFFFFFFFFFFFFFFFFFFFFFFFF00
FFFFFFFFFFFFFFFFFFFFFFFFFFFFFF80
FFFFFFFFFFFFFFFFFFFFFFFFFFFFFF80
FFFFFFFFFFFFFFFFFFFFFFFFFFFFFFC0
FFFFFFFFFFFFFFFFFFFFFFFFFFFFFFE0
FFFFFFFFFFFFFFFFFFFFFFFFFFFFFFF0
FFFFFFFFFFFFFFFFFFFFFFFFFFFFFFF0
FFFFFFFFFFFFFFFFFFFFFFFFFFFFFFF8
FFFFFFFFFFFFFFFFFFFFFFFFFFFFFFF8
000000000000000000000000FFFFFFFC
0000000000000000000000000FFFFFFC
00000000000000000000000003FFFFFC
00000000000000000000000001FFFFFE
000000000000000000000000007FFFFE
000000000000000000000000007FFFFE
000000000000000000000000003FFFFE
000000000000000000000000001FFFFE
000000000000000000000000001FFFFF
000000000000000000000000000FFFFF
000000000000000000000000000FFFFF
000000000000000000000000000FFFFF
000000000000000000000000000FFFFF
000000000000000000000000000FFFFF
000000000000000000000000000FFFFF
000000000000000000000000000FFFFF
000000000000000000000000000FFFFF
000000000000000000000000000FFFFF
000000000000000000000000000FFFFF
000000000000000000000000000FFFFF
000000000000000000000000000FFFFF
000000000000000000000000001FFFFF
000000000000000000000000001FFFFF
000000000000000000000000003FFFFF
000000000000000000000000003FFFFF
000000000000000000000000007FFFFE
00000000000000000000000000FFFFFE
00000000000000000000000001FFFFFE
00000000000000000000000007FFFFFE
0000000000000000000000001FFFFFFC
000000000000000000000001FFFFFFFC
FFFFFFFFFFFFFFFFFFFFFFFFFFFFFFFC
FFFFFFFFFFFFFFFFFFFFFFFFFFFFFFF8
FFFFFFFFFFFFFFFFFFFFFFFFFFFFFFF8
FFFFFFFFFFFFFFFFFFFFFFFFFFFFFFF0
FFFFFFFFFFFFFFFFFFFFFFFFFFFFFFF0
FFFFFFFFFFFFFFFFFFFFFFFFFFFFFFE0
FFFFFFFFFFFFFFFFFFFFFFFFFFFFFFE0
FFFFFFFFFFFFFFFFFFFFFFFFFFFFFFC0
FFFFFFFFFFFFFFFFFFFFFFFFFFFFFF80
FFFFFFFFFFFFFFFFFFFFFFFFFFFFFF00
FFFFFFFFFFFFFFFFFFFFFFFFFFFFFE00
FFFFFFFFFFFFFFFFFFFFFFFFFFFFFC00
FFFFFFFFFFFFFFFFFFFFFFFFFFFFF800
FFFFFFFFFFFFFFFFFFFFFFFFFFFFF000
FFFFFFFFFFFFFFFFFFFFFFFFFFFFE000
FFFFFFFFFFFFFFFFFFFFFFFFFFFF8000
FFFFFFFFFFFFFFFFFFFFFFFFFFFE0000
FFFFFFFFFFFFFFFFFFFFFFFFFFFC0000
FFFFFFFFFFFFFFFFFFFFFFFFFFE00000
FFFFFFFFFFFFFFFFFFFFFFFFFF000000
FFFFFFFFFFFFFFFFFFFFFFFFC0000000
ENDCHAR
STARTCHAR six
ENCODING 54
SWIDTH 872 0
DWIDTH 145 0
BBX 129 121 7 0
BITMAP
000000000003FFFFFFFFFFFFFFFFFFF000
0000000001FFFFFFFFFFFFFFFFFFFFF000
000000001FFFFFFFFFFFFFFFFFFFFFF000
00000000FFFFFFFFFFFFFFFFFFFFFFF000
00000007FFFFFFFFFFFFFFFFFFFFFFF000
0000001FFFFFFFFFFFFFFFFFFFFFFFF000
0000007FFFFFFFFFFFFFFFFFFFFFFFF000
000001FFFFFFFFFFFFFFFFFFFFFFFFF000
000003FFFFFFFFFFFFFFFFFFFFFFFFF000
00000FFFFFFFFFFFFFFFFFFFFFFFFFF000
00001FFFFFFFFFFFFFFFFFFFFFFFFFF000
00003FFFFFFFFFFFFFFFFFFFFFFFFFF000
0000FFFFFFFFFFFFFFFFFFFFFFFFFFF000
0001FFFFFFFFFFFFFFFFFFFFFFFFFFF000
0003FFFFFFFFFFFFFFFFFFFFFFFFFFF000
0007FFFFFFFFFFFFFFFFFFFFFFFFFFF000
000FFFFFFFFFFFFFFFFFFFFFFFFFFFF000
000FFFFFFFFFFFFFFFFFFFFFFFFFFFF000
001FFFFFFFFFFFFFFFFFFFFFFFFFFFF000
003FFFFFFFFFFFFFFFFFFFFFFFFFFFF000
007FFFFFFFFFFFFFFFFFFFFFFFFFFFF000
007FFFFFFFFF8000000000000000000000
00FFFFFFFFE00000000000000000000000
00FFFFFFFF000000000000000000000000
01FFFFFFFC000000000000000000000000
01FFFFFFE0000000000000000000000000
03FFFFFFC0000000000000000000000000
03FFFFFF80000000000000000000000000
07FFFFFE00000000000000000000000000
07FFFFFC00000000000000000000000000
0FFFFFF800000000000000000000000000
0FFFFFF000000000000000000000000000
0FFFFFF000000000000000000000000000
1FFFFFE000000000000000000000000000
1FFFFFC000000000000000000000000000
1FFFFFC000000000000000000000000000
1FFFFF8000000000000000000000000000
3FFFFF8000000000000000000000000000
3FFFFF0000000000000000000000000000
3FFFFF0000000000000000000000000000
3FFFFF0000000000000000000000000000
7FFFFE0000000000000000000000000000
7FFFFE0000000000000000000000000000
7FFFFE0000000000000000000000000000
7FFFFE0000000000000000000000000000
7FFFFC0000000000000000000000000000
7FFFFC0000000000000000000000000000
7FFFFC0000000000000000000000000000
FFFFFC0000000000000000000000000000
FFFFFC0000000000000000000000000000
FFFFFFFFFFFFFFFFFFFFFFFFF000000000
FFFFFFFFFFFFFFFFFFFFFFFFFFC0000000
FFFFFFFFFFFFFFFFFFFFFFFFFFF8000000
FFFFFFFFFFFFFFFFFFFFFFFFFFFF000000
FFFFFFFFFFFFFFFFFFFFFFFFFFFFC00000
FFFFFFFFFFFFFFFFFFFFFFFFFFFFE00000
FFFFFFFFFFFFFFFFFFFFFFFFFFFFF80000
FFFFFFFFFFFFFFFFFFFFFFFFFFFFFC0000
FFFFFFFFFFFFFFFFFFFFFFFFFFFFFF0000
FFFFFFFFFFFFFFFFFFFFFFFFFFFFFF8000
FFFFFFFFFFFFFFFFFFFFFFFFFFFFFFC000
FFFFFFFFFFFFFFFFFFFFFFFFFFFFFFC000
FFFFFFFFFFFFFFFFFFFFFFFFFFFFFFE000
FFFFFFFFFFFFFFFFFFFFFFFFFFFFFFF000
FFFFFFFFFFFFFFFFFFFFFFFFFFFFFFF800
FFFFFFFFFFFFFFFFFFFFFFFFFFFFFFF800
FFFFFFFFFFFFFFFFFFFFFFFFFFFFFFFC00
FFFFFFFFFFFFFFFFFFFFFFFFFFFFFFFC00
FFFFF8000000000000000000FFFFFFFC00
FFFFFC0000000000000000000FFFFFFE00
FFFFFC00000000000000000003FFFFFE00
7FFFFC00000000000000000000FFFFFE00
7FFFFC000000000000000000007FFFFF00
7FFFFC000000000000000000003FFFFF00
7FFFFC000000000000000000003FFFFF00
7FFFFE000000000000000000001FFFFF00
7FFFFE000000000000000000000FFFFF00
7FFFFE000000000000000000000FFFFF80
3FFFFE000000000000000000000FFFFF80
3FFFFF000000000000000000000FFFFF80
3FFFFF0000000000000000000007FFFF80
3FFFFF0000000000000000000007FFFF80
1FFFFF8000000000000000000007FFFF80
1FFFFF8000000000000000000007FFFF80
1FFFFFC000000000000000000007FFFF80
1FFFFFC000000000000000000007FFFF80
0FFFFFE00000000000000000000FFFFF80
0FFFFFE00000000000000000000FFFFF80
0FFFFFF00000000000000000000FFFFF80
07FFFFF80000000000000000000FFFFF80
07FFFFFC0000000000000000001FFFFF80
03FFFFFE0000000000000000001FFFFF00
03FFFFFF0000000000000000003FFFFF00
03FFFFFF8000000000000000003FFFFF00
01FFFFFFC000000000000000007FFFFF00
01FFFFFFF00000000000000000FFFFFF00
00FFFFFFFC0000000000000001FFFFFE00
007FFFFFFF0000000000000007FFFFFE00
007FFFFFFFE00000000000001FFFFFFE00
003FFFFFFFFF800000000001FFFFFFFE00
003FFFFFFFFFFFFFFFFFFFFFFFFFFFFC00
001FFFFFFFFFFFFFFFFFFFFFFFFFFFFC00
000FFFFFFFFFFFFFFFFFFFFFFFFFFFF800
0007FFFFFFFFFFFFFFFFFFFFFFFFFFF800
0007FFFFFFFFFFFFFFFFFFFFFFFFFFF000
0003FFFFFFFFFFFFFFFFFFFFFFFFFFF000
0001FFFFFFFFFFFFFFFFFFFFFFFFFFE000
0000FFFFFFFFFFFFFFFFFFFFFFFFFFC000
00007FFFFFFFFFFFFFFFFFFFFFFFFFC000
00001FFFFFFFFFFFFFFFFFFFFFFFFF8000
00000FFFFFFFFFFFFFFFFFFFFFFFFF0000
000007FFFFFFFFFFFFFFFFFFFFFFFE0000
000001FFFFFFFFFFFFFFFFFFFFFFFC0000
000000FFFFFFFFFFFFFFFFFFFFFFF80000
0000003FFFFFFFFFFFFFFFFFFFFFE00000
0000000FFFFFFFFFFFFFFFFFFFFFC00000
00000003FFFFFFFFFFFFFFFFFFFF000000
000000007FFFFFFFFFFFFFFFFFFC000000
000000000FFFFFFFFFFFFFFFFFF0000000
0000000000FFFFFFFFFFFFFFFF80000000
000000000003FFFFFFFFFFFFE000000000
ENDCHAR
STARTCHAR seven
ENCODING 55
SWIDTH 756 0
DWIDTH 126 0
BBX 115 121 7 0
BITMAP
FFFFFFFFFFFFFFFFFFFFFFFFFFE000
FFFFFFFFFFFFFFFFFFFFFFFFFFFC00
FFFFFFFFFFFFFFFFFFFFFFFFFFFE00
FFFFFFFFFFFFFFFFFFFFFFFFFFFF00
FFFFFFFFFFFFFFFFFFFFFFFFFFFF80
FFFFFFFFFFFFFFFFFFFFFFFFFFFFC0
FFFFFFFFFFFFFFFFFFFFFFFFFFFFC0
FFFFFFFFFFFFFFFFFFFFFFFFFFFFE0
FFFFFFFFFFFFFFFFFFFFFFFFFFFFE0
FFFFFFFFFFFFFFFFFFFFFFFFFFFFE0
FFFFFFFFFFFFFFFFFFFFFFFFFFFFE0
FFFFFFFFFFFFFFFFFFFFFFFFFFFFE0
FFFFFFFFFFFFFFFFFFFFFFFFFFFFE0
FFFFFFFFFFFFFFFFFFFFFFFFFFFFE0
FFFFFFFFFFFFFFFFFFFFFFFFFFFFC0
FFFFFFFFFFFFFFFFFFFFFFFFFFFFC0
FFFFFFFFFFFFFFFFFFFFFFFFFFFF80
FFFFFFFFFFFFFFFFFFFFFFFFFFFF80
FFFFFFFFFFFFFFFFFFFFFFFFFFFF00
FFFFFFFFFFFFFFFFFFFFFFFFFFFE00
FFFFFFFFFFFFFFFFFFFFFFFFFFFE00
000000000000000000001FFFFFFC00
000000000000000000001FFFFFF800
000000000000000000003FFFFFF000
000000000000000000007FFFFFE000
00000000000000000000FFFFFFE000
00000000000000000001FFFFFFC000
00000000000000000001FFFFFF8000
00000000000000000003FFFFFF0000
00000000000000000007FFFFFE0000
0000000000000000000FFFFFFC0000
0000000000000000001FFFFFFC0000
0000000000000000003FFFFFF80000
0000000000000000003FFFFFF00000
0000000000000000007FFFFFE00000
000000000000000000FFFFFFC00000
000000000000000001FFFFFFC00000
000000000000000003FFFFFF800000
000000000000000007FFFFFF000000
000000000000000007FFFFFE000000
00000000000000000FFFFFFC000000
00000000000000001FFFFFF8000000
00000000000000003FFFFFF8000000
00000000000000007FFFFFF0000000
0000000000000000FFFFFFE0000000
0000000000000000FFFFFFC0000000
0000000000000001FFFFFF80000000
0000000000000003FFFFFF80000000
0000000000000007FFFFFF00000000
000000000000000FFFFFFE00000000
000000000000000FFFFFFC00000000
000000000000001FFFFFF800000000
000000000000003FFFFFF800000000
000000000000007FFFFFF000000000
00000000000000FFFFFFE000000000
00000000000001FFFFFFC000000000
00000000000001FFFFFF8000000000
00000000000003FFFFFF0000000000
00000000000007FFFFFF0000000000
0000000000000FFFFFFE0000000000
0000000000001FFFFFFC0000000000
0000000000003FFFFFF80000000000
0000000000003FFFFFF00000000000
0000000000007FFFFFF00000000000
000000000000FFFFFFE00000000000
000000000001FFFFFFC00000000000
000000000003FFFFFF800000000000
000000000007FFFFFF000000000000
000000000007FFFFFE000000000000
00000000000FFFFFFE000000000000
00000000001FFFFFFC000000000000
00000000003FFFFFF8000000000000
00000000007FFFFFF0000000000000
00000000007FFFFFE0000000000000
0000000000FFFFFFE0000000000000
0000000001FFFFFFC0000000000000
0000000003FFFFFF80000000000000
0000000007FFFFFF00000000000000
000000000FFFFFFE00000000000000
000000000FFFFFFE00000000000000
000000001FFFFFFC00000000000000
000000003FFFFFF800000000000000
000000007FFFFFF000000000000000
00000000FFFFFFE000000000000000
00000001FFFFFFC000000000000000
00000001FFFFFFC000000000000000
00000003FFFFFF8000000000000000
00000007FFFFFF0000000000000000
0000000FFFFFFE0000000000000000
0000001FFFFFFC0000000000000000
0000003FFFFFFC0000000000000000
0000003FFFFFF80000000000000000
0000007FFFFFF00000000000000000
000000FFFFFFE00000000000000000
000001FFFFFFC00000000000000000
000003FFFFFF800000000000000000
000003FFFFFF800000000000000000
000007FFFFFF000000000000000000
00000FFFFFFE000000000000000000
00001FFFFFFC000000000000000000
00003FFFFFF8000000000000000000
00007FFFFFF8000000000000000000
00007FFFFFF0000000000000000000
0000FFFFFFE0000000000000000000
0001FFFFFFC0000000000000000000
0003FFFFFF80000000000000000000
0007FFFFFF80000000000000000000
000FFFFFFF00000000000000000000
000FFFFFFE00000000000000000000
001FFFFFFC00000000000000000000
003FFFFFF800000000000000000000
007FFFFFF000000000000000000000
00FFFFFFF000000000000000000000
01FFFFFFE000000000000000000000
01FFFFFFC000000000000000000000
03FFFFFF8000000000000000000000
07FFFFFF0000000000000000000000
0FFFFFFF0000000000000000000000
1FFFFFFE0000000000000000000000
1FFFFFFC0000000000000000000000
7FFFFFF80000000000000000000000
ENDCHAR
STARTCHAR eight
ENCODING 56
SWIDTH 898 0
DWIDTH 149 0
BBX 133 121 8 0
BITMAP
000000007FFFFFFFFFFFFFFFF000000000
0000000FFFFFFFFFFFFFFFFFFF80000000
000000FFFFFFFFFFFFFFFFFFFFF8000000
000007FFFFFFFFFFFFFFFFFFFFFF000000
00001FFFFFFFFFFFFFFFFFFFFFFFC00000
00007FFFFFFFFFFFFFFFFFFFFFFFF00000
0000FFFFFFFFFFFFFFFFFFFFFFFFFC0000
0003FFFFFFFFFFFFFFFFFFFFFFFFFE0000
0007FFFFFFFFFFFFFFFFFFFFFFFFFF0000
000FFFFFFFFFFFFFFFFFFFFFFFFFFFC000
001FFFFFFFFFFFFFFFFFFFFFFFFFFFE000
003FFFFFFFFFFFFFFFFFFFFFFFFFFFE000
007FFFFFFFFFFFFFFFFFFFFFFFFFFFF000
00FFFFFFFFFFFFFFFFFFFFFFFFFFFFF800
01FFFFFFFFFFFFFFFFFFFFFFFFFFFFFC00
01FFFFFFFFFFFFFFFFFFFFFFFFFFFFFC00
03FFFFFFFFFFFFFFFFFFFFFFFFFFFFFE00
03FFFFFFFFFFFFFFFFFFFFFFFFFFFFFE00
07FFFFFFFFFFFFFFFFFFFFFFFFFFFFFF00
07FFFFFFFFFFFFFFFFFFFFFFFFFFFFFF00
0FFFFFFFFFFFFFFFFFFFFFFFFFFFFFFF80
0FFFFFFFFE00000000000003FFFFFFFF80
0FFFFFFFC0000000000000001FFFFFFF80
0FFFFFFE000000000000000003FFFFFFC0
1FFFFFF8000000000000000000FFFFFFC0
1FFFFFF00000000000000000007FFFFFC0
1FFFFFE00000000000000000003FFFFFC0
1FFFFFC00000000000000000001FFFFFC0
1FFFFFC00000000000000000001FFFFFC0
1FFFFF800000000000000000000FFFFFC0
1FFFFF800000000000000000000FFFFFC0
1FFFFF800000000000000000000FFFFFC0
1FFFFF0000000000000000000007FFFFC0
1FFFFF0000000000000000000007FFFFC0
1FFFFF0000000000000000000007FFFFC0
1FFFFF0000000000000000000007FFFFC0
1FFFFF0000000000000000000007FFFFC0
1FFFFF0000000000000000000007FFFFC0
1FFFFF0000000000000000000007FFFFC0
1FFFFF0000000000000000000007FFFFC0
0FFFFF0000000000000000000007FFFF80
0FFFFF800000000000000000000FFFFF80
0FFFFF800000000000000000000FFFFF80
07FFFF800000000000000000000FFFFF80
07FFFFC00000000000000000001FFFFF00
07FFFFC00000000000000000001FFFFF00
03FFFFE00000000000000000003FFFFE00
03FFFFF00000000000000000007FFFFE00
01FFFFFC000000000000000001FFFFFC00
00FFFFFF000000000000000007FFFFF800
007FFFFFE0000000000000003FFFFFF800
003FFFFFFFFFFFFFFFFFFFFFFFFFFFF000
001FFFFFFFFFFFFFFFFFFFFFFFFFFFE000
000FFFFFFFFFFFFFFFFFFFFFFFFFFFC000
0007FFFFFFFFFFFFFFFFFFFFFFFFFF0000
0001FFFFFFFFFFFFFFFFFFFFFFFFFE0000
0000FFFFFFFFFFFFFFFFFFFFFFFFF80000
00001FFFFFFFFFFFFFFFFFFFFFFFC00000
00007FFFFFFFFFFFFFFFFFFFFFFFF00000
0001FFFFFFFFFFFFFFFFFFFFFFFFFC0000
0007FFFFFFFFFFFFFFFFFFFFFFFFFF0000
000FFFFFFFFFFFFFFFFFFFFFFFFFFF8000
003FFFFFFFFFFFFFFFFFFFFFFFFFFFE000
007FFFFFFFFFFFFFFFFFFFFFFFFFFFF000
00FFFFFFFFFFFFFFFFFFFFFFFFFFFFF800
01FFFFFFFFFFFFFFFFFFFFFFFFFFFFFC00
03FFFFFFFFFFFFFFFFFFFFFFFFFFFFFE00
03FFFFFFFFFFFFFFFFFFFFFFFFFFFFFE00
07FFFFFFFFFFFFFFFFFFFFFFFFFFFFFF00
0FFFFFFFC0000000000000001FFFFFFF80
0FFFFFFE000000000000000003FFFFFF80
1FFFFFF8000000000000000000FFFFFFC0
1FFFFFE00000000000000000003FFFFFC0
3FFFFFC00000000000000000001FFFFFE0
3FFFFF800000000000000000000FFFFFE0
3FFFFF0000000000000000000007FFFFE0
7FFFFF0000000000000000000003FFFFF0
7FFFFE0000000000000000000003FFFFF0
7FFFFE0000000000000000000003FFFFF0
7FFFFC0000000000000000000001FFFFF0
7FFFFC0000000000000000000001FFFFF0
7FFFFC0000000000000000000001FFFFF0
FFFFFC0000000000000000000001FFFFF8
FFFFFC0000000000000000000001FFFFF8
FFFFFC0000000000000000000001FFFFF8
FFFFFC0000000000000000000001FFFFF8
FFFFFC0000000000000000000001FFFFF8
7FFFFC0000000000000000000001FFFFF8
7FFFFC0000000000000000000001FFFFF0
7FFFFE0000000000000000000003FFFFF0
7FFFFE0000000000000000000003FFFFF0
7FFFFE0000000000000000000003FFFFF0
7FFFFF0000000000000000000007FFFFF0
7FFFFF800000000000000000000FFFFFF0
3FFFFFC00000000000000000001FFFFFF0
3FFFFFE00000000000000000003FFFFFE0
3FFFFFF8000000000000000000FFFFFFE0
3FFFFFFE000000000000000003FFFFFFE0
1FFFFFFFC0000000000000001FFFFFFFC0
1FFFFFFFFE00000000000003FFFFFFFFC0
0FFFFFFFFFFFFFFFFFFFFFFFFFFFFFFFC0
0FFFFFFFFFFFFFFFFFFFFFFFFFFFFFFF80
0FFFFFFFFFFFFFFFFFFFFFFFFFFFFFFF80
07FFFFFFFFFFFFFFFFFFFFFFFFFFFFFF00
03FFFFFFFFFFFFFFFFFFFFFFFFFFFFFE00
03FFFFFFFFFFFFFFFFFFFFFFFFFFFFFE00
01FFFFFFFFFFFFFFFFFFFFFFFFFFFFFC00
00FFFFFFFFFFFFFFFFFFFFFFFFFFFFF800
007FFFFFFFFFFFFFFFFFFFFFFFFFFFF800
007FFFFFFFFFFFFFFFFFFFFFFFFFFFF000
003FFFFFFFFFFFFFFFFFFFFFFFFFFFE000
001FFFFFFFFFFFFFFFFFFFFFFFFFFFC000
0007FFFFFFFFFFFFFFFFFFFFFFFFFF8000
0003FFFFFFFFFFFFFFFFFFFFFFFFFE0000
0001FFFFFFFFFFFFFFFFFFFFFFFFFC0000
00007FFFFFFFFFFFFFFFFFFFFFFFF00000
00001FFFFFFFFFFFFFFFFFFFFFFFC00000
000007FFFFFFFFFFFFFFFFFFFFFF000000
000001FFFFFFFFFFFFFFFFFFFFFC000000
0000001FFFFFFFFFFFFFFFFFFFC0000000
00000000FFFFFFFFFFFFFFFFF800000000
ENDCHAR
STARTCHAR nine
ENCODING 57
SWIDTH 861 0
DWIDTH 143 0
BBX 129 121 7 0
BITMAP
00000007FFFFFFFFFFFFE0000000000000
000000FFFFFFFFFFFFFFFF800000000000
000007FFFFFFFFFFFFFFFFF80000000000
00001FFFFFFFFFFFFFFFFFFF0000000000
00007FFFFFFFFFFFFFFFFFFFE000000000
0000FFFFFFFFFFFFFFFFFFFFF800000000
0003FFFFFFFFFFFFFFFFFFFFFE00000000
0007FFFFFFFFFFFFFFFFFFFFFF80000000
000FFFFFFFFFFFFFFFFFFFFFFFC0000000
001FFFFFFFFFFFFFFFFFFFFFFFF0000000
003FFFFFFFFFFFFFFFFFFFFFFFF8000000
007FFFFFFFFFFFFFFFFFFFFFFFFC000000
00FFFFFFFFFFFFFFFFFFFFFFFFFE000000
01FFFFFFFFFFFFFFFFFFFFFFFFFF000000
01FFFFFFFFFFFFFFFFFFFFFFFFFF800000
03FFFFFFFFFFFFFFFFFFFFFFFFFFC00000
07FFFFFFFFFFFFFFFFFFFFFFFFFFE00000
07FFFFFFFFFFFFFFFFFFFFFFFFFFF00000
0FFFFFFFFFFFFFFFFFFFFFFFFFFFF80000
0FFFFFFFFFFFFFFFFFFFFFFFFFFFFC0000
1FFFFFFFFFFFFFFFFFFFFFFFFFFFFC0000
1FFFFFFFC00000000000FFFFFFFFFE0000
1FFFFFFE00000000000007FFFFFFFF0000
3FFFFFF8000000000000007FFFFFFF0000
3FFFFFE0000000000000001FFFFFFF8000
3FFFFFC00000000000000007FFFFFF8000
7FFFFF800000000000000003FFFFFFC000
7FFFFF000000000000000000FFFFFFC000
7FFFFF0000000000000000007FFFFFE000
7FFFFE0000000000000000003FFFFFE000
7FFFFE0000000000000000001FFFFFF000
FFFFFC0000000000000000000FFFFFF000
FFFFFC00000000000000000007FFFFF000
FFFFFC00000000000000000007FFFFF800
FFFFFC00000000000000000003FFFFF800
FFFFFC00000000000000000001FFFFF800
FFFFF800000000000000000001FFFFFC00
FFFFF800000000000000000000FFFFFC00
FFFFF800000000000000000000FFFFFC00
FFFFF800000000000000000000FFFFFE00
FFFFF8000000000000000000007FFFFE00
FFFFF8000000000000000000007FFFFE00
FFFFFC000000000000000000007FFFFE00
FFFFFC000000000000000000003FFFFE00
FFFFFC000000000000000000003FFFFF00
FFFFFC000000000000000000003FFFFF00
FFFFFC000000000000000000003FFFFF00
7FFFFE000000000000000000001FFFFF00
7FFFFE000000000000000000001FFFFF00
7FFFFF000000000000000000001FFFFF00
7FFFFF800000000000000000001FFFFF00
7FFFFF800000000000000000001FFFFF00
3FFFFFE00000000000000000001FFFFF80
3FFFFFF00000000000000000001FFFFF80
3FFFFFFC0000000000000000000FFFFF80
1FFFFFFF8000000000000000000FFFFF80
1FFFFFFFFFFFFFFFFFFFFFFFFFFFFFFF80
1FFFFFFFFFFFFFFFFFFFFFFFFFFFFFFF80
0FFFFFFFFFFFFFFFFFFFFFFFFFFFFFFF80
0FFFFFFFFFFFFFFFFFFFFFFFFFFFFFFF80
07FFFFFFFFFFFFFFFFFFFFFFFFFFFFFF80
03FFFFFFFFFFFFFFFFFFFFFFFFFFFFFF80
03FFFFFFFFFFFFFFFFFFFFFFFFFFFFFF80
01FFFFFFFFFFFFFFFFFFFFFFFFFFFFFF80
00FFFFFFFFFFFFFFFFFFFFFFFFFFFFFF80
007FFFFFFFFFFFFFFFFFFFFFFFFFFFFF80
003FFFFFFFFFFFFFFFFFFFFFFFFFFFFF80
000FFFFFFFFFFFFFFFFFFFFFFFFFFFFF80
0007FFFFFFFFFFFFFFFFFFFFFFFFFFFF80
0001FFFFFFFFFFFFFFFFFFFFFFFFFFFF80
00007FFFFFFFFFFFFFFFFFFFFFFFFFFF80
00001FFFFFFFFFFFFFFFFFFFFFFFFFFF80
000003FFFFFFFFFFFFFFFFFFFFFFFFFF00
0000001FFFFFFFFFFFFFFFFFFFFFFFFF00
000000000000000000000000001FFFFF00
000000000000000000000000001FFFFF00
000000000000000000000000003FFFFF00
000000000000000000000000003FFFFF00
000000000000000000000000003FFFFF00
000000000000000000000000003FFFFE00
000000000000000000000000007FFFFE00
000000000000000000000000007FFFFE00
00000000000000000000000000FFFFFE00
00000000000000000000000000FFFFFE00
00000000000000000000000000FFFFFC00
00000000000000000000000001FFFFFC00
00000000000000000000000001FFFFFC00
00000000000000000000000003FFFFF800
00000000000000000000000007FFFFF800
00000000000000000000000007FFFFF800
0000000000000000000000000FFFFFF000
0000000000000000000000001FFFFFF000
0000000000000000000000003FFFFFF000
0000000000000000000000007FFFFFE000
000000000000000000000001FFFFFFE000
000000000000000000000003FFFFFFC000
00000000000000000000000FFFFFFFC000
00000000000000000000007FFFFFFF8000
0000000000000000000003FFFFFFFF8000
000000000000000000007FFFFFFFFF0000
0003FFFFFFFFFFFFFFFFFFFFFFFFFE0000
0003FFFFFFFFFFFFFFFFFFFFFFFFFE0000
0003FFFFFFFFFFFFFFFFFFFFFFFFFC0000
0003FFFFFFFFFFFFFFFFFFFFFFFFF80000
0003FFFFFFFFFFFFFFFFFFFFFFFFF00000
0003FFFFFFFFFFFFFFFFFFFFFFFFF00000
0003FFFFFFFFFFFFFFFFFFFFFFFFE00000
0003FFFFFFFFFFFFFFFFFFFFFFFFC00000
0003FFFFFFFFFFFFFFFFFFFFFFFF800000
0003FFFFFFFFFFFFFFFFFFFFFFFE000000
0003FFFFFFFFFFFFFFFFFFFFFFFC000000
0003FFFFFFFFFFFFFFFFFFFFFFF8000000
0003FFFFFFFFFFFFFFFFFFFFFFF0000000
0003FFFFFFFFFFFFFFFFFFFFFFC0000000
0003FFFFFFFFFFFFFFFFFFFFFF00000000
0003FFFFFFFFFFFFFFFFFFFFFC00000000
0003FFFFFFFFFFFFFFFFFFFFF000000000
0003FFFFFFFFFFFFFFFFFFFF8000000000
0003FFFFFFFFFFFFFFFFFFFC0000000000
0003FFFFFFFFFFFFFFFFFFC00000000000
0003FFFFFFFFFFFFFFFFE0000000000000
ENDCHAR
STARTCHAR colon
ENCODING 58
SWIDTH 262 0
DWIDTH 43 0
BBX 23 78 10 0
BITMAP
00FE00
03FF80
07FFE0
1FFFF0
1FFFF8
3FFFF8
7FFFFC
7FFFFC
7FFFFE
7FFFFE
FFFFFE
FFFFFE
FFFFFE
7FFFFE
7FFFFE
7FFFFC
7FFFFC
3FFFFC
3FFFF8
1FFFF0
0FFFE0
03FFC0
00FE00
000000
000000
000000
000000
000000
000000
000000
000000
000000
000000
000000
000000
000000
000000
000000
000000
000000
000000
000000
000000
000000
000000
000000
000000
000000
000000
000000
000000
000000
000000
000000
000000
00FE00
03FF80
0FFFE0
1FFFF0
1FFFF8
3FFFF8
7FFFFC
7FFFFC
7FFFFE
7FFFFE
FFFFFE
FFFFFE
FFFFFE
7FFFFE
7FFFFE
7FFFFC
7FFFFC
3FFFF8
1FFFF8
1FFFF0
0FFFE0
03FF80
00FE00
ENDCHAR
STARTCHAR semicolon
ENCODING 59
SWIDTH 262 0
DWIDTH 43 0
BBX 22 96 11 -20
BITMAP
01FC00
07FF80
0FFFC0
1FFFE0
3FFFF0
7FFFF8
7FFFF8
FFFFF8
FFFFFC
FFFFFC
FFFFFC
FFFFFC
FFFFFC
FFFFFC
FFFFFC
FFFFF8
7FFFF8
7FFFF8
3FFFF0
1FFFE0
0FFFC0
07FF80
01FC00
000000
000000
000000
000000
000000
000000
000000
000000
000000
000000
000000
000000
000000
000000
000000
000000
000000
000000
000000
000000
000000
000000
000000
000000
000000
000000
000000
000000
000000
000000
FFFFFC
FFFFF8
FFFFF8
FFFFF8
FFFFF8
FFFFF0
FFFFF0
FFFFF0
FFFFF0
FFFFF0
FFFFF0
FFFFE0
FFFFE0
FFFFE0
FFFFE0
FFFFE0
FFFFC0
FFFFC0
FFFFC0
FFFFC0
FFFFC0
FFFF80
FFFF80
FFFF80
FFFF80
FFFF80
FFFF00
FFFF00
FFFF00
FFFF00
FFFF00
FFFE00
FFFE00
FFFE00
FFFE00
FFFE00
FFFE00
FFFC00
FFFC00
FFFC00
FFFC00
FFFC00
FFF800
ENDCHAR
STARTCHAR less
ENCODING 60
SWIDTH 690 0
DWIDTH 115 0
BBX 94 89 10 17
BITMAP
00000000000000000000000C
00000000000000000000003C
0000000000000000000001FC
0000000000000000000007FC
000000000000000000003FFC
00000000000000000000FFFC
00000000000000000003FFFC
0000000000000000001FFFFC
0000000000000000007FFFFC
000000000000000001FFFFFC
00000000000000000FFFFFFC
00000000000000003FFFFFFC
0000000000000001FFFFFFFC
0000000000000007FFFFFFFC
000000000000001FFFFFFFFC
00000000000000FFFFFFFFF0
00000000000003FFFFFFFFC0
0000000000000FFFFFFFFE00
0000000000007FFFFFFFF800
000000000001FFFFFFFFC000
00000000000FFFFFFFFF0000
00000000003FFFFFFFF80000
0000000000FFFFFFFFC00000
0000000007FFFFFFFF000000
000000001FFFFFFFF8000000
00000000FFFFFFFFE0000000
00000003FFFFFFFF00000000
0000000FFFFFFFFC00000000
0000007FFFFFFFE000000000
000001FFFFFFFF8000000000
000007FFFFFFFC0000000000
00003FFFFFFFE00000000000
0000FFFFFFFF800000000000
0007FFFFFFFC000000000000
001FFFFFFFF0000000000000
007FFFFFFF80000000000000
03FFFFFFFE00000000000000
0FFFFFFFF000000000000000
1FFFFFFFC000000000000000
3FFFFFFE0000000000000000
3FFFFFF00000000000000000
7FFFFFC00000000000000000
7FFFFE000000000000000000
FFFFF8000000000000000000
FFFFE0000000000000000000
7FFFF8000000000000000000
7FFFFF000000000000000000
7FFFFFC00000000000000000
7FFFFFF80000000000000000
3FFFFFFE0000000000000000
1FFFFFFFC000000000000000
07FFFFFFF000000000000000
01FFFFFFFE00000000000000
007FFFFFFF80000000000000
001FFFFFFFF0000000000000
0003FFFFFFFC000000000000
0000FFFFFFFF800000000000
00001FFFFFFFE00000000000
000007FFFFFFFC0000000000
000001FFFFFFFF8000000000
0000003FFFFFFFE000000000
0000000FFFFFFFFC00000000
00000003FFFFFFFF00000000
000000007FFFFFFFE0000000
000000001FFFFFFFF8000000
0000000007FFFFFFFF000000
0000000000FFFFFFFFC00000
00000000003FFFFFFFF80000
000000000007FFFFFFFE0000
000000000001FFFFFFFFC000
0000000000007FFFFFFFF000
0000000000000FFFFFFFFE00
00000000000003FFFFFFFF80
00000000000000FFFFFFFFF0
000000000000001FFFFFFFFC
0000000000000007FFFFFFFC
0000000000000000FFFFFFFC
00000000000000003FFFFFFC
00000000000000000FFFFFFC
000000000000000001FFFFFC
0000000000000000007FFFFC
0000000000000000001FFFFC
00000000000000000003FFFC
00000000000000000000FFFC
000000000000000000001FFC
0000000000000000000007FC
0000000000000000000001FC
00000000000000000000003C
00000000000000000000000C
ENDCHAR
STARTCHAR equal
ENCODING 61
SWIDTH 690 0
DWIDTH 115 0
BBX 94 59 10 32
BITMAP
FFFFFFFFFFFFFFFFFFFFFFFC
FFFFFFFFFFFFFFFFFFFFFFFC
FFFFFFFFFFFFFFFFFFFFFFFC
FFFFFFFFFFFFFFFFFFFFFFFC
FFFFFFFFFFFFFFFFFFFFFFFC
FFFFFFFFFFFFFFFFFFFFFFFC
FFFFFFFFFFFFFFFFFFFFFFFC
FFFFFFFFFFFFFFFFFFFFFFFC
FFFFFFFFFFFFFFFFFFFFFFFC
FFFFFFFFFFFFFFFFFFFFFFFC
FFFFFFFFFFFFFFFFFFFFFFFC
FFFFFFFFFFFFFFFFFFFFFFFC
FFFFFFFFFFFFFFFFFFFFFFFC
FFFFFFFFFFFFFFFFFFFFFFFC
000000000000000000000000
000000000000000000000000
000000000000000000000000
000000000000000000000000
000000000000000000000000
000000000000000000000000
000000000000000000000000
000000000000000000000000
000000000000000000000000
000000000000000000000000
000000000000000000000000
000000000000000000000000
000000000000000000000000
000000000000000000000000
000000000000000000000000
000000000000000000000000
000000000000000000000000
000000000000000000000000
000000000000000000000000
000000000000000000000000
000000000000000000000000
000000000000000000000000
000000000000000000000000
000000000000000000000000
000000000000000000000000
000000000000000000000000
000000000000000000000000
000000000000000000000000
000000000000000000000000
000000000000000000000000
000000000000000000000000
FFFFFFFFFFFFFFFFFFFFFFFC
FFFFFFFFFFFFFFFFFFFFFFFC
FFFFFFFFFFFFFFFFFFFFFFFC
FFFFFFFFFFFFFFFFFFFFFFFC
FFFFFFFFFFFFFFFFFFFFFFFC
FFFFFFFFFFFFFFFFFFFFFFFC
FFFFFFFFFFFFFFFFFFFFFFFC
FFFFFFFFFFFFFFFFFFFFFFFC
FFFFFFFFFFFFFFFFFFFFFFFC
FFFFFFFFFFFFFFFFFFFFFFFC
FFFFFFFFFFFFFFFFFFFFFFFC
FFFFFFFFFFFFFFFFFFFFFFFC
FFFFFFFFFFFFFFFFFFFFFFFC
FFFFFFFFFFFFFFFFFFFFFFFC
ENDCHAR
STARTCHAR greater
ENCODING 62
SWIDTH 690 0
DWIDTH 115 0
BBX 94 89 10 17
BITMAP
E00000000000000000000000
F80000000000000000000000
FE0000000000000000000000
FFC000000000000000000000
FFF000000000000000000000
FFFC00000000000000000000
FFFF80000000000000000000
FFFFE0000000000000000000
FFFFFC000000000000000000
FFFFFF000000000000000000
FFFFFFC00000000000000000
FFFFFFF80000000000000000
FFFFFFFE0000000000000000
FFFFFFFF8000000000000000
FFFFFFFFF000000000000000
3FFFFFFFFC00000000000000
07FFFFFFFF80000000000000
01FFFFFFFFE0000000000000
003FFFFFFFF8000000000000
000FFFFFFFFF000000000000
0001FFFFFFFFC00000000000
00003FFFFFFFF80000000000
00000FFFFFFFFE0000000000
000001FFFFFFFF8000000000
0000007FFFFFFFF000000000
0000000FFFFFFFFC00000000
00000003FFFFFFFF00000000
000000007FFFFFFFE0000000
000000001FFFFFFFF8000000
0000000003FFFFFFFF000000
00000000007FFFFFFFC00000
00000000001FFFFFFFF00000
000000000003FFFFFFFE0000
000000000000FFFFFFFF8000
0000000000001FFFFFFFE000
00000000000007FFFFFFFC00
00000000000000FFFFFFFF00
000000000000003FFFFFFFC0
0000000000000007FFFFFFE0
0000000000000000FFFFFFF0
00000000000000003FFFFFF8
000000000000000007FFFFF8
000000000000000001FFFFFC
0000000000000000003FFFFC
0000000000000000000FFFFC
0000000000000000007FFFFC
000000000000000001FFFFFC
00000000000000000FFFFFFC
00000000000000003FFFFFF8
0000000000000001FFFFFFF0
0000000000000007FFFFFFE0
000000000000003FFFFFFFC0
00000000000000FFFFFFFF00
00000000000007FFFFFFF800
0000000000001FFFFFFFE000
000000000000FFFFFFFF8000
000000000003FFFFFFFC0000
00000000001FFFFFFFF00000
00000000007FFFFFFFC00000
0000000003FFFFFFFE000000
000000000FFFFFFFF8000000
000000007FFFFFFFE0000000
00000003FFFFFFFF00000000
0000000FFFFFFFFC00000000
0000007FFFFFFFE000000000
000001FFFFFFFF8000000000
00000FFFFFFFFE0000000000
00003FFFFFFFF00000000000
0001FFFFFFFFC00000000000
0007FFFFFFFF000000000000
003FFFFFFFF8000000000000
00FFFFFFFFE0000000000000
07FFFFFFFF00000000000000
1FFFFFFFFC00000000000000
FFFFFFFFF000000000000000
FFFFFFFF8000000000000000
FFFFFFFE0000000000000000
FFFFFFF80000000000000000
FFFFFFC00000000000000000
FFFFFF000000000000000000
FFFFFC000000000000000000
FFFFE0000000000000000000
FFFF80000000000000000000
FFFC00000000000000000000
FFF000000000000000000000
FFC000000000000000000000
FE0000000000000000000000
F80000000000000000000000
E00000000000000000000000
ENDCHAR
STARTCHAR question
ENCODING 63
SWIDTH 776 0
DWIDTH 129 0
BBX 117 121 7 0
BITMAP
FFFFFFFFFFFFFFFFFFFFFE00000000
FFFFFFFFFFFFFFFFFFFFFFF8000000
FFFFFFFFFFFFFFFFFFFFFFFF000000
FFFFFFFFFFFFFFFFFFFFFFFFC00000
FFFFFFFFFFFFFFFFFFFFFFFFF00000
FFFFFFFFFFFFFFFFFFFFFFFFFC0000
FFFFFFFFFFFFFFFFFFFFFFFFFF0000
FFFFFFFFFFFFFFFFFFFFFFFFFF8000
FFFFFFFFFFFFFFFFFFFFFFFFFFC000
FFFFFFFFFFFFFFFFFFFFFFFFFFE000
FFFFFFFFFFFFFFFFFFFFFFFFFFF000
FFFFFFFFFFFFFFFFFFFFFFFFFFF800
FFFFFFFFFFFFFFFFFFFFFFFFFFFC00
FFFFFFFFFFFFFFFFFFFFFFFFFFFE00
FFFFFFFFFFFFFFFFFFFFFFFFFFFF00
FFFFFFFFFFFFFFFFFFFFFFFFFFFF00
FFFFFFFFFFFFFFFFFFFFFFFFFFFF80
FFFFFFFFFFFFFFFFFFFFFFFFFFFF80
FFFFFFFFFFFFFFFFFFFFFFFFFFFFC0
FFFFFFFFFFFFFFFFFFFFFFFFFFFFC0
FFFFFFFFFFFFFFFFFFFFFFFFFFFFE0
000000000000000000000FFFFFFFE0
0000000000000000000001FFFFFFE0
00000000000000000000007FFFFFF0
00000000000000000000001FFFFFF0
00000000000000000000000FFFFFF0
000000000000000000000007FFFFF0
000000000000000000000007FFFFF0
000000000000000000000003FFFFF8
000000000000000000000003FFFFF8
000000000000000000000001FFFFF8
000000000000000000000001FFFFF8
000000000000000000000001FFFFF8
000000000000000000000001FFFFF8
000000000000000000000001FFFFF8
000000000000000000000001FFFFF8
000000000000000000000001FFFFF8
000000000000000000000001FFFFF8
000000000000000000000001FFFFF0
000000000000000000000001FFFFF0
000000000000000000000003FFFFF0
000000000000000000000003FFFFF0
000000000000000000000007FFFFF0
000000000000000000000007FFFFE0
00000000000000000000000FFFFFE0
00000000000000000000001FFFFFE0
00000000000000000000003FFFFFC0
0000000000000000000000FFFFFFC0
0000000000000000000007FFFFFFC0
00000000FFFFFFFFFFFFFFFFFFFF80
0000000FFFFFFFFFFFFFFFFFFFFF80
0000007FFFFFFFFFFFFFFFFFFFFF00
000001FFFFFFFFFFFFFFFFFFFFFE00
000007FFFFFFFFFFFFFFFFFFFFFE00
00000FFFFFFFFFFFFFFFFFFFFFFC00
00003FFFFFFFFFFFFFFFFFFFFFF800
00007FFFFFFFFFFFFFFFFFFFFFF000
00007FFFFFFFFFFFFFFFFFFFFFE000
0000FFFFFFFFFFFFFFFFFFFFFFC000
0001FFFFFFFFFFFFFFFFFFFFFF8000
0001FFFFFFFFFFFFFFFFFFFFFE0000
0003FFFFFFFFFFFFFFFFFFFFFC0000
0003FFFFFFFFFFFFFFFFFFFFF00000
0007FFFFFFFFFFFFFFFFFFFFC00000
0007FFFFFFFFFFFFFFFFFFFF000000
0007FFFFFFFFFFFFFFFFFFF0000000
000FFFFFFFFFFFFFFFFFFE00000000
000FFFFFF000000000000000000000
000FFFFFC000000000000000000000
000FFFFF8000000000000000000000
000FFFFF0000000000000000000000
000FFFFF0000000000000000000000
000FFFFF0000000000000000000000
000FFFFF0000000000000000000000
000FFFFF0000000000000000000000
000FFFFF0000000000000000000000
000FFFFF0000000000000000000000
000FFFFF0000000000000000000000
000FFFFF0000000000000000000000
000FFFFF0000000000000000000000
000FFFFF0000000000000000000000
000000000000000000000000000000
000000000000000000000000000000
000000000000000000000000000000
000000000000000000000000000000
000000000000000000000000000000
000000000000000000000000000000
000000000000000000000000000000
000000000000000000000000000000
000000000000000000000000000000
000000000000000000000000000000
000000000000000000000000000000
000000000000000000000000000000
000000000000000000000000000000
000000000000000000000000000000
000000000000000000000000000000
000000000000000000000000000000
000000000000000000000000000000
00003FC00000000000000000000000
0000FFF00000000000000000000000
0001FFF80000000000000000000000
0003FFFC0000000000000000000000
0007FFFE0000000000000000000000
000FFFFF0000000000000000000000
000FFFFF0000000000000000000000
001FFFFF8000000000000000000000
001FFFFF8000000000000000000000
001FFFFF8000000000000000000000
001FFFFF8000000000000000000000
001FFFFF8000000000000000000000
001FFFFF8000000000000000000000
001FFFFF8000000000000000000000
001FFFFF8000000000000000000000
001FFFFF8000000000000000000000
000FFFFF0000000000000000000000
000FFFFF0000000000000000000000
0007FFFE0000000000000000000000
0003FFFC0000000000000000000000
0001FFF80000000000000000000000
0000FFF00000000000000000000000
00003F800000000000000000000000
ENDCHAR
STARTCHAR at
ENCODING 64
SWIDTH 833 0
DWIDTH 138 0
BBX 121 121 7 0
BITMAP
00000000000007FFFFFFFFFFFFFFFF80
000000000001FFFFFFFFFFFFFFFFFF80
00000000001FFFFFFFFFFFFFFFFFFF80
0000000000FFFFFFFFFFFFFFFFFFFF80
0000000007FFFFFFFFFFFFFFFFFFFF80
000000001FFFFFFFFFFFFFFFFFFFFF80
000000007FFFFFFFFFFFFFFFFFFFFF80
00000001FFFFFFFFFFFFFFFFFFFFFF80
00000007FFFFFFFFFFFFFFFFFFFFFF80
0000001FFFFFFFFFFFFFFFFFFFFFFF80
0000003FFFFFFFFFFFFFFFFFFFFFFF80
000000FFFFFFFFFFFFFFFFFFFFFFFF80
000001FFFFFFFFFFFFFFFFFFFFFFFF80
000003FFFFFFFFFFFFFFFFFFFFFFFF80
000007FFFFFFFFFFFFFFFFFFFFFFFF80
00000FFFFFFFF80000000000007FFF80
00001FFFFFFF000000000000007FFF80
00003FFFFFF0000000000000007FFF80
00007FFFFFC0000000000000007FFF80
0000FFFFFE00000000000000007FFF80
0001FFFFFC00000000000000007FFF80
0003FFFFF000000000000000007FFF80
0007FFFFC000000000000000007FFF80
000FFFFF8000000000000000007FFF80
000FFFFE0000000000000000007FFF80
001FFFFC0000000000000000007FFF80
003FFFF80000000000000000007FFF80
003FFFF00000000000000000007FFF80
007FFFE00000000000000000007FFF80
00FFFFC00000000000000000007FFF80
00FFFF800000000000000000007FFF80
01FFFF000000000000000000007FFF80
01FFFF000000000000000000007FFF80
03FFFE00000007FFFFFFFFE0007FFF80
03FFFC0000003FFFFFFFFFE0007FFF80
07FFFC000001FFFFFFFFFFE0007FFF80
07FFF8000003FFFFFFFFFFE0007FFF80
07FFF800000FFFFFFFFFFFE0007FFF80
0FFFF000001FFFFFFFFFFFE0007FFF80
0FFFF000003FFFFFFFFFFFE0007FFF80
1FFFE000007FFFFFFFFFFFE0007FFF80
1FFFE00000FFFFFFFFFFFFE0007FFF80
1FFFE00000FFFFFFFFFFFFE0007FFF80
3FFFC00001FFFFFFFFFFFFE0007FFF80
3FFFC00003FFFFFFFFFFFFE0007FFF80
3FFFC00003FFFFC00007FFE0007FFF80
3FFF800007FFFE000007FFE0007FFF80
7FFF800007FFFC000007FFE0007FFF80
7FFF80000FFFF0000007FFE0007FFF80
7FFF80000FFFF0000007FFE0007FFF80
7FFF80000FFFE0000007FFE0007FFF80
7FFF00001FFFC0000007FFE0007FFF80
7FFF00001FFFC0000007FFE0007FFF80
FFFF00001FFF80000007FFE0007FFF80
FFFF00001FFF80000007FFE0007FFF80
FFFF00001FFF80000007FFE0007FFF80
FFFF00003FFF80000007FFE0007FFF80
FFFF00003FFF80000007FFE0007FFF80
FFFF00003FFF00000007FFE0007FFF80
FFFF00003FFF00000007FFE0007FFF80
FFFF00003FFF00000007FFE0007FFF80
FFFF00003FFF00000007FFE0007FFF80
FFFF00003FFF80000007FFE0007FFF80
FFFF00003FFF80000007FFE0007FFF80
FFFF00001FFF80000007FFE0007FFF80
FFFF00001FFF80000007FFE0007FFF80
FFFF00001FFFC0000007FFE0007FFF80
FFFF00001FFFC0000007FFE0007FFF80
FFFF00001FFFE0000007FFE0007FFF80
FFFF00000FFFE0000007FFE0007FFF80
FFFF80000FFFF0000007FFE0007FFF80
7FFF80000FFFF8000007FFE0007FFF80
7FFF800007FFFC000007FFE0007FFF80
7FFF800007FFFF000007FFE0007FFF80
7FFF800007FFFFC00007FFE0007FFF80
7FFFC00003FFFFFFFFFFFFFFFFFFFF80
7FFFC00003FFFFFFFFFFFFFFFFFFFF80
3FFFC00001FFFFFFFFFFFFFFFFFFFF80
3FFFE00000FFFFFFFFFFFFFFFFFFFF80
3FFFE000007FFFFFFFFFFFFFFFFFFF80
1FFFE000007FFFFFFFFFFFFFFFFFFF80
1FFFF000003FFFFFFFFFFFFFFFFFFF80
1FFFF000001FFFFFFFFFFFFFFFFFFF80
0FFFF8000007FFFFFFFFFFFFFFFFFF80
0FFFF8000003FFFFFFFFFFFFFFFFFF80
0FFFFC000000FFFFFFFFFFFFFFFFFF80
07FFFE0000003FFFFFFFFFFFFFFFFF80
07FFFE00000007FFFFFFFFFFFFFFFF80
03FFFF00000000000000000000000000
03FFFF80000000000000000000000000
01FFFF80000000000000000000000000
01FFFFC0000000000000000000000000
00FFFFE0000000000000000000000000
00FFFFF0000000000000000000000000
007FFFF8000000000000000000000000
007FFFFC000000000000000000000000
003FFFFE000000000000000000000000
001FFFFF800000000000000000000000
000FFFFFC00000000000000000000000
000FFFFFF00000000000000000000000
0007FFFFF80000000000000000000000
0003FFFFFE0000000000000000000000
0001FFFFFFC000000000000000000000
0000FFFFFFF000000000000000000000
00007FFFFFFF00000000000000000000
00003FFFFFFFF8000000000000000000
00001FFFFFFFFFFFFFFFFFFFFFFFFF80
00000FFFFFFFFFFFFFFFFFFFFFFFFF80
000007FFFFFFFFFFFFFFFFFFFFFFFF80
000001FFFFFFFFFFFFFFFFFFFFFFFF80
000000FFFFFFFFFFFFFFFFFFFFFFFF80
0000003FFFFFFFFFFFFFFFFFFFFFFF80
0000001FFFFFFFFFFFFFFFFFFFFFFF80
00000007FFFFFFFFFFFFFFFFFFFFFF80
00000001FFFFFFFFFFFFFFFFFFFFFF80
000000007FFFFFFFFFFFFFFFFFFFFF80
000000000FFFFFFFFFFFFFFFFFFFFF80
0000000003FFFFFFFFFFFFFFFFFFFF80
00000000003FFFFFFFFFFFFFFFFFFF80
000000000003FFFFFFFFFFFFFFFFFF80
0000000000000FFFFFFFFFFFFFFFFF80
ENDCHAR
STARTCHAR A
ENCODING 65
SWIDTH 989 0
DWIDTH 164 0
BBX 160 123 2 0
BITMAP
0000000000000000000100000000000000000000
0000000000000000001FF8000000000000000000
0000000000000000003FFC000000000000000000
0000000000000000007FFE000000000000000000
000000000000000000FFFF000000000000000000
000000000000000001FFFF800000000000000000
000000000000000003FFFFC00000000000000000
000000000000000003FFFFC00000000000000000
000000000000000007FFFFE00000000000000000
00000000000000000FFFFFE00000000000000000
00000000000000000FFFFFF00000000000000000
00000000000000001FFFFFF80000000000000000
00000000000000001FFFFFF80000000000000000
00000000000000003FFFFFFC0000000000000000
00000000000000007FFFFFFC0000000000000000
00000000000000007FFFFFFE0000000000000000
0000000000000000FFFFFFFF0000000000000000
0000000000000000FFFFFFFF0000000000000000
0000000000000001FFFFFFFF8000000000000000
0000000000000003FFFFFFFF8000000000000000
0000000000000003FFFFFFFFC000000000000000
0000000000000007FFFFFFFFE000000000000000
0000000000000007FFFFFFFFE000000000000000
000000000000000FFFFFFFFFF000000000000000
000000000000001FFFFFFFFFF000000000000000
000000000000001FFFFFFFFFF800000000000000
000000000000003FFFFFFFFFFC00000000000000
000000000000003FFFFFFFFFFC00000000000000
000000000000007FFFFFFFFFFE00000000000000
00000000000000FFFFFFFFFFFE00000000000000
00000000000000FFFFFFFFFFFF00000000000000
00000000000001FFFFFEFFFFFF80000000000000
00000000000001FFFFFCFFFFFF80000000000000
00000000000003FFFFF87FFFFFC0000000000000
00000000000007FFFFF83FFFFFC0000000000000
00000000000007FFFFF03FFFFFE0000000000000
0000000000000FFFFFF01FFFFFF0000000000000
0000000000000FFFFFE01FFFFFF0000000000000
0000000000001FFFFFC00FFFFFF8000000000000
0000000000003FFFFFC007FFFFF8000000000000
0000000000003FFFFF8007FFFFFC000000000000
0000000000007FFFFF8003FFFFFE000000000000
0000000000007FFFFF0003FFFFFE000000000000
000000000000FFFFFE0001FFFFFF000000000000
000000000001FFFFFE0000FFFFFF000000000000
000000000001FFFFFC0000FFFFFF800000000000
000000000003FFFFFC00007FFFFFC00000000000
000000000003FFFFF800007FFFFFC00000000000
000000000007FFFFF000003FFFFFE00000000000
00000000000FFFFFF000001FFFFFF00000000000
00000000000FFFFFE000001FFFFFF00000000000
00000000001FFFFFE000000FFFFFF80000000000
00000000001FFFFFC000000FFFFFF80000000000
00000000003FFFFFC0000007FFFFFC0000000000
00000000007FFFFF80000003FFFFFE0000000000
00000000007FFFFF00000003FFFFFE0000000000
0000000000FFFFFF00000001FFFFFF0000000000
0000000000FFFFFE00000001FFFFFF0000000000
0000000001FFFFFE00000000FFFFFF8000000000
0000000003FFFFFC000000007FFFFFC000000000
0000000003FFFFF8000000007FFFFFC000000000
0000000007FFFFF8000000003FFFFFE000000000
0000000007FFFFF0000000001FFFFFE000000000
000000000FFFFFF0000000001FFFFFF000000000
000000001FFFFFE0000000000FFFFFF800000000
000000001FFFFFC0000000000FFFFFF800000000
000000003FFFFFC00000000007FFFFFC00000000
000000003FFFFF800000000003FFFFFC00000000
000000007FFFFF800000000003FFFFFE00000000
00000000FFFFFF000000000001FFFFFF00000000
00000000FFFFFE000000000001FFFFFF00000000
00000001FFFFFE000000000000FFFFFF80000000
00000001FFFFFC0000000000007FFFFF80000000
00000003FFFFFC0000000000007FFFFFC0000000
00000007FFFFF80000000000003FFFFFE0000000
00000007FFFFF80007FFFFFFFFFFFFFFE0000000
0000000FFFFFF0000FFFFFFFFFFFFFFFF0000000
0000000FFFFFE0000FFFFFFFFFFFFFFFF0000000
0000001FFFFFE0001FFFFFFFFFFFFFFFF8000000
0000003FFFFFC0003FFFFFFFFFFFFFFFFC000000
0000003FFFFFC0003FFFFFFFFFFFFFFFFC000000
0000007FFFFF80007FFFFFFFFFFFFFFFFE000000
0000007FFFFF00007FFFFFFFFFFFFFFFFE000000
000000FFFFFF0000FFFFFFFFFFFFFFFFFF000000
000001FFFFFE0001FFFFFFFFFFFFFFFFFF800000
000001FFFFFE0001FFFFFFFFFFFFFFFFFF800000
000003FFFFFC0003FFFFFFFFFFFFFFFFFFC00000
000003FFFFF80003FFFFFFFFFFFFFFFFFFC00000
000007FFFFF80007FFFFFFFFFFFFFFFFFFE00000
00000FFFFFF00007FFFFFFFFFFFFFFFFFFF00000
00000FFFFFF0000FFFFFFFFFFFFFFFFFFFF00000
00001FFFFFE0001FFFFFFFFFFFFFFFFFFFF80000
00001FFFFFC000000000000000000FFFFFF80000
00003FFFFFC0000000000000000007FFFFFC0000
00007FFFFF80000000000000000003FFFFFE0000
00007FFFFF80000000000000000003FFFFFE0000
0000FFFFFF00000000000000000001FFFFFF0000
0000FFFFFE00000000000000000001FFFFFF0000
0001FFFFFE00000000000000000000FFFFFF8000
0003FFFFFC000000000000000000007FFFFFC000
0003FFFFFC000000000000000000007FFFFFC000
0007FFFFF8000000000000000000003FFFFFE000
0007FFFFF8000000000000000000003FFFFFE000
000FFFFFF0000000000000000000001FFFFFF000
001FFFFFE0000000000000000000001FFFFFF800
001FFFFFE0000000000000000000000FFFFFF800
003FFFFFC00000000000000000000007FFFFFC00
003FFFFFC00000000000000000000007FFFFFC00
007FFFFF800000000000000000000003FFFFFE00
00FFFFFF000000000000000000000003FFFFFF00
00FFFFFF000000000000000000000001FFFFFF00
01FFFFFE000000000000000000000000FFFFFF80
01FFFFFE000000000000000000000000FFFFFF80
03FFFFFC0000000000000000000000007FFFFFC0
07FFFFF80000000000000000000000007FFFFFE0
07FFFFF80000000000000000000000003FFFFFE0
0FFFFFF00000000000000000000000003FFFFFF0
0FFFFFF00000000000000000000000001FFFFFF0
1FFFFFE00000000000000000000000000FFFFFF8
3FFFFFC00000000000000000000000000FFFFFFC
3FFFFFC000000000000000000000000007FFFFFC
7FFFFF8000000000000000000000000007FFFFFE
FFFFFF8000000000000000000000000003FFFFFF
ENDCHAR
STARTCHAR B
ENCODING 66
SWIDTH 891 0
DWIDTH 148 0
BBX 130 121 10 0
BITMAP
FFFFFFFFFFFFFFFFFFFFFFFF8000000000
FFFFFFFFFFFFFFFFFFFFFFFFFE00000000
FFFFFFFFFFFFFFFFFFFFFFFFFFC0000000
FFFFFFFFFFFFFFFFFFFFFFFFFFF8000000
FFFFFFFFFFFFFFFFFFFFFFFFFFFE000000
FFFFFFFFFFFFFFFFFFFFFFFFFFFF800000
FFFFFFFFFFFFFFFFFFFFFFFFFFFFE00000
FFFFFFFFFFFFFFFFFFFFFFFFFFFFF00000
FFFFFFFFFFFFFFFFFFFFFFFFFFFFFC0000
FFFFFFFFFFFFFFFFFFFFFFFFFFFFFE0000
FFFFFFFFFFFFFFFFFFFFFFFFFFFFFF0000
FFFFFFFFFFFFFFFFFFFFFFFFFFFFFF8000
FFFFFFFFFFFFFFFFFFFFFFFFFFFFFFC000
FFFFFFFFFFFFFFFFFFFFFFFFFFFFFFC000
FFFFFFFFFFFFFFFFFFFFFFFFFFFFFFE000
FFFFFFFFFFFFFFFFFFFFFFFFFFFFFFF000
FFFFFFFFFFFFFFFFFFFFFFFFFFFFFFF000
FFFFFFFFFFFFFFFFFFFFFFFFFFFFFFF800
FFFFFFFFFFFFFFFFFFFFFFFFFFFFFFF800
FFFFFFFFFFFFFFFFFFFFFFFFFFFFFFFC00
FFFFFFFFFFFFFFFFFFFFFFFFFFFFFFFC00
FFFFF800000000000000007FFFFFFFFC00
FFFFF8000000000000000000FFFFFFFE00
FFFFF80000000000000000001FFFFFFE00
FFFFF800000000000000000007FFFFFE00
FFFFF800000000000000000003FFFFFE00
FFFFF800000000000000000001FFFFFE00
FFFFF800000000000000000000FFFFFF00
FFFFF8000000000000000000007FFFFF00
FFFFF8000000000000000000007FFFFF00
FFFFF8000000000000000000003FFFFF00
FFFFF8000000000000000000003FFFFF00
FFFFF8000000000000000000003FFFFF00
FFFFF8000000000000000000003FFFFF00
FFFFF8000000000000000000003FFFFF00
FFFFF8000000000000000000003FFFFF00
FFFFF8000000000000000000003FFFFF00
FFFFF8000000000000000000003FFFFE00
FFFFF8000000000000000000003FFFFE00
FFFFF8000000000000000000003FFFFE00
FFFFF8000000000000000000003FFFFE00
FFFFF8000000000000000000003FFFFE00
FFFFF8000000000000000000007FFFFC00
FFFFF8000000000000000000007FFFFC00
FFFFF8000000000000000000007FFFFC00
FFFFF800000000000000000000FFFFF800
FFFFF800000000000000000001FFFFF800
FFFFF800000000000000000003FFFFF000
FFFFF800000000000000000007FFFFE000
FFFFF80000000000000000001FFFFFE000
FFFFF8000000000000000001FFFFFFC000
FFFFF80007FFFFFFFFFFFFFFFFFFFF8000
FFFFF80007FFFFFFFFFFFFFFFFFFFF0000
FFFFF80007FFFFFFFFFFFFFFFFFFFE0000
FFFFF80007FFFFFFFFFFFFFFFFFFF80000
FFFFF80007FFFFFFFFFFFFFFFFFFF00000
FFFFF80007FFFFFFFFFFFFFFFFFFC00000
FFFFF80007FFFFFFFFFFFFFFFFFF000000
FFFFF80007FFFFFFFFFFFFFFFFFF800000
FFFFF80007FFFFFFFFFFFFFFFFFFE00000
FFFFF80007FFFFFFFFFFFFFFFFFFF80000
FFFFF80007FFFFFFFFFFFFFFFFFFFE0000
FFFFF80007FFFFFFFFFFFFFFFFFFFF0000
FFFFF80007FFFFFFFFFFFFFFFFFFFF8000
FFFFF80007FFFFFFFFFFFFFFFFFFFFC000
FFFFF80007FFFFFFFFFFFFFFFFFFFFE000
FFFFF80007FFFFFFFFFFFFFFFFFFFFF000
FFFFF80007FFFFFFFFFFFFFFFFFFFFF800
FFFFF80007FFFFFFFFFFFFFFFFFFFFFC00
FFFFF8000000000000000000FFFFFFFC00
FFFFF80000000000000000000FFFFFFE00
FFFFF800000000000000000003FFFFFE00
FFFFF800000000000000000001FFFFFF00
FFFFF800000000000000000000FFFFFF00
FFFFF8000000000000000000007FFFFF00
FFFFF8000000000000000000003FFFFF80
FFFFF8000000000000000000001FFFFF80
FFFFF8000000000000000000001FFFFF80
FFFFF8000000000000000000000FFFFF80
FFFFF8000000000000000000000FFFFFC0
FFFFF8000000000000000000000FFFFFC0
FFFFF8000000000000000000000FFFFFC0
FFFFF8000000000000000000000FFFFFC0
FFFFF80000000000000000000007FFFFC0
FFFFF80000000000000000000007FFFFC0
FFFFF8000000000000000000000FFFFFC0
FFFFF8000000000000000000000FFFFFC0
FFFFF8000000000000000000000FFFFFC0
FFFFF8000000000000000000000FFFFFC0
FFFFF8000000000000000000000FFFFFC0
FFFFF8000000000000000000001FFFFFC0
FFFFF8000000000000000000001FFFFF80
FFFFF8000000000000000000003FFFFF80
FFFFF8000000000000000000007FFFFF80
FFFFF800000000000000000000FFFFFF80
FFFFF800000000000000000001FFFFFF80
FFFFF800000000000000000007FFFFFF00
FFFFF80000000000000000001FFFFFFF00
FFFFF8000000000000000000FFFFFFFF00
FFFFF800000000000000003FFFFFFFFE00
FFFFFFFFFFFFFFFFFFFFFFFFFFFFFFFE00
FFFFFFFFFFFFFFFFFFFFFFFFFFFFFFFC00
FFFFFFFFFFFFFFFFFFFFFFFFFFFFFFFC00
FFFFFFFFFFFFFFFFFFFFFFFFFFFFFFF800
FFFFFFFFFFFFFFFFFFFFFFFFFFFFFFF800
FFFFFFFFFFFFFFFFFFFFFFFFFFFFFFF000
FFFFFFFFFFFFFFFFFFFFFFFFFFFFFFE000
FFFFFFFFFFFFFFFFFFFFFFFFFFFFFFE000
FFFFFFFFFFFFFFFFFFFFFFFFFFFFFFC000
FFFFFFFFFFFFFFFFFFFFFFFFFFFFFF8000
FFFFFFFFFFFFFFFFFFFFFFFFFFFFFF0000
FFFFFFFFFFFFFFFFFFFFFFFFFFFFFE0000
FFFFFFFFFFFFFFFFFFFFFFFFFFFFFC0000
FFFFFFFFFFFFFFFFFFFFFFFFFFFFF80000
FFFFFFFFFFFFFFFFFFFFFFFFFFFFE00000
FFFFFFFFFFFFFFFFFFFFFFFFFFFF800000
FFFFFFFFFFFFFFFFFFFFFFFFFFFF000000
FFFFFFFFFFFFFFFFFFFFFFFFFFFC000000
FFFFFFFFFFFFFFFFFFFFFFFFFFE0000000
FFFFFFFFFFFFFFFFFFFFFFFFFF00000000
FFFFFFFFFFFFFFFFFFFFFFFFC000000000
ENDCHAR
STARTCHAR C
ENCODING 67
SWIDTH 829 0
DWIDTH 138 0
BBX 124 121 7 0
BITMAP
0000000000003FFFFFFFFFFFFFFFFFF0
00000000000FFFFFFFFFFFFFFFFFFFF0
0000000000FFFFFFFFFFFFFFFFFFFFF0
0000000007FFFFFFFFFFFFFFFFFFFFF0
000000001FFFFFFFFFFFFFFFFFFFFFF0
00000000FFFFFFFFFFFFFFFFFFFFFFF0
00000003FFFFFFFFFFFFFFFFFFFFFFF0
0000000FFFFFFFFFFFFFFFFFFFFFFFF0
0000001FFFFFFFFFFFFFFFFFFFFFFFF0
0000007FFFFFFFFFFFFFFFFFFFFFFFF0
000000FFFFFFFFFFFFFFFFFFFFFFFFF0
000003FFFFFFFFFFFFFFFFFFFFFFFFF0
000007FFFFFFFFFFFFFFFFFFFFFFFFF0
00000FFFFFFFFFFFFFFFFFFFFFFFFFF0
00003FFFFFFFFFFFFFFFFFFFFFFFFFF0
00007FFFFFFFFFFFFFFFFFFFFFFFFFF0
0000FFFFFFFFFFFFFFFFFFFFFFFFFFF0
0001FFFFFFFFFFFFFFFFFFFFFFFFFFF0
0003FFFFFFFFFFFFFFFFFFFFFFFFFFF0
0003FFFFFFFFFFFFFFFFFFFFFFFFFFF0
0007FFFFFFFFFFFFFFFFFFFFFFFFFFF0
000FFFFFFFFFF8000000000000000000
001FFFFFFFFF00000000000000000000
003FFFFFFFF800000000000000000000
003FFFFFFFC000000000000000000000
007FFFFFFF0000000000000000000000
007FFFFFFE0000000000000000000000
00FFFFFFF80000000000000000000000
01FFFFFFF00000000000000000000000
01FFFFFFC00000000000000000000000
03FFFFFF800000000000000000000000
03FFFFFF000000000000000000000000
07FFFFFE000000000000000000000000
07FFFFFC000000000000000000000000
07FFFFFC000000000000000000000000
0FFFFFF8000000000000000000000000
0FFFFFF0000000000000000000000000
1FFFFFE0000000000000000000000000
1FFFFFE0000000000000000000000000
1FFFFFC0000000000000000000000000
3FFFFFC0000000000000000000000000
3FFFFF80000000000000000000000000
3FFFFF80000000000000000000000000
3FFFFF00000000000000000000000000
7FFFFF00000000000000000000000000
7FFFFE00000000000000000000000000
7FFFFE00000000000000000000000000
7FFFFE00000000000000000000000000
7FFFFE00000000000000000000000000
7FFFFC00000000000000000000000000
FFFFFC00000000000000000000000000
FFFFFC00000000000000000000000000
FFFFFC00000000000000000000000000
FFFFFC00000000000000000000000000
FFFFF800000000000000000000000000
FFFFF800000000000000000000000000
FFFFF800000000000000000000000000
FFFFF800000000000000000000000000
FFFFF800000000000000000000000000
FFFFF800000000000000000000000000
FFFFF800000000000000000000000000
FFFFF800000000000000000000000000
FFFFF800000000000000000000000000
FFFFF800000000000000000000000000
FFFFF800000000000000000000000000
FFFFF800000000000000000000000000
FFFFF800000000000000000000000000
FFFFFC00000000000000000000000000
7FFFFC00000000000000000000000000
7FFFFC00000000000000000000000000
7FFFFC00000000000000000000000000
7FFFFC00000000000000000000000000
7FFFFE00000000000000000000000000
7FFFFE00000000000000000000000000
3FFFFE00000000000000000000000000
3FFFFF00000000000000000000000000
3FFFFF00000000000000000000000000
3FFFFF00000000000000000000000000
1FFFFF80000000000000000000000000
1FFFFF80000000000000000000000000
1FFFFFC0000000000000000000000000
0FFFFFC0000000000000000000000000
0FFFFFE0000000000000000000000000
0FFFFFF0000000000000000000000000
07FFFFF0000000000000000000000000
07FFFFF8000000000000000000000000
07FFFFFC000000000000000000000000
03FFFFFE000000000000000000000000
03FFFFFF000000000000000000000000
01FFFFFF800000000000000000000000
01FFFFFFC00000000000000000000000
00FFFFFFE00000000000000000000000
007FFFFFF00000000000000000000000
007FFFFFF80000000000000000000000
003FFFFFFE0000000000000000000000
003FFFFFFF8000000000000000000000
001FFFFFFFE000000000000000000000
000FFFFFFFF800000000000000000000
0007FFFFFFFF00000000000000000000
0007FFFFFFFFF8000000000000000000
0003FFFFFFFFFFFFFFFFFFFFFFFFFFF0
0001FFFFFFFFFFFFFFFFFFFFFFFFFFF0
0000FFFFFFFFFFFFFFFFFFFFFFFFFFF0
00007FFFFFFFFFFFFFFFFFFFFFFFFFF0
00003FFFFFFFFFFFFFFFFFFFFFFFFFF0
00001FFFFFFFFFFFFFFFFFFFFFFFFFF0
00000FFFFFFFFFFFFFFFFFFFFFFFFFF0
000007FFFFFFFFFFFFFFFFFFFFFFFFF0
000003FFFFFFFFFFFFFFFFFFFFFFFFF0
000000FFFFFFFFFFFFFFFFFFFFFFFFF0
0000007FFFFFFFFFFFFFFFFFFFFFFFF0
0000003FFFFFFFFFFFFFFFFFFFFFFFF0
0000000FFFFFFFFFFFFFFFFFFFFFFFF0
00000003FFFFFFFFFFFFFFFFFFFFFFF0
00000000FFFFFFFFFFFFFFFFFFFFFFF0
000000003FFFFFFFFFFFFFFFFFFFFFF0
000000000FFFFFFFFFFFFFFFFFFFFFF0
0000000003FFFFFFFFFFFFFFFFFFFFF0
00000000007FFFFFFFFFFFFFFFFFFFF0
000000000007FFFFFFFFFFFFFFFFFFF0
0000000000001FFFFFFFFFFFFFFFFFF0
ENDCHAR
STARTCHAR D
ENCODING 68
SWIDTH 879 0
DWIDTH 146 0
BBX 129 121 10 0
BITMAP
FFFFFFFFFFFFFFFFFFFE00000000000000
FFFFFFFFFFFFFFFFFFFFF8000000000000
FFFFFFFFFFFFFFFFFFFFFF800000000000
FFFFFFFFFFFFFFFFFFFFFFF00000000000
FFFFFFFFFFFFFFFFFFFFFFFC0000000000
FFFFFFFFFFFFFFFFFFFFFFFF8000000000
FFFFFFFFFFFFFFFFFFFFFFFFE000000000
FFFFFFFFFFFFFFFFFFFFFFFFF800000000
FFFFFFFFFFFFFFFFFFFFFFFFFC00000000
FFFFFFFFFFFFFFFFFFFFFFFFFF00000000
FFFFFFFFFFFFFFFFFFFFFFFFFF80000000
FFFFFFFFFFFFFFFFFFFFFFFFFFE0000000
FFFFFFFFFFFFFFFFFFFFFFFFFFF0000000
FFFFFFFFFFFFFFFFFFFFFFFFFFF8000000
FFFFFFFFFFFFFFFFFFFFFFFFFFFC000000
FFFFFFFFFFFFFFFFFFFFFFFFFFFF000000
FFFFFFFFFFFFFFFFFFFFFFFFFFFF800000
FFFFFFFFFFFFFFFFFFFFFFFFFFFF800000
FFFFFFFFFFFFFFFFFFFFFFFFFFFFC00000
FFFFFFFFFFFFFFFFFFFFFFFFFFFFE00000
FFFFFFFFFFFFFFFFFFFFFFFFFFFFF00000
FFFFF80000000000000FFFFFFFFFF80000
FFFFF8000000000000007FFFFFFFFC0000
FFFFF8000000000000000FFFFFFFFC0000
FFFFF80000000000000003FFFFFFFE0000
FFFFF80000000000000000FFFFFFFF0000
FFFFF800000000000000003FFFFFFF0000
FFFFF800000000000000000FFFFFFF8000
FFFFF8000000000000000007FFFFFFC000
FFFFF8000000000000000003FFFFFFC000
FFFFF8000000000000000000FFFFFFE000
FFFFF80000000000000000007FFFFFE000
FFFFF80000000000000000003FFFFFF000
FFFFF80000000000000000001FFFFFF000
FFFFF80000000000000000001FFFFFF000
FFFFF80000000000000000000FFFFFF800
FFFFF800000000000000000007FFFFF800
FFFFF800000000000000000003FFFFFC00
FFFFF800000000000000000003FFFFFC00
FFFFF800000000000000000001FFFFFC00
FFFFF800000000000000000001FFFFFE00
FFFFF800000000000000000000FFFFFE00
FFFFF800000000000000000000FFFFFE00
FFFFF8000000000000000000007FFFFE00
FFFFF8000000000000000000007FFFFF00
FFFFF8000000000000000000003FFFFF00
FFFFF8000000000000000000003FFFFF00
FFFFF8000000000000000000003FFFFF00
FFFFF8000000000000000000003FFFFF00
FFFFF8000000000000000000001FFFFF00
FFFFF8000000000000000000001FFFFF80
FFFFF8000000000000000000001FFFFF80
FFFFF8000000000000000000001FFFFF80
FFFFF8000000000000000000000FFFFF80
FFFFF8000000000000000000000FFFFF80
FFFFF8000000000000000000000FFFFF80
FFFFF8000000000000000000000FFFFF80
FFFFF8000000000000000000000FFFFF80
FFFFF8000000000000000000000FFFFF80
FFFFF8000000000000000000000FFFFF80
FFFFF8000000000000000000000FFFFF80
FFFFF8000000000000000000000FFFFF80
FFFFF8000000000000000000000FFFFF80
FFFFF8000000000000000000000FFFFF80
FFFFF8000000000000000000000FFFFF80
FFFFF8000000000000000000000FFFFF80
FFFFF8000000000000000000000FFFFF80
FFFFF8000000000000000000001FFFFF80
FFFFF8000000000000000000001FFFFF80
FFFFF8000000000000000000001FFFFF00
FFFFF8000000000000000000001FFFFF00
FFFFF8000000000000000000001FFFFF00
FFFFF8000000000000000000003FFFFF00
FFFFF8000000000000000000003FFFFF00
FFFFF8000000000000000000003FFFFE00
FFFFF8000000000000000000007FFFFE00
FFFFF8000000000000000000007FFFFE00
FFFFF8000000000000000000007FFFFE00
FFFFF800000000000000000000FFFFFC00
FFFFF800000000000000000000FFFFFC00
FFFFF800000000000000000001FFFFFC00
FFFFF800000000000000000001FFFFFC00
FFFFF800000000000000000003FFFFF800
FFFFF800000000000000000007FFFFF800
FFFFF800000000000000000007FFFFF000
FFFFF80000000000000000000FFFFFF000
FFFFF80000000000000000001FFFFFF000
FFFFF80000000000000000003FFFFFE000
FFFFF80000000000000000007FFFFFE000
FFFFF8000000000000000000FFFFFFC000
FFFFF8000000000000000001FFFFFFC000
FFFFF8000000000000000003FFFFFF8000
FFFFF8000000000000000007FFFFFF0000
FFFFF800000000000000000FFFFFFF0000
FFFFF800000000000000003FFFFFFE0000
FFFFF80000000000000000FFFFFFFE0000
FFFFF80000000000000003FFFFFFFC0000
FFFFF8000000000000000FFFFFFFF80000
FFFFF8000000000000007FFFFFFFF80000
FFFFF80000000000000FFFFFFFFFF00000
FFFFFFFFFFFFFFFFFFFFFFFFFFFFE00000
FFFFFFFFFFFFFFFFFFFFFFFFFFFFC00000
FFFFFFFFFFFFFFFFFFFFFFFFFFFF800000
FFFFFFFFFFFFFFFFFFFFFFFFFFFF000000
FFFFFFFFFFFFFFFFFFFFFFFFFFFE000000
FFFFFFFFFFFFFFFFFFFFFFFFFFFC000000
FFFFFFFFFFFFFFFFFFFFFFFFFFF8000000
FFFFFFFFFFFFFFFFFFFFFFFFFFF0000000
FFFFFFFFFFFFFFFFFFFFFFFFFFE0000000
FFFFFFFFFFFFFFFFFFFFFFFFFFC0000000
FFFFFFFFFFFFFFFFFFFFFFFFFF00000000
FFFFFFFFFFFFFFFFFFFFFFFFFE00000000
FFFFFFFFFFFFFFFFFFFFFFFFF800000000
FFFFFFFFFFFFFFFFFFFFFFFFE000000000
FFFFFFFFFFFFFFFFFFFFFFFFC000000000
FFFFFFFFFFFFFFFFFFFFFFFF0000000000
FFFFFFFFFFFFFFFFFFFFFFF80000000000
FFFFFFFFFFFFFFFFFFFFFFE00000000000
FFFFFFFFFFFFFFFFFFFFFF000000000000
FFFFFFFFFFFFFFFFFFFFF0000000000000
FFFFFFFFFFFFFFFFFFFC00000000000000
ENDCHAR
STARTCHAR E
ENCODING 69
SWIDTH 759 0
DWIDTH 126 0
BBX 108 121 10 0
BITMAP
FFFFFFFFFFFFFFFFFFFFFFFFFFF0
FFFFFFFFFFFFFFFFFFFFFFFFFFF0
FFFFFFFFFFFFFFFFFFFFFFFFFFF0
FFFFFFFFFFFFFFFFFFFFFFFFFFF0
FFFFFFFFFFFFFFFFFFFFFFFFFFF0
FFFFFFFFFFFFFFFFFFFFFFFFFFF0
FFFFFFFFFFFFFFFFFFFFFFFFFFF0
FFFFFFFFFFFFFFFFFFFFFFFFFFF0
FFFFFFFFFFFFFFFFFFFFFFFFFFF0
FFFFFFFFFFFFFFFFFFFFFFFFFFF0
FFFFFFFFFFFFFFFFFFFFFFFFFFF0
FFFFFFFFFFFFFFFFFFFFFFFFFFF0
FFFFFFFFFFFFFFFFFFFFFFFFFFF0
FFFFFFFFFFFFFFFFFFFFFFFFFFF0
FFFFFFFFFFFFFFFFFFFFFFFFFFF0
FFFFFFFFFFFFFFFFFFFFFFFFFFF0
FFFFFFFFFFFFFFFFFFFFFFFFFFF0
FFFFFFFFFFFFFFFFFFFFFFFFFFF0
FFFFFFFFFFFFFFFFFFFFFFFFFFF0
FFFFFFFFFFFFFFFFFFFFFFFFFFF0
FFFFFFFFFFFFFFFFFFFFFFFFFFF0
FFFFF80000000000000000000000
FFFFF80000000000000000000000
FFFFF80000000000000000000000
FFFFF80000000000000000000000
FFFFF80000000000000000000000
FFFFF80000000000000000000000
FFFFF80000000000000000000000
FFFFF80000000000000000000000
FFFFF80000000000000000000000
FFFFF80000000000000000000000
FFFFF80000000000000000000000
FFFFF80000000000000000000000
FFFFF80000000000000000000000
FFFFF80000000000000000000000
FFFFF80000000000000000000000
FFFFF80000000000000000000000
FFFFF80000000000000000000000
FFFFF80000000000000000000000
FFFFF80000000000000000000000
FFFFF80000000000000000000000
FFFFF80000000000000000000000
FFFFF80000000000000000000000
FFFFF80000000000000000000000
FFFFF80000000000000000000000
FFFFF80000000000000000000000
FFFFF80000000000000000000000
FFFFF80000000000000000000000
FFFFF80000000000000000000000
FFFFF80000000000000000000000
FFFFF80000000000000000000000
FFFFF80007FFFFFFFFFFFFFFFF00
FFFFF80007FFFFFFFFFFFFFFFF00
FFFFF80007FFFFFFFFFFFFFFFF00
FFFFF80007FFFFFFFFFFFFFFFF00
FFFFF80007FFFFFFFFFFFFFFFF00
FFFFF80007FFFFFFFFFFFFFFFF00
FFFFF80007FFFFFFFFFFFFFFFF00
FFFFF80007FFFFFFFFFFFFFFFF00
FFFFF80007FFFFFFFFFFFFFFFF00
FFFFF80007FFFFFFFFFFFFFFFF00
FFFFF80007FFFFFFFFFFFFFFFF00
FFFFF80007FFFFFFFFFFFFFFFF00
FFFFF80007FFFFFFFFFFFFFFFF00
FFFFF80007FFFFFFFFFFFFFFFF00
FFFFF80007FFFFFFFFFFFFFFFF00
FFFFF80007FFFFFFFFFFFFFFFF00
FFFFF80007FFFFFFFFFFFFFFFF00
FFFFF80007FFFFFFFFFFFFFFFF00
FFFFF80000000000000000000000
FFFFF80000000000000000000000
FFFFF80000000000000000000000
FFFFF80000000000000000000000
FFFFF80000000000000000000000
FFFFF80000000000000000000000
FFFFF80000000000000000000000
FFFFF80000000000000000000000
FFFFF80000000000000000000000
FFFFF80000000000000000000000
FFFFF80000000000000000000000
FFFFF80000000000000000000000
FFFFF80000000000000000000000
FFFFF80000000000000000000000
FFFFF80000000000000000000000
FFFFF80000000000000000000000
FFFFF80000000000000000000000
FFFFF80000000000000000000000
FFFFF80000000000000000000000
FFFFF80000000000000000000000
FFFFF80000000000000000000000
FFFFF80000000000000000000000
FFFFF80000000000000000000000
FFFFF80000000000000000000000
FFFFF80000000000000000000000
FFFFF80000000000000000000000
FFFFF80000000000000000000000
FFFFF80000000000000000000000
FFFFF80000000000000000000000
FFFFF80000000000000000000000
FFFFF80000000000000000000000
FFFFFFFFFFFFFFFFFFFFFFFFFFF0
FFFFFFFFFFFFFFFFFFFFFFFFFFF0
FFFFFFFFFFFFFFFFFFFFFFFFFFF0
FFFFFFFFFFFFFFFFFFFFFFFFFFF0
FFFFFFFFFFFFFFFFFFFFFFFFFFF0
FFFFFFFFFFFFFFFFFFFFFFFFFFF0
FFFFFFFFFFFFFFFFFFFFFFFFFFF0
FFFFFFFFFFFFFFFFFFFFFFFFFFF0
FFFFFFFFFFFFFFFFFFFFFFFFFFF0
FFFFFFFFFFFFFFFFFFFFFFFFFFF0
FFFFFFFFFFFFFFFFFFFFFFFFFFF0
FFFFFFFFFFFFFFFFFFFFFFFFFFF0
FFFFFFFFFFFFFFFFFFFFFFFFFFF0
FFFFFFFFFFFFFFFFFFFFFFFFFFF0
FFFFFFFFFFFFFFFFFFFFFFFFFFF0
FFFFFFFFFFFFFFFFFFFFFFFFFFF0
FFFFFFFFFFFFFFFFFFFFFFFFFFF0
FFFFFFFFFFFFFFFFFFFFFFFFFFF0
FFFFFFFFFFFFFFFFFFFFFFFFFFF0
FFFFFFFFFFFFFFFFFFFFFFFFFFF0
FFFFFFFFFFFFFFFFFFFFFFFFFFF0
ENDCHAR
STARTCHAR F
ENCODING 70
SWIDTH 705 0
DWIDTH 117 0
BBX 103 121 10 0
BITMAP
FFFFFFFFFFFFFFFFFFFFFFFFFE
FFFFFFFFFFFFFFFFFFFFFFFFFE
FFFFFFFFFFFFFFFFFFFFFFFFFE
FFFFFFFFFFFFFFFFFFFFFFFFFE
FFFFFFFFFFFFFFFFFFFFFFFFFE
FFFFFFFFFFFFFFFFFFFFFFFFFE
FFFFFFFFFFFFFFFFFFFFFFFFFE
FFFFFFFFFFFFFFFFFFFFFFFFFE
FFFFFFFFFFFFFFFFFFFFFFFFFE
FFFFFFFFFFFFFFFFFFFFFFFFFE
FFFFFFFFFFFFFFFFFFFFFFFFFE
FFFFFFFFFFFFFFFFFFFFFFFFFE
FFFFFFFFFFFFFFFFFFFFFFFFFE
FFFFFFFFFFFFFFFFFFFFFFFFFE
FFFFFFFFFFFFFFFFFFFFFFFFFE
FFFFFFFFFFFFFFFFFFFFFFFFFE
FFFFFFFFFFFFFFFFFFFFFFFFFE
FFFFFFFFFFFFFFFFFFFFFFFFFE
FFFFFFFFFFFFFFFFFFFFFFFFFE
FFFFFFFFFFFFFFFFFFFFFFFFFE
FFFFFFFFFFFFFFFFFFFFFFFFFE
FFFFF800000000000000000000
FFFFF800000000000000000000
FFFFF800000000000000000000
FFFFF800000000000000000000
FFFFF800000000000000000000
FFFFF800000000000000000000
FFFFF800000000000000000000
FFFFF800000000000000000000
FFFFF800000000000000000000
FFFFF800000000000000000000
FFFFF800000000000000000000
FFFFF800000000000000000000
FFFFF800000000000000000000
FFFFF800000000000000000000
FFFFF800000000000000000000
FFFFF800000000000000000000
FFFFF800000000000000000000
FFFFF800000000000000000000
FFFFF800000000000000000000
FFFFF800000000000000000000
FFFFF800000000000000000000
FFFFF800000000000000000000
FFFFF800000000000000000000
FFFFF800000000000000000000
FFFFF800000000000000000000
FFFFF800000000000000000000
FFFFF800000000000000000000
FFFFF800000000000000000000
FFFFF800000000000000000000
FFFFF800000000000000000000
FFFFF800000000000000000000
FFFFF800000000000000000000
FFFFF80007FFFFFFFFFFFFFFC0
FFFFF80007FFFFFFFFFFFFFFC0
FFFFF80007FFFFFFFFFFFFFFC0
FFFFF80007FFFFFFFFFFFFFFC0
FFFFF80007FFFFFFFFFFFFFFC0
FFFFF80007FFFFFFFFFFFFFFC0
FFFFF80007FFFFFFFFFFFFFFC0
FFFFF80007FFFFFFFFFFFFFFC0
FFFFF80007FFFFFFFFFFFFFFC0
FFFFF80007FFFFFFFFFFFFFFC0
FFFFF80007FFFFFFFFFFFFFFC0
FFFFF80007FFFFFFFFFFFFFFC0
FFFFF80007FFFFFFFFFFFFFFC0
FFFFF80007FFFFFFFFFFFFFFC0
FFFFF80007FFFFFFFFFFFFFFC0
FFFFF80007FFFFFFFFFFFFFFC0
FFFFF80007FFFFFFFFFFFFFFC0
FFFFF80007FFFFFFFFFFFFFFC0
FFFFF800000000000000000000
FFFFF800000000000000000000
FFFFF800000000000000000000
FFFFF800000000000000000000
FFFFF800000000000000000000
FFFFF800000000000000000000
FFFFF800000000000000000000
FFFFF800000000000000000000
FFFFF800000000000000000000
FFFFF800000000000000000000
FFFFF800000000000000000000
FFFFF800000000000000000000
FFFFF800000000000000000000
FFFFF800000000000000000000
FFFFF800000000000000000000
FFFFF800000000000000000000
FFFFF800000000000000000000
FFFFF800000000000000000000
FFFFF800000000000000000000
FFFFF800000000000000000000
FFFFF800000000000000000000
FFFFF800000000000000000000
FFFFF800000000000000000000
FFFFF800000000000000000000
FFFFF800000000000000000000
FFFFF800000000000000000000
FFFFF800000000000000000000
FFFFF800000000000000000000
FFFFF800000000000000000000
FFFFF800000000000000000000
FFFFF800000000000000000000
FFFFF800000000000000000000
FFFFF800000000000000000000
FFFFF800000000000000000000
FFFFF800000000000000000000
FFFFF800000000000000000000
FFFFF800000000000000000000
FFFFF800000000000000000000
FFFFF800000000000000000000
FFFFF800000000000000000000
FFFFF800000000000000000000
FFFFF800000000000000000000
FFFFF800000000000000000000
FFFFF800000000000000000000
FFFFF800000000000000000000
FFFFF800000000000000000000
FFFFF800000000000000000000
FFFFF800000000000000000000
FFFFF800000000000000000000
FFFFF800000000000000000000
ENDCHAR
STARTCHAR G
ENCODING 71
SWIDTH 888 0
DWIDTH 147 0
BBX 131 121 7 0
BITMAP
0000000000003FFFFFFFFFFFFFFFFFF000
00000000000FFFFFFFFFFFFFFFFFFFF000
0000000000FFFFFFFFFFFFFFFFFFFFF000
0000000007FFFFFFFFFFFFFFFFFFFFF000
000000001FFFFFFFFFFFFFFFFFFFFFF000
00000000FFFFFFFFFFFFFFFFFFFFFFF000
00000003FFFFFFFFFFFFFFFFFFFFFFF000
0000000FFFFFFFFFFFFFFFFFFFFFFFF000
0000001FFFFFFFFFFFFFFFFFFFFFFFF000
0000007FFFFFFFFFFFFFFFFFFFFFFFF000
000000FFFFFFFFFFFFFFFFFFFFFFFFF000
000003FFFFFFFFFFFFFFFFFFFFFFFFF000
000007FFFFFFFFFFFFFFFFFFFFFFFFF000
00000FFFFFFFFFFFFFFFFFFFFFFFFFF000
00003FFFFFFFFFFFFFFFFFFFFFFFFFF000
00007FFFFFFFFFFFFFFFFFFFFFFFFFF000
0000FFFFFFFFFFFFFFFFFFFFFFFFFFF000
0001FFFFFFFFFFFFFFFFFFFFFFFFFFF000
0003FFFFFFFFFFFFFFFFFFFFFFFFFFF000
0003FFFFFFFFFFFFFFFFFFFFFFFFFFF000
0007FFFFFFFFFFFFFFFFFFFFFFFFFFF000
000FFFFFFFFFF800000000000000000000
001FFFFFFFFF0000000000000000000000
003FFFFFFFF80000000000000000000000
003FFFFFFFC00000000000000000000000
007FFFFFFF000000000000000000000000
007FFFFFFE000000000000000000000000
00FFFFFFF8000000000000000000000000
01FFFFFFF0000000000000000000000000
01FFFFFFC0000000000000000000000000
03FFFFFF80000000000000000000000000
03FFFFFF00000000000000000000000000
07FFFFFE00000000000000000000000000
07FFFFFC00000000000000000000000000
07FFFFFC00000000000000000000000000
0FFFFFF800000000000000000000000000
0FFFFFF000000000000000000000000000
1FFFFFE000000000000000000000000000
1FFFFFE000000000000000000000000000
1FFFFFC000000000000000000000000000
3FFFFFC000000000000000000000000000
3FFFFF8000000000000000000000000000
3FFFFF8000000000000000000000000000
3FFFFF0000000000000000000000000000
7FFFFF0000000000000000000000000000
7FFFFE0000000000000000000000000000
7FFFFE0000000000000000000000000000
7FFFFE0000000000000000000000000000
7FFFFE0000000000000000000000000000
7FFFFC0000000000000000000000000000
FFFFFC0000000000000000000000000000
FFFFFC00000000FFFFFFFFFFFFFFFFFFE0
FFFFFC00000000FFFFFFFFFFFFFFFFFFE0
FFFFFC00000000FFFFFFFFFFFFFFFFFFE0
FFFFF800000000FFFFFFFFFFFFFFFFFFE0
FFFFF800000000FFFFFFFFFFFFFFFFFFE0
FFFFF800000000FFFFFFFFFFFFFFFFFFE0
FFFFF800000000FFFFFFFFFFFFFFFFFFE0
FFFFF800000000FFFFFFFFFFFFFFFFFFE0
FFFFF800000000FFFFFFFFFFFFFFFFFFE0
FFFFF800000000FFFFFFFFFFFFFFFFFFE0
FFFFF800000000FFFFFFFFFFFFFFFFFFE0
FFFFF800000000FFFFFFFFFFFFFFFFFFE0
FFFFF800000000FFFFFFFFFFFFFFFFFFE0
FFFFF800000000FFFFFFFFFFFFFFFFFFE0
FFFFF800000000FFFFFFFFFFFFFFFFFFE0
FFFFF800000000FFFFFFFFFFFFFFFFFFE0
FFFFFC00000000FFFFFFFFFFFFFFFFFFE0
7FFFFC00000000FFFFFFFFFFFFFFFFFFE0
7FFFFC0000000000000000000003FFFFE0
7FFFFC0000000000000000000003FFFFE0
7FFFFC0000000000000000000003FFFFE0
7FFFFE0000000000000000000003FFFFE0
7FFFFE0000000000000000000003FFFFE0
3FFFFE0000000000000000000003FFFFE0
3FFFFF0000000000000000000003FFFFE0
3FFFFF0000000000000000000003FFFFE0
3FFFFF0000000000000000000003FFFFE0
1FFFFF8000000000000000000003FFFFE0
1FFFFF8000000000000000000003FFFFE0
1FFFFFC000000000000000000003FFFFE0
0FFFFFC000000000000000000003FFFFE0
0FFFFFE000000000000000000003FFFFE0
0FFFFFF000000000000000000003FFFFE0
07FFFFF000000000000000000003FFFFE0
07FFFFF800000000000000000003FFFFE0
07FFFFFC00000000000000000003FFFFE0
03FFFFFE00000000000000000003FFFFE0
03FFFFFF00000000000000000003FFFFE0
01FFFFFF80000000000000000003FFFFE0
01FFFFFFC0000000000000000003FFFFE0
00FFFFFFE0000000000000000003FFFFE0
007FFFFFF0000000000000000003FFFFE0
007FFFFFF8000000000000000003FFFFE0
003FFFFFFE000000000000000003FFFFE0
003FFFFFFF800000000000000003FFFFE0
001FFFFFFFE00000000000000003FFFFE0
000FFFFFFFF80000000000000003FFFFE0
0007FFFFFFFF0000000000000003FFFFE0
0007FFFFFFFFF800000000000003FFFFE0
0003FFFFFFFFFFFFFFFFFFFFFFFFFFFFE0
0001FFFFFFFFFFFFFFFFFFFFFFFFFFFFE0
0000FFFFFFFFFFFFFFFFFFFFFFFFFFFFE0
00007FFFFFFFFFFFFFFFFFFFFFFFFFFFE0
00003FFFFFFFFFFFFFFFFFFFFFFFFFFFE0
00001FFFFFFFFFFFFFFFFFFFFFFFFFFFE0
00000FFFFFFFFFFFFFFFFFFFFFFFFFFFE0
000007FFFFFFFFFFFFFFFFFFFFFFFFFFE0
000003FFFFFFFFFFFFFFFFFFFFFFFFFFE0
000000FFFFFFFFFFFFFFFFFFFFFFFFFFE0
0000007FFFFFFFFFFFFFFFFFFFFFFFFFE0
0000003FFFFFFFFFFFFFFFFFFFFFFFFFE0
0000000FFFFFFFFFFFFFFFFFFFFFFFFFE0
00000003FFFFFFFFFFFFFFFFFFFFFFFFE0
00000000FFFFFFFFFFFFFFFFFFFFFFFFE0
000000003FFFFFFFFFFFFFFFFFFFFFFFE0
000000000FFFFFFFFFFFFFFFFFFFFFFFE0
0000000003FFFFFFFFFFFFFFFFFFFFFFE0
00000000007FFFFFFFFFFFFFFFFFFFFFE0
000000000007FFFFFFFFFFFFFFFFFFFFE0
0000000000001FFFFFFFFFFFFFFFFFFFE0
ENDCHAR
STARTCHAR H
ENCODING 72
SWIDTH 838 0
DWIDTH 139 0
BBX 119 121 10 0
BITMAP
FFFFFC0000000000000000003FFFFE
FFFFFC0000000000000000003FFFFE
FFFFFC0000000000000000003FFFFE
FFFFFC0000000000000000003FFFFE
FFFFFC0000000000000000003FFFFE
FFFFFC0000000000000000003FFFFE
FFFFFC0000000000000000003FFFFE
FFFFFC0000000000000000003FFFFE
FFFFFC0000000000000000003FFFFE
FFFFFC0000000000000000003FFFFE
FFFFFC0000000000000000003FFFFE
FFFFFC0000000000000000003FFFFE
FFFFFC0000000000000000003FFFFE
FFFFFC0000000000000000003FFFFE
FFFFFC0000000000000000003FFFFE
FFFFFC0000000000000000003FFFFE
FFFFFC0000000000000000003FFFFE
FFFFFC0000000000000000003FFFFE
FFFFFC0000000000000000003FFFFE
FFFFFC0000000000000000003FFFFE
FFFFFC0000000000000000003FFFFE
FFFFFC0000000000000000003FFFFE
FFFFFC0000000000000000003FFFFE
FFFFFC0000000000000000003FFFFE
FFFFFC0000000000000000003FFFFE
FFFFFC0000000000000000003FFFFE
FFFFFC0000000000000000003FFFFE
FFFFFC0000000000000000003FFFFE
FFFFFC0000000000000000003FFFFE
FFFFFC0000000000000000003FFFFE
FFFFFC0000000000000000003FFFFE
FFFFFC0000000000000000003FFFFE
FFFFFC0000000000000000003FFFFE
FFFFFC0000000000000000003FFFFE
FFFFFC0000000000000000003FFFFE
FFFFFC0000000000000000003FFFFE
FFFFFC0000000000000000003FFFFE
FFFFFC0000000000000000003FFFFE
FFFFFC0000000000000000003FFFFE
FFFFFC0000000000000000003FFFFE
FFFFFC0000000000000000003FFFFE
FFFFFC0000000000000000003FFFFE
FFFFFC0000000000000000003FFFFE
FFFFFC0000000000000000003FFFFE
FFFFFC0000000000000000003FFFFE
FFFFFC0000000000000000003FFFFE
FFFFFC0000000000000000003FFFFE
FFFFFC0000000000000000003FFFFE
FFFFFC0000000000000000003FFFFE
FFFFFC0000000000000000003FFFFE
FFFFFC0007FFFFFFFFFFFFFFFFFFFE
FFFFFC0007FFFFFFFFFFFFFFFFFFFE
FFFFFC0007FFFFFFFFFFFFFFFFFFFE
FFFFFC0007FFFFFFFFFFFFFFFFFFFE
FFFFFC0007FFFFFFFFFFFFFFFFFFFE
FFFFFC0007FFFFFFFFFFFFFFFFFFFE
FFFFFC0007FFFFFFFFFFFFFFFFFFFE
FFFFFC0007FFFFFFFFFFFFFFFFFFFE
FFFFFC0007FFFFFFFFFFFFFFFFFFFE
FFFFFC0007FFFFFFFFFFFFFFFFFFFE
FFFFFC0007FFFFFFFFFFFFFFFFFFFE
FFFFFC0007FFFFFFFFFFFFFFFFFFFE
FFFFFC0007FFFFFFFFFFFFFFFFFFFE
FFFFFC0007FFFFFFFFFFFFFFFFFFFE
FFFFFC0007FFFFFFFFFFFFFFFFFFFE
FFFFFC0007FFFFFFFFFFFFFFFFFFFE
FFFFFC0007FFFFFFFFFFFFFFFFFFFE
FFFFFC0007FFFFFFFFFFFFFFFFFFFE
FFFFFC0007FFFFFFFFFFFFFFFFFFFE
FFFFFC0000000000000000003FFFFE
FFFFFC0000000000000000003FFFFE
FFFFFC0000000000000000003FFFFE
FFFFFC0000000000000000003FFFFE
FFFFFC0000000000000000003FFFFE
FFFFFC0000000000000000003FFFFE
FFFFFC0000000000000000003FFFFE
FFFFFC0000000000000000003FFFFE
FFFFFC0000000000000000003FFFFE
FFFFFC0000000000000000003FFFFE
FFFFFC0000000000000000003FFFFE
FFFFFC0000000000000000003FFFFE
FFFFFC0000000000000000003FFFFE
FFFFFC0000000000000000003FFFFE
FFFFFC0000000000000000003FFFFE
FFFFFC0000000000000000003FFFFE
FFFFFC0000000000000000003FFFFE
FFFFFC0000000000000000003FFFFE
FFFFFC0000000000000000003FFFFE
FFFFFC0000000000000000003FFFFE
FFFFFC0000000000000000003FFFFE
FFFFFC0000000000000000003FFFFE
FFFFFC0000000000000000003FFFFE
FFFFFC0000000000000000003FFFFE
FFFFFC0000000000000000003FFFFE
FFFFFC0000000000000000003FFFFE
FFFFFC0000000000000000003FFFFE
FFFFFC0000000000000000003FFFFE
FFFFFC0000000000000000003FFFFE
FFFFFC0000000000000000003FFFFE
FFFFFC0000000000000000003FFFFE
FFFFFC0000000000000000003FFFFE
FFFFFC0000000000000000003FFFFE
FFFFFC0000000000000000003FFFFE
FFFFFC0000000000000000003FFFFE
FFFFFC0000000000000000003FFFFE
FFFFFC0000000000000000003FFFFE
FFFFFC0000000000000000003FFFFE
FFFFFC0000000000000000003FFFFE
FFFFFC0000000000000000003FFFFE
FFFFFC0000000000000000003FFFFE
FFFFFC0000000000000000003FFFFE
FFFFFC0000000000000000003FFFFE
FFFFFC0000000000000000003FFFFE
FFFFFC0000000000000000003FFFFE
FFFFFC0000000000000000003FFFFE
FFFFFC0000000000000000003FFFFE
FFFFFC0000000000000000003FFFFE
FFFFFC0000000000000000003FFFFE
FFFFFC0000000000000000003FFFFE
FFFFFC0000000000000000003FFFFE
FFFFFC0000000000000000003FFFFE
ENDCHAR
STARTCHAR I
ENCODING 73
SWIDTH 267 0
DWIDTH 44 0
BBX 21 121 12 0
BITMAP
FFFFF8
FFFFF8
FFFFF8
FFFFF8
FFFFF8
FFFFF8
FFFFF8
FFFFF8
FFFFF8
FFFFF8
FFFFF8
FFFFF8
FFFFF8
FFFFF8
FFFFF8
FFFFF8
FFFFF8
FFFFF8
FFFFF8
FFFFF8
FFFFF8
FFFFF8
FFFFF8
FFFFF8
FFFFF8
FFFFF8
FFFFF8
FFFFF8
FFFFF8
FFFFF8
FFFFF8
FFFFF8
FFFFF8
FFFFF8
FFFFF8
FFFFF8
FFFFF8
FFFFF8
FFFFF8
FFFFF8
FFFFF8
FFFFF8
FFFFF8
FFFFF8
FFFFF8
FFFFF8
FFFFF8
FFFFF8
FFFFF8
FFFFF8
FFFFF8
FFFFF8
FFFFF8
FFFFF8
FFFFF8
FFFFF8
FFFFF8
FFFFF8
FFFFF8
FFFFF8
FFFFF8
FFFFF8
FFFFF8
FFFFF8
FFFFF8
FFFFF8
FFFFF8
FFFFF8
FFFFF8
FFFFF8
FFFFF8
FFFFF8
FFFFF8
FFFFF8
FFFFF8
FFFFF8
FFFFF8
FFFFF8
FFFFF8
FFFFF8
FFFFF8
FFFFF8
FFFFF8
FFFFF8
FFFFF8
FFFFF8
FFFFF8
FFFFF8
FFFFF8
FFFFF8
FFFFF8
FFFFF8
FFFFF8
FFFFF8
FFFFF8
FFFFF8
FFFFF8
FFFFF8
FFFFF8
FFFFF8
FFFFF8
FFFFF8
FFFFF8
FFFFF8
FFFFF8
FFFFF8
FFFFF8
FFFFF8
FFFFF8
FFFFF8
FFFFF8
FFFFF8
FFFFF8
FFFFF8
FFFFF8
FFFFF8
FFFFF8
FFFFF8
FFFFF8
FFFFF8
FFFFF8
ENDCHAR
STARTCHAR J
ENCODING 74
SWIDTH 708 0
DWIDTH 118 0
BBX 105 121 4 0
BITMAP
000000000000000000000FFFFF80
000000000000000000000FFFFF80
000000000000000000000FFFFF80
000000000000000000000FFFFF80
000000000000000000000FFFFF80
000000000000000000000FFFFF80
000000000000000000000FFFFF80
000000000000000000000FFFFF80
000000000000000000000FFFFF80
000000000000000000000FFFFF80
000000000000000000000FFFFF80
000000000000000000000FFFFF80
000000000000000000000FFFFF80
000000000000000000000FFFFF80
000000000000000000000FFFFF80
000000000000000000000FFFFF80
000000000000000000000FFFFF80
000000000000000000000FFFFF80
000000000000000000000FFFFF80
000000000000000000000FFFFF80
000000000000000000000FFFFF80
000000000000000000000FFFFF80
000000000000000000000FFFFF80
000000000000000000000FFFFF80
000000000000000000000FFFFF80
000000000000000000000FFFFF80
000000000000000000000FFFFF80
000000000000000000000FFFFF80
000000000000000000000FFFFF80
000000000000000000000FFFFF80
000000000000000000000FFFFF80
000000000000000000000FFFFF80
000000000000000000000FFFFF80
000000000000000000000FFFFF80
000000000000000000000FFFFF80
000000000000000000000FFFFF80
000000000000000000000FFFFF80
000000000000000000000FFFFF80
000000000000000000000FFFFF80
000000000000000000000FFFFF80
000000000000000000000FFFFF80
000000000000000000000FFFFF80
000000000000000000000FFFFF80
000000000000000000000FFFFF80
000000000000000000000FFFFF80
000000000000000000000FFFFF80
000000000000000000000FFFFF80
000000000000000000000FFFFF80
000000000000000000000FFFFF80
000000000000000000000FFFFF80
000000000000000000000FFFFF80
000000000000000000000FFFFF80
000000000000000000000FFFFF80
000000000000000000000FFFFF80
000000000000000000000FFFFF80
000000000000000000000FFFFF80
000000000000000000000FFFFF80
000000000000000000000FFFFF80
000000000000000000000FFFFF80
000000000000000000000FFFFF80
000000000000000000000FFFFF80
000000000000000000000FFFFF80
000000000000000000000FFFFF80
000000000000000000000FFFFF80
000000000000000000000FFFFF80
000000000000000000000FFFFF80
000000000000000000000FFFFF80
000000000000000000000FFFFF80
000000000000000000000FFFFF80
000000000000000000000FFFFF80
000000000000000000000FFFFF80
000000000000000000000FFFFF80
000000000000000000001FFFFF80
000000000000000000001FFFFF80
000000000000000000001FFFFF80
000000000000000000001FFFFF00
000000000000000000001FFFFF00
000000000000000000001FFFFF00
000000000000000000003FFFFF00
000000000000000000003FFFFF00
000000000000000000003FFFFF00
000000000000000000007FFFFF00
000000000000000000007FFFFE00
000000000000000000007FFFFE00
00000000000000000000FFFFFE00
00000000000000000000FFFFFE00
00000000000000000001FFFFFC00
00000000000000000003FFFFFC00
00000000000000000003FFFFFC00
00000000000000000007FFFFFC00
0000000000000000000FFFFFF800
0000000000000000001FFFFFF800
0000000000000000003FFFFFF000
000000000000000000FFFFFFF000
000000000000000001FFFFFFF000
000000000000000007FFFFFFE000
00000000000000003FFFFFFFE000
0000000000000001FFFFFFFFC000
000000000000001FFFFFFFFF8000
0000000000000FFFFFFFFFFF8000
FFFFFFFFFFFFFFFFFFFFFFFF0000
FFFFFFFFFFFFFFFFFFFFFFFF0000
FFFFFFFFFFFFFFFFFFFFFFFE0000
FFFFFFFFFFFFFFFFFFFFFFFC0000
FFFFFFFFFFFFFFFFFFFFFFF80000
FFFFFFFFFFFFFFFFFFFFFFF00000
FFFFFFFFFFFFFFFFFFFFFFE00000
FFFFFFFFFFFFFFFFFFFFFFC00000
FFFFFFFFFFFFFFFFFFFFFF800000
FFFFFFFFFFFFFFFFFFFFFF000000
FFFFFFFFFFFFFFFFFFFFFE000000
FFFFFFFFFFFFFFFFFFFFF8000000
FFFFFFFFFFFFFFFFFFFFF0000000
FFFFFFFFFFFFFFFFFFFFC0000000
FFFFFFFFFFFFFFFFFFFF00000000
FFFFFFFFFFFFFFFFFFF800000000
FFFFFFFFFFFFFFFFFFE000000000
FFFFFFFFFFFFFFFFFF0000000000
FFFFFFFFFFFFFFFFF00000000000
FFFFFFFFFFFFFFFF000000000000
FFFFFFFFFFFFFF00000000000000
ENDCHAR
STARTCHAR K
ENCODING 75
SWIDTH 875 0
DWIDTH 145 0
BBX 132 121 10 0
BITMAP
FFFFFC0000000000000000007FFFFFFFC0
FFFFFC000000000000000001FFFFFFFF00
FFFFFC000000000000000003FFFFFFFC00
FFFFFC000000000000000007FFFFFFF800
FFFFFC00000000000000001FFFFFFFF000
FFFFFC00000000000000003FFFFFFFC000
FFFFFC00000000000000007FFFFFFF8000
FFFFFC0000000000000001FFFFFFFF0000
FFFFFC0000000000000003FFFFFFFC0000
FFFFFC0000000000000007FFFFFFF80000
FFFFFC000000000000000FFFFFFFF00000
FFFFFC000000000000003FFFFFFFC00000
FFFFFC000000000000007FFFFFFF800000
FFFFFC00000000000000FFFFFFFF000000
FFFFFC00000000000003FFFFFFFC000000
FFFFFC00000000000007FFFFFFF8000000
FFFFFC0000000000000FFFFFFFF0000000
FFFFFC0000000000001FFFFFFFC0000000
FFFFFC0000000000007FFFFFFF80000000
FFFFFC000000000000FFFFFFFF00000000
FFFFFC000000000001FFFFFFFC00000000
FFFFFC000000000007FFFFFFF800000000
FFFFFC00000000000FFFFFFFF000000000
FFFFFC00000000001FFFFFFFC000000000
FFFFFC00000000007FFFFFFF8000000000
FFFFFC0000000000FFFFFFFF0000000000
FFFFFC0000000001FFFFFFFC0000000000
FFFFFC0000000003FFFFFFF80000000000
FFFFFC000000000FFFFFFFF00000000000
FFFFFC000000001FFFFFFFC00000000000
FFFFFC000000003FFFFFFF800000000000
FFFFFC00000000FFFFFFFF000000000000
FFFFFC00000001FFFFFFFC000000000000
FFFFFC00000003FFFFFFF8000000000000
FFFFFC0000000FFFFFFFE0000000000000
FFFFFC0000001FFFFFFFC0000000000000
FFFFFC0000003FFFFFFF80000000000000
FFFFFC0000007FFFFFFE00000000000000
FFFFFC000001FFFFFFFC00000000000000
FFFFFC000003FFFFFFF800000000000000
FFFFFC000007FFFFFFE000000000000000
FFFFFC00001FFFFFFFC000000000000000
FFFFFC00003FFFFFFF8000000000000000
FFFFFC00007FFFFFFE0000000000000000
FFFFFC0000FFFFFFFC0000000000000000
FFFFFC0003FFFFFFF80000000000000000
FFFFFC0007FFFFFFE00000000000000000
FFFFFC000FFFFFFFC00000000000000000
FFFFFC003FFFFFFF800000000000000000
FFFFFC007FFFFFFE000000000000000000
FFFFFC00FFFFFFFC000000000000000000
FFFFFC01FFFFFFF8000000000000000000
FFFFFC03FFFFFFE0000000000000000000
FFFFFC07FFFFFFC0000000000000000000
FFFFFC07FFFFFF80000000000000000000
FFFFFC0FFFFFFE00000000000000000000
FFFFFC0FFFFFFC00000000000000000000
FFFFFC0FFFFFF800000000000000000000
FFFFFC0FFFFFE000000000000000000000
FFFFFC0FFFFFE000000000000000000000
FFFFFC0FFFFFF000000000000000000000
FFFFFC0FFFFFFC00000000000000000000
FFFFFC0FFFFFFE00000000000000000000
FFFFFC07FFFFFF00000000000000000000
FFFFFC07FFFFFFC0000000000000000000
FFFFFC03FFFFFFE0000000000000000000
FFFFFC01FFFFFFF0000000000000000000
FFFFFC00FFFFFFFC000000000000000000
FFFFFC007FFFFFFE000000000000000000
FFFFFC001FFFFFFF000000000000000000
FFFFFC000FFFFFFFC00000000000000000
FFFFFC0007FFFFFFE00000000000000000
FFFFFC0003FFFFFFF00000000000000000
FFFFFC0000FFFFFFFC0000000000000000
FFFFFC00007FFFFFFE0000000000000000
FFFFFC00003FFFFFFF0000000000000000
FFFFFC00001FFFFFFFC000000000000000
FFFFFC000007FFFFFFE000000000000000
FFFFFC000003FFFFFFF000000000000000
FFFFFC000001FFFFFFF800000000000000
FFFFFC0000007FFFFFFE00000000000000
FFFFFC0000003FFFFFFF00000000000000
FFFFFC0000001FFFFFFF80000000000000
FFFFFC0000000FFFFFFFE0000000000000
FFFFFC00000003FFFFFFF0000000000000
FFFFFC00000001FFFFFFF8000000000000
FFFFFC00000000FFFFFFFE000000000000
FFFFFC000000007FFFFFFF000000000000
FFFFFC000000001FFFFFFF800000000000
FFFFFC000000000FFFFFFFE00000000000
FFFFFC0000000007FFFFFFF00000000000
FFFFFC0000000003FFFFFFF80000000000
FFFFFC0000000000FFFFFFFE0000000000
FFFFFC00000000007FFFFFFF0000000000
FFFFFC00000000003FFFFFFF8000000000
FFFFFC00000000000FFFFFFFE000000000
FFFFFC000000000007FFFFFFF000000000
FFFFFC000000000003FFFFFFF800000000
FFFFFC000000000001FFFFFFFC00000000
FFFFFC0000000000007FFFFFFF00000000
FFFFFC0000000000003FFFFFFF80000000
FFFFFC0000000000001FFFFFFFC0000000
FFFFFC0000000000000FFFFFFFF0000000
FFFFFC00000000000003FFFFFFF8000000
FFFFFC00000000000001FFFFFFFC000000
FFFFFC00000000000000FFFFFFFF000000
FFFFFC000000000000007FFFFFFF800000
FFFFFC000000000000001FFFFFFFC00000
FFFFFC000000000000000FFFFFFFF00000
FFFFFC0000000000000007FFFFFFF80000
FFFFFC0000000000000001FFFFFFFC0000
FFFFFC0000000000000000FFFFFFFF0000
FFFFFC00000000000000007FFFFFFF8000
FFFFFC00000000000000003FFFFFFFC000
FFFFFC00000000000000000FFFFFFFF000
FFFFFC000000000000000007FFFFFFF800
FFFFFC000000000000000003FFFFFFFC00
FFFFFC000000000000000001FFFFFFFF00
FFFFFC0000000000000000007FFFFFFF80
FFFFFC0000000000000000003FFFFFFFC0
FFFFFC0000000000000000001FFFFFFFF0
ENDCHAR
STARTCHAR L
ENCODING 76
SWIDTH 707 0
DWIDTH 117 0
BBX 103 121 10 0
BITMAP
FFFFFC00000000000000000000
FFFFFC00000000000000000000
FFFFFC00000000000000000000
FFFFFC00000000000000000000
FFFFFC00000000000000000000
FFFFFC00000000000000000000
FFFFFC00000000000000000000
FFFFFC00000000000000000000
FFFFFC00000000000000000000
FFFFFC00000000000000000000
FFFFFC00000000000000000000
FFFFFC00000000000000000000
FFFFFC00000000000000000000
FFFFFC00000000000000000000
FFFFFC00000000000000000000
FFFFFC00000000000000000000
FFFFFC00000000000000000000
FFFFFC00000000000000000000
FFFFFC00000000000000000000
FFFFFC00000000000000000000
FFFFFC00000000000000000000
FFFFFC00000000000000000000
FFFFFC00000000000000000000
FFFFFC00000000000000000000
FFFFFC00000000000000000000
FFFFFC00000000000000000000
FFFFFC00000000000000000000
FFFFFC00000000000000000000
FFFFFC00000000000000000000
FFFFFC00000000000000000000
FFFFFC00000000000000000000
FFFFFC00000000000000000000
FFFFFC00000000000000000000
FFFFFC00000000000000000000
FFFFFC00000000000000000000
FFFFFC00000000000000000000
FFFFFC00000000000000000000
FFFFFC00000000000000000000
FFFFFC00000000000000000000
FFFFFC00000000000000000000
FFFFFC00000000000000000000
FFFFFC00000000000000000000
FFFFFC00000000000000000000
FFFFFC00000000000000000000
FFFFFC00000000000000000000
FFFFFC00000000000000000000
FFFFFC00000000000000000000
FFFFFC00000000000000000000
FFFFFC00000000000000000000
FFFFFC00000000000000000000
FFFFFC00000000000000000000
FFFFFC00000000000000000000
FFFFFC00000000000000000000
FFFFFC00000000000000000000
FFFFFC00000000000000000000
FFFFFC00000000000000000000
FFFFFC00000000000000000000
FFFFFC00000000000000000000
FFFFFC00000000000000000000
FFFFFC00000000000000000000
FFFFFC00000000000000000000
FFFFFC00000000000000000000
FFFFFC00000000000000000000
FFFFFC00000000000000000000
FFFFFC00000000000000000000
FFFFFC00000000000000000000
FFFFFC00000000000000000000
FFFFFC00000000000000000000
FFFFFC00000000000000000000
FFFFFC00000000000000000000
FFFFFC00000000000000000000
FFFFFC00000000000000000000
FFFFFC00000000000000000000
FFFFFC00000000000000000000
FFFFFC00000000000000000000
FFFFFC00000000000000000000
FFFFFC00000000000000000000
FFFFFC00000000000000000000
FFFFFC00000000000000000000
FFFFFC00000000000000000000
FFFFFC00000000000000000000
FFFFFC00000000000000000000
FFFFFC00000000000000000000
FFFFFC00000000000000000000
FFFFFC00000000000000000000
FFFFFC00000000000000000000
FFFFFC00000000000000000000
FFFFFC00000000000000000000
FFFFFC00000000000000000000
FFFFFC00000000000000000000
FFFFFC00000000000000000000
FFFFFC00000000000000000000
FFFFFC00000000000000000000
FFFFFC00000000000000000000
FFFFFC00000000000000000000
FFFFFC00000000000000000000
FFFFFC00000000000000000000
FFFFFC00000000000000000000
FFFFFC00000000000000000000
FFFFFC00000000000000000000
FFFFFFFFFFFFFFFFFFFFFFFFFE
FFFFFFFFFFFFFFFFFFFFFFFFFE
FFFFFFFFFFFFFFFFFFFFFFFFFE
FFFFFFFFFFFFFFFFFFFFFFFFFE
FFFFFFFFFFFFFFFFFFFFFFFFFE
FFFFFFFFFFFFFFFFFFFFFFFFFE
FFFFFFFFFFFFFFFFFFFFFFFFFE
FFFFFFFFFFFFFFFFFFFFFFFFFE
FFFFFFFFFFFFFFFFFFFFFFFFFE
FFFFFFFFFFFFFFFFFFFFFFFFFE
FFFFFFFFFFFFFFFFFFFFFFFFFE
FFFFFFFFFFFFFFFFFFFFFFFFFE
FFFFFFFFFFFFFFFFFFFFFFFFFE
FFFFFFFFFFFFFFFFFFFFFFFFFE
FFFFFFFFFFFFFFFFFFFFFFFFFE
FFFFFFFFFFFFFFFFFFFFFFFFFE
FFFFFFFFFFFFFFFFFFFFFFFFFE
FFFFFFFFFFFFFFFFFFFFFFFFFE
FFFFFFFFFFFFFFFFFFFFFFFFFE
FFFFFFFFFFFFFFFFFFFFFFFFFE
FFFFFFFFFFFFFFFFFFFFFFFFFE
ENDCHAR
STARTCHAR M
ENCODING 77
SWIDTH 1115 0
DWIDTH 185 0
BBX 178 123 4 -2
BITMAP
0000000003F80000000000000000000007F00000000000
000000000FFE000000000000000000001FFC0000000000
000000003FFF800000000000000000003FFE0000000000
000000007FFFC00000000000000000007FFF0000000000
000000007FFFE0000000000000000000FFFF8000000000
00000000FFFFE0000000000000000001FFFFC000000000
00000000FFFFF0000000000000000001FFFFC000000000
00000001FFFFF0000000000000000003FFFFC000000000
00000001FFFFF8000000000000000003FFFFE000000000
00000001FFFFF8000000000000000007FFFFE000000000
00000003FFFFFC000000000000000007FFFFE000000000
00000003FFFFFC000000000000000007FFFFF000000000
00000003FFFFFC00000000000000000FFFFFF000000000
00000003FFFFFE00000000000000000FFFFFF000000000
00000007FFFFFE00000000000000001FFFFFF000000000
00000007FFFFFF00000000000000001FFFFFF800000000
00000007FFFFFF00000000000000003FFFFFF800000000
00000007FFFFFF80000000000000003FFFFFF800000000
0000000FFFFFFF80000000000000007FFFFFF800000000
0000000FFFFFFFC0000000000000007FFFFFFC00000000
0000000FFFFFFFC0000000000000007FFFFFFC00000000
0000001FFFFFFFC000000000000000FFFFFFFC00000000
0000001FFFFFFFE000000000000000FFFFFFFE00000000
0000001FFFFFFFE000000000000001FFFFFFFE00000000
0000001FFFFFFFF000000000000001FFFFFFFE00000000
0000003FFFFFFFF000000000000003FFFFFFFE00000000
0000003FFFFFFFF800000000000003FFFFFFFF00000000
0000003FFFFFFFF800000000000007FFFFFFFF00000000
0000003FFFFFFFFC00000000000007FFFFFFFF00000000
0000007FFFFFFFFC00000000000007FFFFFFFF00000000
0000007FFFFFFFFC0000000000000FFFFFFFFF80000000
0000007FFFFFFFFE0000000000000FFFFFFFFF80000000
000000FFFFFFFFFE0000000000001FFFFFFFFF80000000
000000FFFFFFFFFF0000000000001FFFFFFFFFC0000000
000000FFFFFFFFFF0000000000003FFFFFFFFFC0000000
000000FFFFFFFFFF8000000000003FFFFFFFFFC0000000
000001FFFFFFFFFF8000000000003FFFFFFFFFC0000000
000001FFFFFFFFFF8000000000007FFFFFFFFFE0000000
000001FFFFEFFFFFC000000000007FFFFBFFFFE0000000
000003FFFFE7FFFFC00000000000FFFFFBFFFFE0000000
000003FFFFE7FFFFE00000000000FFFFF3FFFFF0000000
000003FFFFE3FFFFE00000000001FFFFF1FFFFF0000000
000003FFFFC3FFFFF00000000001FFFFE1FFFFF0000000
000007FFFFC1FFFFF00000000003FFFFE1FFFFF0000000
000007FFFFC1FFFFF80000000003FFFFC0FFFFF8000000
000007FFFFC1FFFFF80000000003FFFFC0FFFFF8000000
000007FFFF80FFFFF80000000007FFFFC0FFFFF8000000
00000FFFFF80FFFFFC0000000007FFFF80FFFFF8000000
00000FFFFF807FFFFC000000000FFFFF807FFFFC000000
00000FFFFF007FFFFE000000000FFFFF007FFFFC000000
00001FFFFF003FFFFE000000001FFFFF007FFFFC000000
00001FFFFF003FFFFF000000001FFFFE003FFFFE000000
00001FFFFF003FFFFF000000003FFFFE003FFFFE000000
00001FFFFE001FFFFF800000003FFFFC003FFFFE000000
00003FFFFE001FFFFF800000003FFFFC003FFFFE000000
00003FFFFE000FFFFF800000007FFFFC001FFFFF000000
00003FFFFE000FFFFFC00000007FFFF8001FFFFF000000
00003FFFFC0007FFFFC0000000FFFFF8001FFFFF000000
00007FFFFC0007FFFFE0000000FFFFF0001FFFFF000000
00007FFFFC0003FFFFE0000001FFFFF0000FFFFF800000
00007FFFF80003FFFFF0000001FFFFE0000FFFFF800000
0000FFFFF80003FFFFF0000001FFFFE0000FFFFF800000
0000FFFFF80001FFFFF0000003FFFFC00007FFFFC00000
0000FFFFF80001FFFFF8000003FFFFC00007FFFFC00000
0000FFFFF00000FFFFF8000007FFFFC00007FFFFC00000
0001FFFFF00000FFFFFC000007FFFF800007FFFFC00000
0001FFFFF000007FFFFC00000FFFFF800003FFFFE00000
0001FFFFE000007FFFFE00000FFFFF000003FFFFE00000
0003FFFFE000003FFFFE00001FFFFF000003FFFFE00000
0003FFFFE000003FFFFF00001FFFFE000003FFFFE00000
0003FFFFE000003FFFFF00001FFFFE000001FFFFF00000
0003FFFFC000001FFFFF00003FFFFE000001FFFFF00000
0007FFFFC000001FFFFF80003FFFFC000001FFFFF00000
0007FFFFC000000FFFFF80007FFFFC000000FFFFF80000
0007FFFFC000000FFFFFC0007FFFF8000000FFFFF80000
0007FFFF80000007FFFFC000FFFFF8000000FFFFF80000
000FFFFF80000007FFFFE000FFFFF0000000FFFFF80000
000FFFFF80000007FFFFE000FFFFF00000007FFFFC0000
000FFFFF00000003FFFFF001FFFFE00000007FFFFC0000
001FFFFF00000003FFFFF001FFFFE00000007FFFFC0000
001FFFFF00000001FFFFF003FFFFE00000003FFFFC0000
001FFFFF00000001FFFFF803FFFFC00000003FFFFE0000
001FFFFE00000000FFFFF807FFFFC00000003FFFFE0000
003FFFFE00000000FFFFFC07FFFF800000003FFFFE0000
003FFFFE000000007FFFFC0FFFFF800000001FFFFF0000
003FFFFE000000007FFFFE0FFFFF000000001FFFFF0000
007FFFFC000000007FFFFE0FFFFF000000001FFFFF0000
007FFFFC000000003FFFFE1FFFFE000000001FFFFF0000
007FFFFC000000003FFFFF1FFFFE000000000FFFFF8000
007FFFF8000000001FFFFF3FFFFE000000000FFFFF8000
00FFFFF8000000001FFFFFBFFFFC000000000FFFFF8000
00FFFFF8000000000FFFFFFFFFFC0000000007FFFFC000
00FFFFF8000000000FFFFFFFFFF80000000007FFFFC000
00FFFFF00000000007FFFFFFFFF80000000007FFFFC000
01FFFFF00000000007FFFFFFFFF00000000007FFFFC000
01FFFFF00000000007FFFFFFFFF00000000003FFFFE000
01FFFFF00000000003FFFFFFFFE00000000003FFFFE000
03FFFFE00000000003FFFFFFFFE00000000003FFFFE000
03FFFFE00000000001FFFFFFFFE00000000003FFFFE000
03FFFFE00000000001FFFFFFFFC00000000001FFFFF000
03FFFFC00000000000FFFFFFFFC00000000001FFFFF000
07FFFFC00000000000FFFFFFFF800000000001FFFFF000
07FFFFC000000000007FFFFFFF800000000000FFFFF800
07FFFFC000000000007FFFFFFF000000000000FFFFF800
07FFFF8000000000007FFFFFFF000000000000FFFFF800
0FFFFF8000000000003FFFFFFE000000000000FFFFF800
0FFFFF8000000000003FFFFFFE0000000000007FFFFC00
0FFFFF0000000000001FFFFFFE0000000000007FFFFC00
1FFFFF0000000000001FFFFFFC0000000000007FFFFC00
1FFFFF0000000000000FFFFFFC0000000000003FFFFC00
1FFFFF0000000000000FFFFFF80000000000003FFFFE00
1FFFFE0000000000000FFFFFF80000000000003FFFFE00
3FFFFE00000000000007FFFFF00000000000003FFFFE00
3FFFFE00000000000007FFFFF00000000000001FFFFF00
3FFFFE00000000000003FFFFF00000000000001FFFFF00
7FFFFC00000000000003FFFFE00000000000001FFFFF00
7FFFFC00000000000001FFFFC00000000000001FFFFF00
7FFFFC00000000000001FFFFC00000000000000FFFFF80
7FFFF800000000000000FFFF800000000000000FFFFF80
FFFFF8000000000000007FFF000000000000000FFFFF80
FFFFF8000000000000003FFE0000000000000007FFFFC0
000000000000000000000FF80000000000000000000000
0000000000000000000000800000000000000000000000
ENDCHAR
STARTCHAR N
ENCODING 78
SWIDTH 873 0
DWIDTH 145 0
BBX 125 121 10 0
BITMAP
01FC00000000000000000000007FFFF8
07FF00000000000000000000007FFFF8
0FFFC0000000000000000000007FFFF8
1FFFE0000000000000000000007FFFF8
3FFFF0000000000000000000007FFFF8
7FFFF8000000000000000000007FFFF8
7FFFFC000000000000000000007FFFF8
7FFFFE000000000000000000007FFFF8
FFFFFF000000000000000000007FFFF8
FFFFFF800000000000000000007FFFF8
FFFFFFC00000000000000000007FFFF8
FFFFFFE00000000000000000007FFFF8
FFFFFFF00000000000000000007FFFF8
FFFFFFF80000000000000000007FFFF8
FFFFFFFC0000000000000000007FFFF8
FFFFFFFE0000000000000000007FFFF8
FFFFFFFF0000000000000000007FFFF8
FFFFFFFF8000000000000000007FFFF8
FFFFFFFFC000000000000000007FFFF8
FFFFFFFFE000000000000000007FFFF8
FFFFFFFFF000000000000000007FFFF8
FFFFFFFFF800000000000000007FFFF8
FFFFFFFFFC00000000000000007FFFF8
FFFFFFFFFE00000000000000007FFFF8
FFFFFFFFFF00000000000000007FFFF8
FFFFFFFFFF80000000000000007FFFF8
FFFFFFFFFFC0000000000000007FFFF8
FFFFFFFFFFE0000000000000007FFFF8
FFFFFFFFFFF0000000000000007FFFF8
FFFFFFFFFFF8000000000000007FFFF8
FFFFFFFFFFFC000000000000007FFFF8
FFFFFFFFFFFE000000000000007FFFF8
FFFFFFFFFFFF000000000000007FFFF8
FFFFFFFFFFFF800000000000007FFFF8
FFFFF7FFFFFFC00000000000007FFFF8
FFFFF3FFFFFFE00000000000007FFFF8
FFFFF1FFFFFFF00000000000007FFFF8
FFFFF0FFFFFFF80000000000007FFFF8
FFFFF07FFFFFFE0000000000007FFFF8
FFFFF03FFFFFFF0000000000007FFFF8
FFFFF01FFFFFFF8000000000007FFFF8
FFFFF00FFFFFFFC000000000007FFFF8
FFFFF007FFFFFFE000000000007FFFF8
FFFFF003FFFFFFF000000000007FFFF8
FFFFF001FFFFFFF800000000007FFFF8
FFFFF000FFFFFFFC00000000007FFFF8
FFFFF0007FFFFFFE00000000007FFFF8
FFFFF0003FFFFFFF00000000007FFFF8
FFFFF0001FFFFFFF80000000007FFFF8
FFFFF0000FFFFFFFC0000000007FFFF8
FFFFF00007FFFFFFE0000000007FFFF8
FFFFF00003FFFFFFF0000000007FFFF8
FFFFF00001FFFFFFF8000000007FFFF8
FFFFF00000FFFFFFFC000000007FFFF8
FFFFF000007FFFFFFE000000007FFFF8
FFFFF000003FFFFFFF000000007FFFF8
FFFFF000001FFFFFFF800000007FFFF8
FFFFF000000FFFFFFFC00000007FFFF8
FFFFF0000007FFFFFFE00000007FFFF8
FFFFF0000003FFFFFFF00000007FFFF8
FFFFF0000001FFFFFFF80000007FFFF8
FFFFF0000000FFFFFFFC0000007FFFF8
FFFFF00000007FFFFFFE0000007FFFF8
FFFFF00000003FFFFFFF0000007FFFF8
FFFFF00000001FFFFFFF8000007FFFF8
FFFFF00000000FFFFFFFC000007FFFF8
FFFFF000000003FFFFFFE000007FFFF8
FFFFF000000003FFFFFFF000007FFFF8
FFFFF000000000FFFFFFF800007FFFF8
FFFFF0000000007FFFFFFC00007FFFF8
FFFFF0000000003FFFFFFE00007FFFF8
FFFFF0000000001FFFFFFF00007FFFF8
FFFFF0000000000FFFFFFF80007FFFF8
FFFFF00000000007FFFFFFC0007FFFF8
FFFFF00000000003FFFFFFE0007FFFF8
FFFFF00000000001FFFFFFF0007FFFF8
FFFFF00000000000FFFFFFF8007FFFF8
FFFFF000000000007FFFFFFC007FFFF8
FFFFF000000000003FFFFFFE007FFFF8
FFFFF000000000001FFFFFFF007FFFF8
FFFFF000000000000FFFFFFF807FFFF8
FFFFF0000000000007FFFFFFC07FFFF8
FFFFF0000000000003FFFFFFE07FFFF8
FFFFF0000000000001FFFFFFF07FFFF8
FFFFF0000000000000FFFFFFF87FFFF8
FFFFF00000000000007FFFFFFC7FFFF8
FFFFF00000000000003FFFFFFE7FFFF8
FFFFF00000000000001FFFFFFF7FFFF8
FFFFF00000000000000FFFFFFFFFFFF8
FFFFF000000000000007FFFFFFFFFFF8
FFFFF000000000000003FFFFFFFFFFF8
FFFFF000000000000001FFFFFFFFFFF8
FFFFF000000000000000FFFFFFFFFFF8
FFFFF0000000000000007FFFFFFFFFF8
FFFFF0000000000000003FFFFFFFFFF8
FFFFF0000000000000001FFFFFFFFFF8
FFFFF0000000000000000FFFFFFFFFF8
FFFFF00000000000000007FFFFFFFFF8
FFFFF00000000000000003FFFFFFFFF8
FFFFF00000000000000001FFFFFFFFF8
FFFFF00000000000000000FFFFFFFFF8
FFFFF000000000000000007FFFFFFFF8
FFFFF000000000000000003FFFFFFFF8
FFFFF000000000000000001FFFFFFFF8
FFFFF000000000000000000FFFFFFFF8
FFFFF0000000000000000007FFFFFFF8
FFFFF0000000000000000003FFFFFFF8
FFFFF0000000000000000001FFFFFFF8
FFFFF0000000000000000000FFFFFFF8
FFFFF00000000000000000003FFFFFF8
FFFFF00000000000000000001FFFFFF8
FFFFF00000000000000000000FFFFFF8
FFFFF000000000000000000007FFFFF8
FFFFF000000000000000000003FFFFF0
FFFFF000000000000000000001FFFFF0
FFFFF000000000000000000000FFFFF0
FFFFF0000000000000000000007FFFE0
FFFFF0000000000000000000003FFFC0
FFFFF0000000000000000000001FFF80
FFFFF00000000000000000000007FF00
FFFFF00000000000000000000001FC00
ENDCHAR
STARTCHAR O
ENCODING 79
SWIDTH 968 0
DWIDTH 161 0
BBX 147 121 7 0
BITMAP
0000000000003FFFFFFFFFFF80000000000000
00000000000FFFFFFFFFFFFFFE000000000000
0000000000FFFFFFFFFFFFFFFFE00000000000
0000000007FFFFFFFFFFFFFFFFFC0000000000
000000001FFFFFFFFFFFFFFFFFFF0000000000
00000000FFFFFFFFFFFFFFFFFFFFE000000000
00000003FFFFFFFFFFFFFFFFFFFFF800000000
0000000FFFFFFFFFFFFFFFFFFFFFFE00000000
0000001FFFFFFFFFFFFFFFFFFFFFFF00000000
0000007FFFFFFFFFFFFFFFFFFFFFFFC0000000
000000FFFFFFFFFFFFFFFFFFFFFFFFE0000000
000003FFFFFFFFFFFFFFFFFFFFFFFFF8000000
000007FFFFFFFFFFFFFFFFFFFFFFFFFC000000
00000FFFFFFFFFFFFFFFFFFFFFFFFFFE000000
00003FFFFFFFFFFFFFFFFFFFFFFFFFFF800000
00007FFFFFFFFFFFFFFFFFFFFFFFFFFFC00000
0000FFFFFFFFFFFFFFFFFFFFFFFFFFFFE00000
0001FFFFFFFFFFFFFFFFFFFFFFFFFFFFF00000
0003FFFFFFFFFFFFFFFFFFFFFFFFFFFFF80000
0003FFFFFFFFFFFFFFFFFFFFFFFFFFFFF80000
0007FFFFFFFFFFFFFFFFFFFFFFFFFFFFFC0000
000FFFFFFFFFF80000000003FFFFFFFFFE0000
001FFFFFFFFF0000000000001FFFFFFFFF0000
003FFFFFFFF800000000000003FFFFFFFF0000
003FFFFFFFC000000000000000FFFFFFFF8000
007FFFFFFF00000000000000003FFFFFFFC000
007FFFFFFE00000000000000000FFFFFFFC000
00FFFFFFF8000000000000000003FFFFFFE000
01FFFFFFF0000000000000000001FFFFFFF000
01FFFFFFC0000000000000000000FFFFFFF000
03FFFFFF800000000000000000003FFFFFF800
03FFFFFF000000000000000000001FFFFFF800
07FFFFFE000000000000000000000FFFFFFC00
07FFFFFC0000000000000000000007FFFFFC00
07FFFFFC0000000000000000000007FFFFFC00
0FFFFFF80000000000000000000003FFFFFE00
0FFFFFF00000000000000000000001FFFFFE00
1FFFFFE00000000000000000000000FFFFFF00
1FFFFFE00000000000000000000000FFFFFF00
1FFFFFC000000000000000000000007FFFFF00
3FFFFFC000000000000000000000007FFFFF80
3FFFFF8000000000000000000000003FFFFF80
3FFFFF8000000000000000000000003FFFFF80
3FFFFF0000000000000000000000001FFFFF80
7FFFFF0000000000000000000000001FFFFFC0
7FFFFE0000000000000000000000001FFFFFC0
7FFFFE0000000000000000000000000FFFFFC0
7FFFFE0000000000000000000000000FFFFFC0
7FFFFE0000000000000000000000000FFFFFC0
7FFFFC00000000000000000000000007FFFFC0
FFFFFC00000000000000000000000007FFFFE0
FFFFFC00000000000000000000000007FFFFE0
FFFFFC00000000000000000000000007FFFFE0
FFFFFC00000000000000000000000007FFFFE0
FFFFF800000000000000000000000003FFFFE0
FFFFF800000000000000000000000003FFFFE0
FFFFF800000000000000000000000003FFFFE0
FFFFF800000000000000000000000003FFFFE0
FFFFF800000000000000000000000003FFFFE0
FFFFF800000000000000000000000003FFFFE0
FFFFF800000000000000000000000003FFFFE0
FFFFF800000000000000000000000003FFFFE0
FFFFF800000000000000000000000003FFFFE0
FFFFF800000000000000000000000003FFFFE0
FFFFF800000000000000000000000003FFFFE0
FFFFF800000000000000000000000003FFFFE0
FFFFF800000000000000000000000003FFFFE0
FFFFFC00000000000000000000000007FFFFE0
7FFFFC00000000000000000000000007FFFFC0
7FFFFC00000000000000000000000007FFFFC0
7FFFFC00000000000000000000000007FFFFC0
7FFFFC00000000000000000000000007FFFFC0
7FFFFE0000000000000000000000000FFFFFC0
7FFFFE0000000000000000000000000FFFFFC0
3FFFFE0000000000000000000000000FFFFF80
3FFFFF0000000000000000000000001FFFFF80
3FFFFF0000000000000000000000001FFFFF80
3FFFFF0000000000000000000000001FFFFF80
1FFFFF8000000000000000000000003FFFFF00
1FFFFF8000000000000000000000003FFFFF00
1FFFFFC000000000000000000000007FFFFF00
0FFFFFC000000000000000000000007FFFFE00
0FFFFFE00000000000000000000000FFFFFE00
0FFFFFF00000000000000000000001FFFFFE00
07FFFFF00000000000000000000001FFFFFC00
07FFFFF80000000000000000000003FFFFFC00
07FFFFFC0000000000000000000007FFFFFC00
03FFFFFE000000000000000000000FFFFFF800
03FFFFFF000000000000000000001FFFFFF800
01FFFFFF800000000000000000003FFFFFF000
01FFFFFFC00000000000000000007FFFFFF000
00FFFFFFE0000000000000000000FFFFFFE000
007FFFFFF0000000000000000001FFFFFFC000
007FFFFFF8000000000000000007FFFFFFC000
003FFFFFFE00000000000000000FFFFFFF8000
003FFFFFFF80000000000000003FFFFFFF8000
001FFFFFFFE000000000000000FFFFFFFF0000
000FFFFFFFF800000000000003FFFFFFFE0000
0007FFFFFFFF0000000000001FFFFFFFFC0000
0007FFFFFFFFF80000000003FFFFFFFFFC0000
0003FFFFFFFFFFFFFFFFFFFFFFFFFFFFF80000
0001FFFFFFFFFFFFFFFFFFFFFFFFFFFFF00000
0000FFFFFFFFFFFFFFFFFFFFFFFFFFFFE00000
00007FFFFFFFFFFFFFFFFFFFFFFFFFFFC00000
00003FFFFFFFFFFFFFFFFFFFFFFFFFFF800000
00001FFFFFFFFFFFFFFFFFFFFFFFFFFF000000
00000FFFFFFFFFFFFFFFFFFFFFFFFFFE000000
000007FFFFFFFFFFFFFFFFFFFFFFFFFC000000
000003FFFFFFFFFFFFFFFFFFFFFFFFF8000000
000000FFFFFFFFFFFFFFFFFFFFFFFFE0000000
0000007FFFFFFFFFFFFFFFFFFFFFFFC0000000
0000003FFFFFFFFFFFFFFFFFFFFFFF00000000
0000000FFFFFFFFFFFFFFFFFFFFFFE00000000
00000003FFFFFFFFFFFFFFFFFFFFF800000000
00000000FFFFFFFFFFFFFFFFFFFFE000000000
000000003FFFFFFFFFFFFFFFFFFF8000000000
000000000FFFFFFFFFFFFFFFFFFE0000000000
0000000003FFFFFFFFFFFFFFFFF80000000000
00000000007FFFFFFFFFFFFFFFC00000000000
000000000007FFFFFFFFFFFFFC000000000000
0000000000001FFFFFFFFFFF00000000000000
ENDCHAR
STARTCHAR P
ENCODING 80
SWIDTH 867 0
DWIDTH 144 0
BBX 129 121 10 0
BITMAP
FFFFFFFFFFFFFFFFFFFFFFF80000000000
FFFFFFFFFFFFFFFFFFFFFFFFE000000000
FFFFFFFFFFFFFFFFFFFFFFFFFC00000000
FFFFFFFFFFFFFFFFFFFFFFFFFF80000000
FFFFFFFFFFFFFFFFFFFFFFFFFFE0000000
FFFFFFFFFFFFFFFFFFFFFFFFFFF8000000
FFFFFFFFFFFFFFFFFFFFFFFFFFFE000000
FFFFFFFFFFFFFFFFFFFFFFFFFFFF800000
FFFFFFFFFFFFFFFFFFFFFFFFFFFFC00000
FFFFFFFFFFFFFFFFFFFFFFFFFFFFE00000
FFFFFFFFFFFFFFFFFFFFFFFFFFFFF80000
FFFFFFFFFFFFFFFFFFFFFFFFFFFFFC0000
FFFFFFFFFFFFFFFFFFFFFFFFFFFFFE0000
FFFFFFFFFFFFFFFFFFFFFFFFFFFFFF0000
FFFFFFFFFFFFFFFFFFFFFFFFFFFFFF0000
FFFFFFFFFFFFFFFFFFFFFFFFFFFFFF8000
FFFFFFFFFFFFFFFFFFFFFFFFFFFFFFC000
FFFFFFFFFFFFFFFFFFFFFFFFFFFFFFE000
FFFFFFFFFFFFFFFFFFFFFFFFFFFFFFE000
FFFFFFFFFFFFFFFFFFFFFFFFFFFFFFF000
FFFFFFFFFFFFFFFFFFFFFFFFFFFFFFF000
FFFFF800000000000000003FFFFFFFF800
FFFFF8000000000000000001FFFFFFF800
FFFFF80000000000000000007FFFFFFC00
FFFFF80000000000000000001FFFFFFC00
FFFFF80000000000000000000FFFFFFE00
FFFFF800000000000000000003FFFFFE00
FFFFF800000000000000000001FFFFFE00
FFFFF800000000000000000000FFFFFF00
FFFFF800000000000000000000FFFFFF00
FFFFF8000000000000000000007FFFFF00
FFFFF8000000000000000000003FFFFF00
FFFFF8000000000000000000003FFFFF00
FFFFF8000000000000000000001FFFFF80
FFFFF8000000000000000000001FFFFF80
FFFFF8000000000000000000000FFFFF80
FFFFF8000000000000000000000FFFFF80
FFFFF8000000000000000000000FFFFF80
FFFFF8000000000000000000000FFFFF80
FFFFF80000000000000000000007FFFF80
FFFFF80000000000000000000007FFFF80
FFFFF80000000000000000000007FFFF80
FFFFF80000000000000000000007FFFF80
FFFFF80000000000000000000007FFFF80
FFFFF80000000000000000000007FFFF80
FFFFF80000000000000000000007FFFF80
FFFFF80000000000000000000007FFFF80
FFFFF80000000000000000000007FFFF80
FFFFF80000000000000000000007FFFF80
FFFFF8000000000000000000000FFFFF80
FFFFF8000000000000000000000FFFFF80
FFFFF8000000000000000000000FFFFF80
FFFFF8000000000000000000000FFFFF80
FFFFF8000000000000000000001FFFFF80
FFFFF8000000000000000000001FFFFF00
FFFFF8000000000000000000003FFFFF00
FFFFF8000000000000000000003FFFFF00
FFFFF8000000000000000000007FFFFF00
FFFFF800000000000000000000FFFFFE00
FFFFF800000000000000000000FFFFFE00
FFFFF800000000000000000001FFFFFE00
FFFFF800000000000000000003FFFFFC00
FFFFF800000000000000000007FFFFFC00
FFFFF80000000000000000001FFFFFF800
FFFFF80000000000000000007FFFFFF800
FFFFF8000000000000000001FFFFFFF000
FFFFF800000000000000001FFFFFFFF000
FFFFF80007FFFFFFFFFFFFFFFFFFFFE000
FFFFF80007FFFFFFFFFFFFFFFFFFFFE000
FFFFF80007FFFFFFFFFFFFFFFFFFFFC000
FFFFF80007FFFFFFFFFFFFFFFFFFFF8000
FFFFF80007FFFFFFFFFFFFFFFFFFFF8000
FFFFF80007FFFFFFFFFFFFFFFFFFFF0000
FFFFF80007FFFFFFFFFFFFFFFFFFFE0000
FFFFF80007FFFFFFFFFFFFFFFFFFFC0000
FFFFF80007FFFFFFFFFFFFFFFFFFF80000
FFFFF80007FFFFFFFFFFFFFFFFFFF00000
FFFFF80007FFFFFFFFFFFFFFFFFFE00000
FFFFF80007FFFFFFFFFFFFFFFFFF800000
FFFFF80007FFFFFFFFFFFFFFFFFF000000
FFFFF80007FFFFFFFFFFFFFFFFFE000000
FFFFF80007FFFFFFFFFFFFFFFFF8000000
FFFFF80007FFFFFFFFFFFFFFFFE0000000
FFFFF80007FFFFFFFFFFFFFFFF80000000
FFFFF80007FFFFFFFFFFFFFFFC00000000
FFFFF80007FFFFFFFFFFFFFFC000000000
FFFFF80007FFFFFFFFFFFFF80000000000
FFFFF80000000000000000000000000000
FFFFF80000000000000000000000000000
FFFFF80000000000000000000000000000
FFFFF80000000000000000000000000000
FFFFF80000000000000000000000000000
FFFFF80000000000000000000000000000
FFFFF80000000000000000000000000000
FFFFF80000000000000000000000000000
FFFFF80000000000000000000000000000
FFFFF80000000000000000000000000000
FFFFF80000000000000000000000000000
FFFFF80000000000000000000000000000
FFFFF80000000000000000000000000000
FFFFF80000000000000000000000000000
FFFFF80000000000000000000000000000
FFFFF80000000000000000000000000000
FFFFF80000000000000000000000000000
FFFFF80000000000000000000000000000
FFFFF80000000000000000000000000000
FFFFF80000000000000000000000000000
FFFFF80000000000000000000000000000
FFFFF80000000000000000000000000000
FFFFF80000000000000000000000000000
FFFFF80000000000000000000000000000
FFFFF80000000000000000000000000000
FFFFF80000000000000000000000000000
FFFFF80000000000000000000000000000
FFFFF80000000000000000000000000000
FFFFF80000000000000000000000000000
FFFFF80000000000000000000000000000
FFFFF80000000000000000000000000000
FFFFF80000000000000000000000000000
FFFFF80000000000000000000000000000
FFFFF80000000000000000000000000000
ENDCHAR
STARTCHAR Q
ENCODING 81
SWIDTH 968 0
DWIDTH 161 0
BBX 153 121 7 0
BITMAP
0000000000003FFFFFFFFFFF8000000000000000
00000000000FFFFFFFFFFFFFFE00000000000000
0000000000FFFFFFFFFFFFFFFFE0000000000000
0000000007FFFFFFFFFFFFFFFFFC000000000000
000000001FFFFFFFFFFFFFFFFFFF000000000000
00000000FFFFFFFFFFFFFFFFFFFFE00000000000
00000003FFFFFFFFFFFFFFFFFFFFF80000000000
0000000FFFFFFFFFFFFFFFFFFFFFFE0000000000
0000001FFFFFFFFFFFFFFFFFFFFFFF0000000000
0000007FFFFFFFFFFFFFFFFFFFFFFFC000000000
000000FFFFFFFFFFFFFFFFFFFFFFFFE000000000
000003FFFFFFFFFFFFFFFFFFFFFFFFF800000000
000007FFFFFFFFFFFFFFFFFFFFFFFFFC00000000
00000FFFFFFFFFFFFFFFFFFFFFFFFFFE00000000
00003FFFFFFFFFFFFFFFFFFFFFFFFFFF80000000
00007FFFFFFFFFFFFFFFFFFFFFFFFFFFC0000000
0000FFFFFFFFFFFFFFFFFFFFFFFFFFFFE0000000
0001FFFFFFFFFFFFFFFFFFFFFFFFFFFFF0000000
0003FFFFFFFFFFFFFFFFFFFFFFFFFFFFF8000000
0003FFFFFFFFFFFFFFFFFFFFFFFFFFFFF8000000
0007FFFFFFFFFFFFFFFFFFFFFFFFFFFFFC000000
000FFFFFFFFFF80000000003FFFFFFFFFE000000
001FFFFFFFFF0000000000001FFFFFFFFF000000
003FFFFFFFF800000000000003FFFFFFFF000000
003FFFFFFFC000000000000000FFFFFFFF800000
007FFFFFFF00000000000000003FFFFFFFC00000
007FFFFFFE00000000000000000FFFFFFFC00000
00FFFFFFF8000000000000000003FFFFFFE00000
01FFFFFFF0000000000000000001FFFFFFF00000
01FFFFFFC0000000000000000000FFFFFFF00000
03FFFFFF800000000000000000003FFFFFF80000
03FFFFFF000000000000000000001FFFFFF80000
07FFFFFE000000000000000000000FFFFFFC0000
07FFFFFC0000000000000000000007FFFFFC0000
07FFFFFC0000000000000000000007FFFFFC0000
0FFFFFF80000000000000000000003FFFFFE0000
0FFFFFF00000000000000000000001FFFFFE0000
1FFFFFE00000000000000000000000FFFFFF0000
1FFFFFE00000000000000000000000FFFFFF0000
1FFFFFC000000000000000000000007FFFFF0000
3FFFFFC000000000000000000000007FFFFF8000
3FFFFF8000000000000000000000003FFFFF8000
3FFFFF8000000000000000000000003FFFFF8000
3FFFFF0000000000000000000000001FFFFF8000
7FFFFF0000000000000000000000001FFFFFC000
7FFFFE0000000000000000000000001FFFFFC000
7FFFFE0000000000000000000000000FFFFFC000
7FFFFE0000000000000000000000000FFFFFC000
7FFFFE0000000000000000000000000FFFFFC000
7FFFFC00000000000000000000000007FFFFC000
FFFFFC00000000000000000000000007FFFFE000
FFFFFC00000000000000000000000007FFFFE000
FFFFFC00000000000000000000000007FFFFE000
FFFFFC00000000000000000000000007FFFFE000
FFFFF800000000000000000000000003FFFFE000
FFFFF800000000000000000000000003FFFFE000
FFFFF800000000000000000000000003FFFFE000
FFFFF800000000000000000000000003FFFFE000
FFFFF800000000000000000000000003FFFFE000
FFFFF800000000000000000000000003FFFFE000
FFFFF800000000000000000000000003FFFFE000
FFFFF800000000000000000000000003FFFFE000
FFFFF800000000000000000000000003FFFFE000
FFFFF800000000000000000000000003FFFFE000
FFFFF800000000000000000000000003FFFFE000
FFFFF800000000000000000000000003FFFFE000
FFFFF800000000000000000000000003FFFFE000
FFFFFC00000000000000000000000007FFFFE000
7FFFFC00000000000000000000000007FFFFC000
7FFFFC00000000000000000000000007FFFFC000
7FFFFC00000000000000000000000007FFFFC000
7FFFFC0000000000FFFFFFF000000007FFFFC000
7FFFFE00000000007FFFFFF80000000FFFFFC000
7FFFFE00000000001FFFFFFC0000000FFFFFC000
3FFFFE00000000000FFFFFFF0000000FFFFF8000
3FFFFF000000000007FFFFFF8000001FFFFF8000
3FFFFF000000000003FFFFFFC000001FFFFF8000
3FFFFF000000000000FFFFFFE000001FFFFF8000
1FFFFF8000000000007FFFFFF000003FFFFF0000
1FFFFF8000000000003FFFFFF800003FFFFF0000
1FFFFFC000000000001FFFFFFE00007FFFFF0000
0FFFFFC0000000000007FFFFFF00007FFFFE0000
0FFFFFE0000000000003FFFFFF8000FFFFFE0000
0FFFFFF0000000000001FFFFFFC001FFFFFE0000
07FFFFF00000000000007FFFFFE001FFFFFC0000
07FFFFF80000000000003FFFFFF003FFFFFC0000
07FFFFFC0000000000001FFFFFFC07FFFFFC0000
03FFFFFE0000000000000FFFFFFE0FFFFFF80000
03FFFFFF00000000000003FFFFFF1FFFFFF80000
01FFFFFF80000000000001FFFFFFBFFFFFF00000
01FFFFFFC0000000000000FFFFFFFFFFFFF00000
00FFFFFFE00000000000007FFFFFFFFFFFE00000
007FFFFFF00000000000001FFFFFFFFFFFC00000
007FFFFFF80000000000000FFFFFFFFFFFC00000
003FFFFFFE00000000000007FFFFFFFFFF800000
003FFFFFFF80000000000001FFFFFFFFFF800000
001FFFFFFFE0000000000000FFFFFFFFFF000000
000FFFFFFFF80000000000007FFFFFFFFE000000
0007FFFFFFFF0000000000003FFFFFFFFC000000
0007FFFFFFFFF80000000007FFFFFFFFFC000000
0003FFFFFFFFFFFFFFFFFFFFFFFFFFFFF8000000
0001FFFFFFFFFFFFFFFFFFFFFFFFFFFFF0000000
0000FFFFFFFFFFFFFFFFFFFFFFFFFFFFE0000000
00007FFFFFFFFFFFFFFFFFFFFFFFFFFFC0000000
00003FFFFFFFFFFFFFFFFFFFFFFFFFFFF0000000
00001FFFFFFFFFFFFFFFFFFFFFFFFFFFF8000000
00000FFFFFFFFFFFFFFFFFFFFFFFFFFFFC000000
000007FFFFFFFFFFFFFFFFFFFFFFFFFFFF000000
000003FFFFFFFFFFFFFFFFFFFFFFFFFFFF800000
000000FFFFFFFFFFFFFFFFFFFFFFFFFFFFC00000
0000007FFFFFFFFFFFFFFFFFFFFFFFFFFFF00000
0000003FFFFFFFFFFFFFFFFFFFFFFFFFFFF80000
0000000FFFFFFFFFFFFFFFFFFFFFFFFFFFFC0000
00000003FFFFFFFFFFFFFFFFFFFFFFFFFFFE0000
00000000FFFFFFFFFFFFFFFFFFFFE7FFFFFF8000
000000003FFFFFFFFFFFFFFFFFFF81FFFFFFC000
000000000FFFFFFFFFFFFFFFFFFE00FFFFFFE000
0000000003FFFFFFFFFFFFFFFFF0007FFFFFF800
00000000007FFFFFFFFFFFFFFF80003FFFFFFC00
000000000007FFFFFFFFFFFFFC00001FFFFFFE00
0000000000001FFFFFFFFFFF0000000FFFFFFF80
ENDCHAR
STARTCHAR R
ENCODING 82
SWIDTH 921 0
DWIDTH 153 0
BBX 142 121 10 0
BITMAP
FFFFFFFFFFFFFFFFFFFFFFFE000000000000
FFFFFFFFFFFFFFFFFFFFFFFFF00000000000
FFFFFFFFFFFFFFFFFFFFFFFFFF0000000000
FFFFFFFFFFFFFFFFFFFFFFFFFFE000000000
FFFFFFFFFFFFFFFFFFFFFFFFFFF800000000
FFFFFFFFFFFFFFFFFFFFFFFFFFFE00000000
FFFFFFFFFFFFFFFFFFFFFFFFFFFF00000000
FFFFFFFFFFFFFFFFFFFFFFFFFFFFC0000000
FFFFFFFFFFFFFFFFFFFFFFFFFFFFE0000000
FFFFFFFFFFFFFFFFFFFFFFFFFFFFF8000000
FFFFFFFFFFFFFFFFFFFFFFFFFFFFFC000000
FFFFFFFFFFFFFFFFFFFFFFFFFFFFFE000000
FFFFFFFFFFFFFFFFFFFFFFFFFFFFFF000000
FFFFFFFFFFFFFFFFFFFFFFFFFFFFFF800000
FFFFFFFFFFFFFFFFFFFFFFFFFFFFFFC00000
FFFFFFFFFFFFFFFFFFFFFFFFFFFFFFC00000
FFFFFFFFFFFFFFFFFFFFFFFFFFFFFFE00000
FFFFFFFFFFFFFFFFFFFFFFFFFFFFFFF00000
FFFFFFFFFFFFFFFFFFFFFFFFFFFFFFF00000
FFFFFFFFFFFFFFFFFFFFFFFFFFFFFFF80000
FFFFFFFFFFFFFFFFFFFFFFFFFFFFFFF80000
FFFFF800000000000000000FFFFFFFFC0000
FFFFF80000000000000000007FFFFFFC0000
FFFFF80000000000000000001FFFFFFE0000
FFFFF800000000000000000007FFFFFE0000
FFFFF800000000000000000003FFFFFF0000
FFFFF800000000000000000000FFFFFF0000
FFFFF8000000000000000000007FFFFF0000
FFFFF8000000000000000000003FFFFF8000
FFFFF8000000000000000000003FFFFF8000
FFFFF8000000000000000000001FFFFF8000
FFFFF8000000000000000000001FFFFFC000
FFFFF8000000000000000000000FFFFFC000
FFFFF8000000000000000000000FFFFFC000
FFFFF80000000000000000000007FFFFC000
FFFFF80000000000000000000007FFFFC000
FFFFF80000000000000000000007FFFFC000
FFFFF80000000000000000000003FFFFE000
FFFFF80000000000000000000003FFFFE000
FFFFF80000000000000000000003FFFFE000
FFFFF80000000000000000000003FFFFE000
FFFFF80000000000000000000003FFFFE000
FFFFF80000000000000000000003FFFFE000
FFFFF80000000000000000000003FFFFE000
FFFFF80000000000000000000003FFFFE000
FFFFF80000000000000000000003FFFFE000
FFFFF80000000000000000000003FFFFE000
FFFFF80000000000000000000003FFFFE000
FFFFF80000000000000000000003FFFFE000
FFFFF80000000000000000000003FFFFE000
FFFFF80000000000000000000003FFFFE000
FFFFF80000000000000000000003FFFFE000
FFFFF80000000000000000000007FFFFC000
FFFFF80000000000000000000007FFFFC000
FFFFF80000000000000000000007FFFFC000
FFFFF80000000000000000000007FFFFC000
FFFFF8000000000000000000000FFFFFC000
FFFFF8000000000000000000000FFFFFC000
FFFFF8000000000000000000001FFFFF8000
FFFFF8000000000000000000001FFFFF8000
FFFFF8000000000000000000003FFFFF8000
FFFFF8000000000000000000007FFFFF0000
FFFFF8000000000000000000007FFFFF0000
FFFFF800000000000000000000FFFFFF0000
FFFFF800000000000000000003FFFFFE0000
FFFFF800000000000000000007FFFFFE0000
FFFFF80000000000000000001FFFFFFC0000
FFFFF80000000000000000007FFFFFFC0000
FFFFF8000000000000000007FFFFFFF80000
FFFFF80007FFFFFFFFFFFFFFFFFFFFF80000
FFFFF80007FFFFFFFFFFFFFFFFFFFFF00000
FFFFF80007FFFFFFFFFFFFFFFFFFFFE00000
FFFFF80007FFFFFFFFFFFFFFFFFFFFE00000
FFFFF80007FFFFFFFFFFFFFFFFFFFFC00000
FFFFF80007FFFFFFFFFFFFFFFFFFFF800000
FFFFF80007FFFFFFFFFFFFFFFFFFFF000000
FFFFF80007FFFFFFFFFFFFFFFFFFFE000000
FFFFF80007FFFFFFFFFFFFFFFFFFFC000000
FFFFF80007FFFFFFFFFFFFFFFFFFF8000000
FFFFF80007FFFFFFFFFFFFFFFFFFF0000000
FFFFF80007FFFFFFFFFFFFFFFFFFC0000000
FFFFF80007FFFFFFFFFFFFFFFFFF80000000
FFFFF80007FFFFFFFFFFFFFFFFFE00000000
FFFFF80007FFFFFFFFFFFFFFFFF800000000
FFFFF80007FFFFFFFFFFFFFFFFE000000000
FFFFF80007FFFFFFFFFFFFFFFFE000000000
FFFFF80007FFFFFFFFFFFFFFFFF000000000
FFFFF80007FFFFFFFFFFFFFFFFF800000000
FFFFF8000000000000003FFFFFFC00000000
FFFFF8000000000000001FFFFFFE00000000
FFFFF8000000000000000FFFFFFF00000000
FFFFF80000000000000007FFFFFF80000000
FFFFF80000000000000003FFFFFFC0000000
FFFFF80000000000000001FFFFFFE0000000
FFFFF80000000000000000FFFFFFF0000000
FFFFF800000000000000007FFFFFF8000000
FFFFF800000000000000003FFFFFFC000000
FFFFF800000000000000001FFFFFFE000000
FFFFF800000000000000000FFFFFFF000000
FFFFF8000000000000000007FFFFFF800000
FFFFF8000000000000000003FFFFFFC00000
FFFFF8000000000000000003FFFFFFE00000
FFFFF8000000000000000001FFFFFFF00000
FFFFF8000000000000000000FFFFFFF80000
FFFFF80000000000000000007FFFFFFC0000
FFFFF80000000000000000003FFFFFFE0000
FFFFF80000000000000000001FFFFFFF0000
FFFFF80000000000000000000FFFFFFF8000
FFFFF800000000000000000007FFFFFFC000
FFFFF800000000000000000003FFFFFFE000
FFFFF800000000000000000001FFFFFFF000
FFFFF800000000000000000000FFFFFFF800
FFFFF8000000000000000000007FFFFFFC00
FFFFF8000000000000000000003FFFFFFE00
FFFFF8000000000000000000003FFFFFFF00
FFFFF8000000000000000000001FFFFFFF80
FFFFF8000000000000000000000FFFFFFFC0
FFFFF80000000000000000000007FFFFFFE0
FFFFF80000000000000000000003FFFFFFF0
FFFFF80000000000000000000001FFFFFFF8
FFFFF80000000000000000000000FFFFFFFC
ENDCHAR
STARTCHAR S
ENCODING 83
SWIDTH 880 0
DWIDTH 146 0
BBX 129 121 9 0
BITMAP
00000007FFFFFFFFFFFFFFFFFFFFFFE000
000000FFFFFFFFFFFFFFFFFFFFFFFFE000
000007FFFFFFFFFFFFFFFFFFFFFFFFE000
00001FFFFFFFFFFFFFFFFFFFFFFFFFE000
00007FFFFFFFFFFFFFFFFFFFFFFFFFE000
0001FFFFFFFFFFFFFFFFFFFFFFFFFFE000
0007FFFFFFFFFFFFFFFFFFFFFFFFFFE000
000FFFFFFFFFFFFFFFFFFFFFFFFFFFE000
001FFFFFFFFFFFFFFFFFFFFFFFFFFFE000
007FFFFFFFFFFFFFFFFFFFFFFFFFFFE000
00FFFFFFFFFFFFFFFFFFFFFFFFFFFFE000
01FFFFFFFFFFFFFFFFFFFFFFFFFFFFE000
01FFFFFFFFFFFFFFFFFFFFFFFFFFFFE000
03FFFFFFFFFFFFFFFFFFFFFFFFFFFFE000
07FFFFFFFFFFFFFFFFFFFFFFFFFFFFE000
07FFFFFFFFFFFFFFFFFFFFFFFFFFFFE000
0FFFFFFFFFFFFFFFFFFFFFFFFFFFFFE000
1FFFFFFFFFFFFFFFFFFFFFFFFFFFFFE000
1FFFFFFFFFFFFFFFFFFFFFFFFFFFFFE000
3FFFFFFFFFFFFFFFFFFFFFFFFFFFFFE000
3FFFFFFFFFFFFFFFFFFFFFFFFFFFFFE000
3FFFFFFF80000000000000000000000000
7FFFFFF800000000000000000000000000
7FFFFFE000000000000000000000000000
7FFFFFC000000000000000000000000000
7FFFFF8000000000000000000000000000
FFFFFF0000000000000000000000000000
FFFFFF0000000000000000000000000000
FFFFFE0000000000000000000000000000
FFFFFE0000000000000000000000000000
FFFFFC0000000000000000000000000000
FFFFFC0000000000000000000000000000
FFFFFC0000000000000000000000000000
FFFFFC0000000000000000000000000000
FFFFFC0000000000000000000000000000
FFFFFC0000000000000000000000000000
FFFFFC0000000000000000000000000000
FFFFFC0000000000000000000000000000
FFFFFC0000000000000000000000000000
FFFFFC0000000000000000000000000000
FFFFFC0000000000000000000000000000
FFFFFC0000000000000000000000000000
FFFFFE0000000000000000000000000000
7FFFFE0000000000000000000000000000
7FFFFF0000000000000000000000000000
7FFFFF0000000000000000000000000000
3FFFFF8000000000000000000000000000
3FFFFFC000000000000000000000000000
3FFFFFE000000000000000000000000000
1FFFFFF800000000000000000000000000
1FFFFFFF00000000000000000000000000
0FFFFFFFFFFFFFFFFFFFFFFFF000000000
0FFFFFFFFFFFFFFFFFFFFFFFFFC0000000
07FFFFFFFFFFFFFFFFFFFFFFFFF8000000
03FFFFFFFFFFFFFFFFFFFFFFFFFF000000
03FFFFFFFFFFFFFFFFFFFFFFFFFFC00000
01FFFFFFFFFFFFFFFFFFFFFFFFFFF00000
00FFFFFFFFFFFFFFFFFFFFFFFFFFF80000
007FFFFFFFFFFFFFFFFFFFFFFFFFFE0000
003FFFFFFFFFFFFFFFFFFFFFFFFFFF0000
001FFFFFFFFFFFFFFFFFFFFFFFFFFF8000
000FFFFFFFFFFFFFFFFFFFFFFFFFFFC000
0003FFFFFFFFFFFFFFFFFFFFFFFFFFE000
0001FFFFFFFFFFFFFFFFFFFFFFFFFFE000
00007FFFFFFFFFFFFFFFFFFFFFFFFFF000
00001FFFFFFFFFFFFFFFFFFFFFFFFFF800
000007FFFFFFFFFFFFFFFFFFFFFFFFF800
000000FFFFFFFFFFFFFFFFFFFFFFFFFC00
00000003FFFFFFFFFFFFFFFFFFFFFFFC00
0000000000000000000000007FFFFFFE00
00000000000000000000000007FFFFFE00
00000000000000000000000001FFFFFE00
00000000000000000000000000FFFFFF00
000000000000000000000000003FFFFF00
000000000000000000000000001FFFFF00
000000000000000000000000001FFFFF00
000000000000000000000000000FFFFF80
000000000000000000000000000FFFFF80
0000000000000000000000000007FFFF80
0000000000000000000000000007FFFF80
0000000000000000000000000007FFFF80
0000000000000000000000000007FFFF80
0000000000000000000000000007FFFF80
0000000000000000000000000003FFFF80
0000000000000000000000000003FFFF80
0000000000000000000000000007FFFF80
0000000000000000000000000007FFFF80
0000000000000000000000000007FFFF80
0000000000000000000000000007FFFF80
0000000000000000000000000007FFFF80
000000000000000000000000000FFFFF80
000000000000000000000000000FFFFF80
000000000000000000000000001FFFFF80
000000000000000000000000001FFFFF80
000000000000000000000000003FFFFF80
000000000000000000000000007FFFFF00
00000000000000000000000000FFFFFF00
00000000000000000000000003FFFFFF00
0000000000000000000000000FFFFFFF00
000000000000000000000000FFFFFFFE00
7FFFFFFFFFFFFFFFFFFFFFFFFFFFFFFE00
7FFFFFFFFFFFFFFFFFFFFFFFFFFFFFFC00
7FFFFFFFFFFFFFFFFFFFFFFFFFFFFFFC00
7FFFFFFFFFFFFFFFFFFFFFFFFFFFFFFC00
7FFFFFFFFFFFFFFFFFFFFFFFFFFFFFF800
7FFFFFFFFFFFFFFFFFFFFFFFFFFFFFF000
7FFFFFFFFFFFFFFFFFFFFFFFFFFFFFF000
7FFFFFFFFFFFFFFFFFFFFFFFFFFFFFE000
7FFFFFFFFFFFFFFFFFFFFFFFFFFFFFC000
7FFFFFFFFFFFFFFFFFFFFFFFFFFFFF8000
7FFFFFFFFFFFFFFFFFFFFFFFFFFFFF8000
7FFFFFFFFFFFFFFFFFFFFFFFFFFFFF0000
7FFFFFFFFFFFFFFFFFFFFFFFFFFFFC0000
7FFFFFFFFFFFFFFFFFFFFFFFFFFFF80000
7FFFFFFFFFFFFFFFFFFFFFFFFFFFF00000
7FFFFFFFFFFFFFFFFFFFFFFFFFFFC00000
7FFFFFFFFFFFFFFFFFFFFFFFFFFF800000
7FFFFFFFFFFFFFFFFFFFFFFFFFFE000000
7FFFFFFFFFFFFFFFFFFFFFFFFFF0000000
7FFFFFFFFFFFFFFFFFFFFFFFFF80000000
7FFFFFFFFFFFFFFFFFFFFFFFF000000000
ENDCHAR
STARTCHAR T
ENCODING 84
SWIDTH 720 0
DWIDTH 120 0
BBX 113 121 3 0
BITMAP
FFFFFFFFFFFFFFFFFFFFFFFFFFFF80
FFFFFFFFFFFFFFFFFFFFFFFFFFFF80
FFFFFFFFFFFFFFFFFFFFFFFFFFFF80
FFFFFFFFFFFFFFFFFFFFFFFFFFFF80
FFFFFFFFFFFFFFFFFFFFFFFFFFFF80
FFFFFFFFFFFFFFFFFFFFFFFFFFFF80
FFFFFFFFFFFFFFFFFFFFFFFFFFFF80
FFFFFFFFFFFFFFFFFFFFFFFFFFFF80
FFFFFFFFFFFFFFFFFFFFFFFFFFFF80
FFFFFFFFFFFFFFFFFFFFFFFFFFFF80
FFFFFFFFFFFFFFFFFFFFFFFFFFFF80
FFFFFFFFFFFFFFFFFFFFFFFFFFFF80
FFFFFFFFFFFFFFFFFFFFFFFFFFFF80
FFFFFFFFFFFFFFFFFFFFFFFFFFFF80
FFFFFFFFFFFFFFFFFFFFFFFFFFFF80
FFFFFFFFFFFFFFFFFFFFFFFFFFFF80
FFFFFFFFFFFFFFFFFFFFFFFFFFFF80
FFFFFFFFFFFFFFFFFFFFFFFFFFFF80
FFFFFFFFFFFFFFFFFFFFFFFFFFFF80
FFFFFFFFFFFFFFFFFFFFFFFFFFFF80
FFFFFFFFFFFFFFFFFFFFFFFFFFFF80
000000000003FFFFE0000000000000
000000000003FFFFE0000000000000
000000000003FFFFE0000000000000
000000000003FFFFE0000000000000
000000000003FFFFE0000000000000
000000000003FFFFE0000000000000
000000000003FFFFE0000000000000
000000000003FFFFE0000000000000
000000000003FFFFE0000000000000
000000000003FFFFE0000000000000
000000000003FFFFE0000000000000
000000000003FFFFE0000000000000
000000000003FFFFE0000000000000
000000000003FFFFE0000000000000
000000000003FFFFE0000000000000
000000000003FFFFE0000000000000
000000000003FFFFE0000000000000
000000000003FFFFE0000000000000
000000000003FFFFE0000000000000
000000000003FFFFE0000000000000
000000000003FFFFE0000000000000
000000000003FFFFE0000000000000
000000000003FFFFE0000000000000
000000000003FFFFE0000000000000
000000000003FFFFE0000000000000
000000000003FFFFE0000000000000
000000000003FFFFE0000000000000
000000000003FFFFE0000000000000
000000000003FFFFE0000000000000
000000000003FFFFE0000000000000
000000000003FFFFE0000000000000
000000000003FFFFE0000000000000
000000000003FFFFE0000000000000
000000000003FFFFE0000000000000
000000000003FFFFE0000000000000
000000000003FFFFE0000000000000
000000000003FFFFE0000000000000
000000000003FFFFE0000000000000
000000000003FFFFE0000000000000
000000000003FFFFE0000000000000
000000000003FFFFE0000000000000
000000000003FFFFE0000000000000
000000000003FFFFE0000000000000
000000000003FFFFE0000000000000
000000000003FFFFE0000000000000
000000000003FFFFE0000000000000
000000000003FFFFE0000000000000
000000000003FFFFE0000000000000
000000000003FFFFE0000000000000
000000000003FFFFE0000000000000
000000000003FFFFE0000000000000
000000000003FFFFE0000000000000
000000000003FFFFE0000000000000
000000000003FFFFE0000000000000
000000000003FFFFE0000000000000
000000000003FFFFE0000000000000
000000000003FFFFE0000000000000
000000000003FFFFE0000000000000
000000000003FFFFE0000000000000
000000000003FFFFE0000000000000
000000000003FFFFE0000000000000
000000000003FFFFE0000000000000
000000000003FFFFE0000000000000
000000000003FFFFE0000000000000
000000000003FFFFE0000000000000
000000000003FFFFE0000000000000
000000000003FFFFE0000000000000
000000000003FFFFE0000000000000
000000000003FFFFE0000000000000
000000000003FFFFE0000000000000
000000000003FFFFE0000000000000
000000000003FFFFE0000000000000
000000000003FFFFE0000000000000
000000000003FFFFE0000000000000
000000000003FFFFE0000000000000
000000000003FFFFE0000000000000
000000000003FFFFE0000000000000
000000000003FFFFE0000000000000
000000000003FFFFE0000000000000
000000000003FFFFE0000000000000
000000000003FFFFE0000000000000
000000000003FFFFE0000000000000
000000000003FFFFE0000000000000
000000000003FFFFE0000000000000
000000000003FFFFE0000000000000
000000000003FFFFE0000000000000
000000000003FFFFE0000000000000
000000000003FFFFE0000000000000
000000000003FFFFE0000000000000
000000000003FFFFE0000000000000
000000000003FFFFE0000000000000
000000000003FFFFE0000000000000
000000000003FFFFE0000000000000
000000000003FFFFE0000000000000
000000000003FFFFE0000000000000
000000000003FFFFE0000000000000
000000000003FFFFE0000000000000
000000000003FFFFE0000000000000
000000000003FFFFE0000000000000
000000000003FFFFE0000000000000
ENDCHAR
STARTCHAR U
ENCODING 85
SWIDTH 889 0
DWIDTH 148 0
BBX 130 123 9 -2
BITMAP
FFFFF80000000000000000000007FFFFC0
FFFFF80000000000000000000007FFFFC0
FFFFF80000000000000000000007FFFFC0
FFFFF80000000000000000000007FFFFC0
FFFFF80000000000000000000007FFFFC0
FFFFF80000000000000000000007FFFFC0
FFFFF80000000000000000000007FFFFC0
FFFFF80000000000000000000007FFFFC0
FFFFF80000000000000000000007FFFFC0
FFFFF80000000000000000000007FFFFC0
FFFFF80000000000000000000007FFFFC0
FFFFF80000000000000000000007FFFFC0
FFFFF80000000000000000000007FFFFC0
FFFFF80000000000000000000007FFFFC0
FFFFF80000000000000000000007FFFFC0
FFFFF80000000000000000000007FFFFC0
FFFFF80000000000000000000007FFFFC0
FFFFF80000000000000000000007FFFFC0
FFFFF80000000000000000000007FFFFC0
FFFFF80000000000000000000007FFFFC0
FFFFF80000000000000000000007FFFFC0
FFFFF80000000000000000000007FFFFC0
FFFFF80000000000000000000007FFFFC0
FFFFF80000000000000000000007FFFFC0
FFFFF80000000000000000000007FFFFC0
FFFFF80000000000000000000007FFFFC0
FFFFF80000000000000000000007FFFFC0
FFFFF80000000000000000000007FFFFC0
FFFFF80000000000000000000007FFFFC0
FFFFF80000000000000000000007FFFFC0
FFFFF80000000000000000000007FFFFC0
FFFFF80000000000000000000007FFFFC0
FFFFF80000000000000000000007FFFFC0
FFFFF80000000000000000000007FFFFC0
FFFFF80000000000000000000007FFFFC0
FFFFF80000000000000000000007FFFFC0
FFFFF80000000000000000000007FFFFC0
FFFFF80000000000000000000007FFFFC0
FFFFF80000000000000000000007FFFFC0
FFFFF80000000000000000000007FFFFC0
FFFFF80000000000000000000007FFFFC0
FFFFF80000000000000000000007FFFFC0
FFFFF80000000000000000000007FFFFC0
FFFFF80000000000000000000007FFFFC0
FFFFF80000000000000000000007FFFFC0
FFFFF80000000000000000000007FFFFC0
FFFFF80000000000000000000007FFFFC0
FFFFF80000000000000000000007FFFFC0
FFFFF80000000000000000000007FFFFC0
FFFFF80000000000000000000007FFFFC0
FFFFF80000000000000000000007FFFFC0
FFFFF80000000000000000000007FFFFC0
FFFFF80000000000000000000007FFFFC0
FFFFF80000000000000000000007FFFFC0
FFFFF80000000000000000000007FFFFC0
FFFFF80000000000000000000007FFFFC0
FFFFF80000000000000000000007FFFFC0
FFFFF80000000000000000000007FFFFC0
FFFFF80000000000000000000007FFFFC0
FFFFF80000000000000000000007FFFFC0
FFFFF80000000000000000000007FFFFC0
FFFFF80000000000000000000007FFFFC0
FFFFF80000000000000000000007FFFFC0
FFFFF80000000000000000000007FFFFC0
FFFFF80000000000000000000007FFFFC0
FFFFF80000000000000000000007FFFFC0
FFFFF80000000000000000000007FFFFC0
FFFFF80000000000000000000007FFFFC0
FFFFF80000000000000000000007FFFFC0
FFFFF80000000000000000000007FFFFC0
FFFFF80000000000000000000007FFFFC0
FFFFF80000000000000000000007FFFFC0
FFFFFC0000000000000000000007FFFFC0
FFFFFC0000000000000000000007FFFFC0
FFFFFC0000000000000000000007FFFFC0
FFFFFC0000000000000000000007FFFFC0
FFFFFC0000000000000000000007FFFFC0
FFFFFC0000000000000000000007FFFF80
FFFFFC000000000000000000000FFFFF80
FFFFFE000000000000000000000FFFFF80
FFFFFE000000000000000000000FFFFF80
7FFFFE000000000000000000000FFFFF80
7FFFFE000000000000000000001FFFFF80
7FFFFF000000000000000000001FFFFF80
7FFFFF000000000000000000001FFFFF00
7FFFFF800000000000000000003FFFFF00
3FFFFF800000000000000000003FFFFF00
3FFFFFC00000000000000000007FFFFF00
3FFFFFC00000000000000000007FFFFE00
3FFFFFE0000000000000000000FFFFFE00
1FFFFFF0000000000000000001FFFFFE00
1FFFFFF0000000000000000003FFFFFE00
1FFFFFF8000000000000000007FFFFFC00
0FFFFFFC00000000000000000FFFFFFC00
0FFFFFFF00000000000000001FFFFFF800
07FFFFFF80000000000000003FFFFFF800
07FFFFFFE000000000000000FFFFFFF800
07FFFFFFF800000000000003FFFFFFF000
03FFFFFFFE0000000000001FFFFFFFF000
01FFFFFFFFE00000000000FFFFFFFFE000
01FFFFFFFFFE000000000FFFFFFFFFC000
00FFFFFFFFFFFF00001FFFFFFFFFFFC000
00FFFFFFFFFFFFFFFFFFFFFFFFFFFF8000
007FFFFFFFFFFFFFFFFFFFFFFFFFFF0000
003FFFFFFFFFFFFFFFFFFFFFFFFFFF0000
001FFFFFFFFFFFFFFFFFFFFFFFFFFE0000
000FFFFFFFFFFFFFFFFFFFFFFFFFFC0000
0007FFFFFFFFFFFFFFFFFFFFFFFFF80000
0003FFFFFFFFFFFFFFFFFFFFFFFFF00000
0001FFFFFFFFFFFFFFFFFFFFFFFFE00000
0000FFFFFFFFFFFFFFFFFFFFFFFFC00000
00007FFFFFFFFFFFFFFFFFFFFFFF000000
00001FFFFFFFFFFFFFFFFFFFFFFE000000
00000FFFFFFFFFFFFFFFFFFFFFF8000000
000003FFFFFFFFFFFFFFFFFFFFF0000000
000000FFFFFFFFFFFFFFFFFFFFC0000000
0000003FFFFFFFFFFFFFFFFFFF00000000
0000000FFFFFFFFFFFFFFFFFF800000000
00000001FFFFFFFFFFFFFFFFC000000000
000000003FFFFFFFFFFFFFFE0000000000
0000000003FFFFFFFFFFFFE00000000000
00000000001FFFFFFFFFFC000000000000
0000000000000FFFFFF800000000000000
ENDCHAR
STARTCHAR V
ENCODING 86
SWIDTH 989 0
DWIDTH 164 0
BBX 160 123 2 -2
BITMAP
FFFFFFC000000000000000000000000001FFFFFF
7FFFFFE000000000000000000000000001FFFFFE
3FFFFFF000000000000000000000000003FFFFFC
3FFFFFF000000000000000000000000007FFFFFC
1FFFFFF800000000000000000000000007FFFFF8
0FFFFFF80000000000000000000000000FFFFFF0
0FFFFFFC0000000000000000000000000FFFFFF0
07FFFFFC0000000000000000000000001FFFFFE0
07FFFFFE0000000000000000000000003FFFFFE0
03FFFFFF0000000000000000000000003FFFFFC0
01FFFFFF0000000000000000000000007FFFFF80
01FFFFFF8000000000000000000000007FFFFF80
00FFFFFF800000000000000000000000FFFFFF00
00FFFFFFC00000000000000000000000FFFFFF00
007FFFFFE00000000000000000000001FFFFFE00
003FFFFFE00000000000000000000003FFFFFC00
003FFFFFF00000000000000000000003FFFFFC00
001FFFFFF00000000000000000000007FFFFF800
001FFFFFF80000000000000000000007FFFFF800
000FFFFFF8000000000000000000000FFFFFF000
0007FFFFFC000000000000000000001FFFFFE000
0007FFFFFE000000000000000000001FFFFFE000
0003FFFFFE000000000000000000003FFFFFC000
0003FFFFFF000000000000000000003FFFFFC000
0001FFFFFF000000000000000000007FFFFF8000
0000FFFFFF800000000000000000007FFFFF0000
0000FFFFFFC0000000000000000000FFFFFF0000
00007FFFFFC0000000000000000001FFFFFE0000
00007FFFFFE0000000000000000001FFFFFE0000
00003FFFFFE0000000000000000003FFFFFC0000
00001FFFFFF0000000000000000003FFFFF80000
00001FFFFFF8000000000000000007FFFFF80000
00000FFFFFF800000000000000000FFFFFF00000
00000FFFFFFC00000000000000000FFFFFF00000
000007FFFFFC00000000000000001FFFFFE00000
000003FFFFFE00000000000000001FFFFFC00000
000003FFFFFE00000000000000003FFFFFC00000
000001FFFFFF00000000000000003FFFFF800000
000001FFFFFF80000000000000007FFFFF800000
000000FFFFFF8000000000000000FFFFFF000000
0000007FFFFFC000000000000000FFFFFE000000
0000007FFFFFC000000000000001FFFFFE000000
0000003FFFFFE000000000000001FFFFFC000000
0000003FFFFFF000000000000003FFFFFC000000
0000001FFFFFF000000000000007FFFFF8000000
0000000FFFFFF800000000000007FFFFF0000000
0000000FFFFFF80000000000000FFFFFF0000000
00000007FFFFFC0000000000000FFFFFE0000000
00000007FFFFFC0000000000001FFFFFE0000000
00000003FFFFFE0000000000001FFFFFC0000000
00000001FFFFFF0000000000003FFFFF80000000
00000001FFFFFF0000000000007FFFFF80000000
00000000FFFFFF8000000000007FFFFF00000000
00000000FFFFFF800000000000FFFFFF00000000
000000007FFFFFC00000000000FFFFFE00000000
000000003FFFFFE00000000001FFFFFC00000000
000000003FFFFFE00000000003FFFFFC00000000
000000001FFFFFF00000000003FFFFF800000000
000000001FFFFFF00000000007FFFFF800000000
000000000FFFFFF80000000007FFFFF000000000
0000000007FFFFF8000000000FFFFFE000000000
0000000007FFFFFC000000000FFFFFE000000000
0000000003FFFFFE000000001FFFFFC000000000
0000000003FFFFFE000000003FFFFFC000000000
0000000001FFFFFF000000003FFFFF8000000000
0000000000FFFFFF000000007FFFFF0000000000
0000000000FFFFFF800000007FFFFF0000000000
00000000007FFFFFC0000000FFFFFE0000000000
00000000007FFFFFC0000001FFFFFE0000000000
00000000003FFFFFE0000001FFFFFC0000000000
00000000001FFFFFE0000003FFFFF80000000000
00000000001FFFFFF0000003FFFFF80000000000
00000000000FFFFFF8000007FFFFF00000000000
00000000000FFFFFF8000007FFFFF00000000000
000000000007FFFFFC00000FFFFFE00000000000
000000000003FFFFFC00001FFFFFC00000000000
000000000003FFFFFE00001FFFFFC00000000000
000000000001FFFFFE00003FFFFF800000000000
000000000001FFFFFF00003FFFFF800000000000
000000000000FFFFFF80007FFFFF000000000000
0000000000007FFFFF8000FFFFFE000000000000
0000000000007FFFFFC000FFFFFE000000000000
0000000000003FFFFFC001FFFFFC000000000000
0000000000003FFFFFE001FFFFF8000000000000
0000000000001FFFFFF003FFFFF8000000000000
0000000000000FFFFFF003FFFFF0000000000000
0000000000000FFFFFF807FFFFF0000000000000
00000000000007FFFFF80FFFFFE0000000000000
00000000000007FFFFFC0FFFFFC0000000000000
00000000000003FFFFFC1FFFFFC0000000000000
00000000000001FFFFFE1FFFFF80000000000000
00000000000001FFFFFF3FFFFF80000000000000
00000000000000FFFFFF7FFFFF00000000000000
00000000000000FFFFFFFFFFFE00000000000000
000000000000007FFFFFFFFFFE00000000000000
000000000000003FFFFFFFFFFC00000000000000
000000000000003FFFFFFFFFFC00000000000000
000000000000001FFFFFFFFFF800000000000000
000000000000001FFFFFFFFFF000000000000000
000000000000000FFFFFFFFFF000000000000000
0000000000000007FFFFFFFFE000000000000000
0000000000000007FFFFFFFFE000000000000000
0000000000000003FFFFFFFFC000000000000000
0000000000000003FFFFFFFF8000000000000000
0000000000000001FFFFFFFF8000000000000000
0000000000000000FFFFFFFF0000000000000000
0000000000000000FFFFFFFF0000000000000000
00000000000000007FFFFFFE0000000000000000
00000000000000007FFFFFFC0000000000000000
00000000000000003FFFFFFC0000000000000000
00000000000000001FFFFFF80000000000000000
00000000000000001FFFFFF80000000000000000
00000000000000000FFFFFF00000000000000000
00000000000000000FFFFFE00000000000000000
000000000000000007FFFFE00000000000000000
000000000000000003FFFFC00000000000000000
000000000000000003FFFFC00000000000000000
000000000000000001FFFF800000000000000000
000000000000000000FFFF000000000000000000
0000000000000000007FFE000000000000000000
0000000000000000003FFC000000000000000000
0000000000000000001FF8000000000000000000
0000000000000000000100000000000000000000
ENDCHAR
STARTCHAR W
ENCODING 87
SWIDTH 1268 0
DWIDTH 210 0
BBX 206 123 2 -2
BITMAP
FFFFFFC000000007FFFFFE000000000000000000000003FFFFFC
7FFFFFC000000003FFFFFE000000000000000000000003FFFFF8
3FFFFFE000000001FFFFFF000000000000000000000007FFFFF8
3FFFFFE000000001FFFFFF000000000000000000000007FFFFF0
1FFFFFF000000000FFFFFF80000000000000000000000FFFFFF0
1FFFFFF000000000FFFFFF80000000000000000000000FFFFFE0
0FFFFFF8000000007FFFFFC0000000000000000000001FFFFFE0
0FFFFFF8000000007FFFFFC0000000000000000000003FFFFFC0
07FFFFFC000000003FFFFFE0000000000000000000003FFFFF80
07FFFFFE000000003FFFFFE0000000000000000000007FFFFF80
03FFFFFE000000001FFFFFF0000000000000000000007FFFFF00
01FFFFFF000000001FFFFFF000000000000000000000FFFFFF00
01FFFFFF000000000FFFFFF800000000000000000000FFFFFE00
00FFFFFF800000000FFFFFF800000000000000000001FFFFFE00
00FFFFFF8000000007FFFFFC00000000000000000001FFFFFC00
007FFFFFC000000007FFFFFC00000000000000000003FFFFFC00
007FFFFFC000000003FFFFFE00000000000000000003FFFFF800
003FFFFFE000000003FFFFFE00000000000000000007FFFFF800
003FFFFFE000000001FFFFFF00000000000000000007FFFFF000
001FFFFFF000000001FFFFFF0000000000000000000FFFFFF000
001FFFFFF000000000FFFFFF8000000000000000000FFFFFE000
000FFFFFF800000000FFFFFF8000000000000000001FFFFFC000
000FFFFFF8000000007FFFFFC000000000000000001FFFFFC000
0007FFFFFC000000007FFFFFC000000000000000003FFFFF8000
0007FFFFFC000000003FFFFFE000000000000000003FFFFF8000
0003FFFFFE000000003FFFFFE000000000000000007FFFFF0000
0001FFFFFE000000001FFFFFF00000000000000000FFFFFF0000
0001FFFFFF000000000FFFFFF00000000000000000FFFFFE0000
0000FFFFFF000000000FFFFFF80000000000000001FFFFFE0000
0000FFFFFF8000000007FFFFF80000000000000001FFFFFC0000
00007FFFFFC000000007FFFFFC0000000000000003FFFFFC0000
00007FFFFFC000000003FFFFFC0000000000000003FFFFF80000
00003FFFFFE000000003FFFFFE0000000000000007FFFFF80000
00003FFFFFE000000001FFFFFE0000000000000007FFFFF00000
00001FFFFFF000000001FFFFFF000000000000000FFFFFF00000
00001FFFFFF000000000FFFFFF000000000000000FFFFFE00000
00000FFFFFF800000000FFFFFF800000000000001FFFFFC00000
00000FFFFFF8000000007FFFFF800000000000001FFFFFC00000
000007FFFFFC000000007FFFFFC00000000000003FFFFF800000
000003FFFFFC000000003FFFFFC00000000000003FFFFF800000
000003FFFFFE000000003FFFFFE00000000000007FFFFF000000
000001FFFFFE000000001FFFFFE00000000000007FFFFF000000
000001FFFFFF000000001FFFFFF0000000000000FFFFFE000000
000000FFFFFF000000000FFFFFF0000000000000FFFFFE000000
000000FFFFFF800000000FFFFFF8000000000001FFFFFC000000
0000007FFFFF8000000007FFFFF8000000000003FFFFFC000000
0000007FFFFFC000000007FFFFFC000000000003FFFFF8000000
0000003FFFFFC000000003FFFFFC000000000007FFFFF8000000
0000003FFFFFE000000003FFFFFE000000000007FFFFF0000000
0000001FFFFFE000000001FFFFFE00000000000FFFFFE0000000
0000001FFFFFF000000001FFFFFF00000000000FFFFFE0000000
0000000FFFFFF000000000FFFFFF00000000001FFFFFC0000000
0000000FFFFFF800000000FFFFFF80000000001FFFFFC0000000
00000007FFFFFC000000007FFFFF80000000003FFFFF80000000
00000003FFFFFC000000003FFFFFC0000000003FFFFF80000000
00000003FFFFFE000000003FFFFFC0000000007FFFFF00000000
00000001FFFFFE000000001FFFFFE0000000007FFFFF00000000
00000001FFFFFF000000001FFFFFE000000000FFFFFE00000000
00000000FFFFFF000000000FFFFFF000000000FFFFFE00000000
00000000FFFFFF800000000FFFFFF000000001FFFFFC00000000
000000007FFFFF8000000007FFFFF800000001FFFFFC00000000
000000007FFFFFC00000000FFFFFF800000003FFFFF800000000
000000003FFFFFC00000001FFFFFFC00000003FFFFF000000000
000000003FFFFFE00000001FFFFFFC00000007FFFFF000000000
000000001FFFFFE00000003FFFFFFE0000000FFFFFE000000000
000000001FFFFFF00000003FFFFFFE0000000FFFFFE000000000
000000000FFFFFF00000007FFFFFFF0000001FFFFFC000000000
0000000007FFFFF80000007FFFFFFF0000001FFFFFC000000000
0000000007FFFFF8000000FFFFFFFF8000003FFFFF8000000000
0000000003FFFFFC000000FFFFFFFF8000003FFFFF8000000000
0000000003FFFFFC000001FFFFFFFFC000007FFFFF0000000000
0000000001FFFFFE000003FFFFFFFFC000007FFFFF0000000000
0000000001FFFFFE000003FFFFFFFFE00000FFFFFE0000000000
0000000000FFFFFF000007FFFFFFFFE00000FFFFFE0000000000
0000000000FFFFFF000007FFFFFFFFF00001FFFFFC0000000000
00000000007FFFFF80000FFFFFFFFFF00001FFFFFC0000000000
00000000007FFFFFC0000FFFFFFFFFF80003FFFFF80000000000
00000000003FFFFFC0001FFFFFFFFFF80003FFFFF00000000000
00000000003FFFFFE0001FFFFFFFFFFC0007FFFFF00000000000
00000000001FFFFFE0003FFFFFFFFFFC0007FFFFE00000000000
00000000000FFFFFF0007FFFFFFFFFFE000FFFFFE00000000000
00000000000FFFFFF0007FFFFEFFFFFE000FFFFFC00000000000
000000000007FFFFF800FFFFFCFFFFFF001FFFFFC00000000000
000000000007FFFFF800FFFFFC7FFFFF003FFFFF800000000000
000000000003FFFFFC01FFFFF87FFFFF803FFFFF800000000000
000000000003FFFFFC01FFFFF83FFFFF807FFFFF000000000000
000000000001FFFFFE03FFFFF03FFFFFC07FFFFF000000000000
000000000001FFFFFE03FFFFF01FFFFFC0FFFFFE000000000000
000000000000FFFFFF07FFFFE01FFFFFE0FFFFFE000000000000
000000000000FFFFFF07FFFFE00FFFFFE1FFFFFC000000000000
0000000000007FFFFF8FFFFFC00FFFFFF1FFFFF8000000000000
0000000000007FFFFF9FFFFFC007FFFFF3FFFFF8000000000000
0000000000003FFFFFDFFFFF8007FFFFFBFFFFF0000000000000
0000000000003FFFFFFFFFFF8003FFFFFFFFFFF0000000000000
0000000000001FFFFFFFFFFF0003FFFFFFFFFFE0000000000000
0000000000000FFFFFFFFFFF0001FFFFFFFFFFE0000000000000
0000000000000FFFFFFFFFFE0001FFFFFFFFFFC0000000000000
00000000000007FFFFFFFFFC0000FFFFFFFFFFC0000000000000
00000000000007FFFFFFFFFC0000FFFFFFFFFF80000000000000
00000000000003FFFFFFFFF800007FFFFFFFFF80000000000000
00000000000003FFFFFFFFF800003FFFFFFFFF00000000000000
00000000000001FFFFFFFFF000003FFFFFFFFF00000000000000
00000000000001FFFFFFFFF000001FFFFFFFFE00000000000000
00000000000000FFFFFFFFE000001FFFFFFFFC00000000000000
00000000000000FFFFFFFFE000000FFFFFFFFC00000000000000
000000000000007FFFFFFFC000000FFFFFFFF800000000000000
000000000000007FFFFFFFC0000007FFFFFFF800000000000000
000000000000003FFFFFFF80000007FFFFFFF000000000000000
000000000000001FFFFFFF80000003FFFFFFF000000000000000
000000000000001FFFFFFF00000003FFFFFFE000000000000000
000000000000000FFFFFFF00000001FFFFFFE000000000000000
000000000000000FFFFFFE00000001FFFFFFC000000000000000
0000000000000007FFFFFE00000000FFFFFFC000000000000000
0000000000000007FFFFFC00000000FFFFFF8000000000000000
0000000000000003FFFFF8000000007FFFFF8000000000000000
0000000000000003FFFFF8000000007FFFFF0000000000000000
0000000000000001FFFFF0000000003FFFFE0000000000000000
0000000000000001FFFFF0000000003FFFFE0000000000000000
0000000000000000FFFFE0000000001FFFFC0000000000000000
00000000000000007FFFC0000000000FFFF80000000000000000
00000000000000003FFF800000000007FFF00000000000000000
00000000000000000FFF000000000001FFE00000000000000000
000000000000000003F80000000000007F000000000000000000
ENDCHAR
STARTCHAR X
ENCODING 88
SWIDTH 1000 0
DWIDTH 166 0
BBX 157 121 4 0
BITMAP
0FFFFFFFC0000000000000000000000FFFFFFF00
03FFFFFFE0000000000000000000001FFFFFFE00
01FFFFFFF0000000000000000000003FFFFFF800
00FFFFFFF8000000000000000000007FFFFFF000
007FFFFFFC00000000000000000000FFFFFFE000
003FFFFFFE00000000000000000001FFFFFFC000
001FFFFFFF00000000000000000003FFFFFF8000
000FFFFFFF80000000000000000007FFFFFF0000
0007FFFFFFC000000000000000000FFFFFFE0000
0003FFFFFFE000000000000000001FFFFFFC0000
0001FFFFFFF000000000000000003FFFFFF80000
0000FFFFFFF800000000000000007FFFFFF00000
00007FFFFFFC0000000000000000FFFFFFE00000
00003FFFFFFE0000000000000001FFFFFFC00000
00001FFFFFFF0000000000000003FFFFFF800000
00000FFFFFFF8000000000000007FFFFFF000000
000007FFFFFFC00000000000000FFFFFFE000000
000003FFFFFFE00000000000001FFFFFFC000000
000001FFFFFFF00000000000003FFFFFF8000000
000000FFFFFFF80000000000007FFFFFF0000000
0000007FFFFFFC000000000000FFFFFFE0000000
0000001FFFFFFE000000000001FFFFFFC0000000
0000000FFFFFFF000000000003FFFFFF80000000
00000007FFFFFF800000000007FFFFFF00000000
00000003FFFFFFE0000000000FFFFFFE00000000
00000001FFFFFFF0000000001FFFFFFC00000000
00000000FFFFFFF8000000003FFFFFF800000000
000000007FFFFFFC000000007FFFFFF000000000
000000003FFFFFFE00000000FFFFFFE000000000
000000001FFFFFFF00000001FFFFFFC000000000
000000000FFFFFFF80000003FFFFFF8000000000
0000000007FFFFFFC0000007FFFFFE0000000000
0000000003FFFFFFE000000FFFFFFC0000000000
0000000001FFFFFFF000001FFFFFF80000000000
0000000000FFFFFFF800003FFFFFF00000000000
00000000007FFFFFFC00007FFFFFE00000000000
00000000003FFFFFFE0000FFFFFFC00000000000
00000000001FFFFFFF0001FFFFFF800000000000
00000000000FFFFFFF8003FFFFFF000000000000
000000000007FFFFFFC007FFFFFE000000000000
000000000003FFFFFFE00FFFFFFC000000000000
000000000001FFFFFFF01FFFFFF8000000000000
000000000000FFFFFFF83FFFFFF0000000000000
0000000000007FFFFFFC7FFFFFE0000000000000
0000000000003FFFFFFEFFFFFFC0000000000000
0000000000001FFFFFFFFFFFFF80000000000000
0000000000000FFFFFFFFFFFFF00000000000000
00000000000007FFFFFFFFFFFE00000000000000
00000000000003FFFFFFFFFFFC00000000000000
00000000000000FFFFFFFFFFF800000000000000
000000000000007FFFFFFFFFF000000000000000
000000000000003FFFFFFFFFE000000000000000
000000000000001FFFFFFFFFC000000000000000
000000000000000FFFFFFFFF8000000000000000
0000000000000007FFFFFFFF0000000000000000
0000000000000003FFFFFFFE0000000000000000
0000000000000001FFFFFFFC0000000000000000
0000000000000000FFFFFFF80000000000000000
0000000000000000FFFFFFF00000000000000000
0000000000000001FFFFFFF80000000000000000
0000000000000003FFFFFFFC0000000000000000
0000000000000007FFFFFFFF0000000000000000
000000000000000FFFFFFFFF8000000000000000
000000000000001FFFFFFFFFC000000000000000
000000000000003FFFFFFFFFE000000000000000
000000000000007FFFFFFFFFF000000000000000
00000000000000FFFFFFFFFFF800000000000000
00000000000001FFFFFFFFFFFC00000000000000
00000000000003FFFFFFFFFFFE00000000000000
00000000000007FFFFFFFFFFFF00000000000000
0000000000000FFFFFFFFFFFFF80000000000000
0000000000001FFFFFFFFFFFFFC0000000000000
0000000000003FFFFFF3FFFFFFE0000000000000
0000000000007FFFFFE1FFFFFFF0000000000000
000000000001FFFFFFC0FFFFFFF8000000000000
000000000003FFFFFF807FFFFFFC000000000000
000000000007FFFFFF003FFFFFFE000000000000
00000000000FFFFFFE001FFFFFFF000000000000
00000000001FFFFFFC000FFFFFFF800000000000
00000000003FFFFFF80007FFFFFFC00000000000
00000000007FFFFFF00003FFFFFFE00000000000
0000000000FFFFFFE00001FFFFFFF00000000000
0000000001FFFFFFC00000FFFFFFF80000000000
0000000003FFFFFF8000007FFFFFFC0000000000
0000000007FFFFFF0000003FFFFFFE0000000000
000000000FFFFFFE0000001FFFFFFF0000000000
000000001FFFFFFC0000000FFFFFFF8000000000
000000003FFFFFF800000007FFFFFFE000000000
000000007FFFFFF000000003FFFFFFF000000000
00000000FFFFFFE000000000FFFFFFF800000000
00000001FFFFFFC0000000007FFFFFFC00000000
00000003FFFFFF80000000003FFFFFFE00000000
00000007FFFFFF00000000001FFFFFFF00000000
0000000FFFFFFE00000000000FFFFFFF80000000
0000001FFFFFFC000000000007FFFFFFC0000000
0000003FFFFFF8000000000003FFFFFFE0000000
0000007FFFFFF0000000000001FFFFFFF0000000
000000FFFFFFE0000000000000FFFFFFF8000000
000001FFFFFFC00000000000007FFFFFFC000000
000003FFFFFF800000000000003FFFFFFE000000
000007FFFFFF000000000000001FFFFFFF000000
00000FFFFFFE000000000000000FFFFFFF800000
00001FFFFFFC0000000000000007FFFFFFC00000
00003FFFFFF80000000000000003FFFFFFE00000
00007FFFFFF00000000000000001FFFFFFF00000
0000FFFFFFE00000000000000000FFFFFFF80000
0001FFFFFFC000000000000000007FFFFFFC0000
0003FFFFFF8000000000000000003FFFFFFE0000
0007FFFFFF0000000000000000001FFFFFFF0000
001FFFFFFE0000000000000000000FFFFFFF8000
003FFFFFFC00000000000000000007FFFFFFC000
007FFFFFF800000000000000000003FFFFFFE000
00FFFFFFF000000000000000000001FFFFFFF800
01FFFFFFE000000000000000000000FFFFFFFC00
03FFFFFFC0000000000000000000007FFFFFFE00
07FFFFFF80000000000000000000003FFFFFFF00
0FFFFFFF00000000000000000000001FFFFFFF80
1FFFFFFE00000000000000000000000FFFFFFFC0
3FFFFFFC000000000000000000000007FFFFFFE0
7FFFFFF8000000000000000000000003FFFFFFF0
FFFFFFF0000000000000000000000001FFFFFFF8
ENDCHAR
STARTCHAR Y
ENCODING 89
SWIDTH 926 0
DWIDTH 154 0
BBX 150 121 2 0
BITMAP
FFFFFFF800000000000000000000003FFFFFFC
7FFFFFFC00000000000000000000007FFFFFF0
3FFFFFFE00000000000000000000007FFFFFE0
1FFFFFFE0000000000000000000000FFFFFFE0
0FFFFFFF0000000000000000000001FFFFFFC0
07FFFFFF8000000000000000000003FFFFFF80
03FFFFFFC000000000000000000007FFFFFF00
01FFFFFFE00000000000000000000FFFFFFE00
01FFFFFFF00000000000000000001FFFFFFC00
00FFFFFFF80000000000000000001FFFFFF800
007FFFFFF80000000000000000003FFFFFF800
003FFFFFFC0000000000000000007FFFFFF000
001FFFFFFE000000000000000000FFFFFFE000
000FFFFFFF000000000000000001FFFFFFC000
0007FFFFFF800000000000000003FFFFFF8000
0007FFFFFFC00000000000000003FFFFFF0000
0003FFFFFFC00000000000000007FFFFFE0000
0001FFFFFFE0000000000000000FFFFFFE0000
0000FFFFFFF0000000000000001FFFFFFC0000
00007FFFFFF8000000000000003FFFFFF80000
00003FFFFFFC000000000000007FFFFFF00000
00003FFFFFFE00000000000000FFFFFFE00000
00001FFFFFFF00000000000000FFFFFFC00000
00000FFFFFFF00000000000001FFFFFF800000
000007FFFFFF80000000000003FFFFFF800000
000003FFFFFFC0000000000007FFFFFF000000
000001FFFFFFE000000000000FFFFFFE000000
000000FFFFFFF000000000001FFFFFFC000000
000000FFFFFFF800000000001FFFFFF8000000
0000007FFFFFF800000000003FFFFFF0000000
0000003FFFFFFC00000000007FFFFFE0000000
0000001FFFFFFE0000000000FFFFFFE0000000
0000000FFFFFFF0000000001FFFFFFC0000000
00000007FFFFFF8000000003FFFFFF80000000
00000003FFFFFFC000000007FFFFFF00000000
00000003FFFFFFC000000007FFFFFE00000000
00000001FFFFFFE00000000FFFFFFC00000000
00000000FFFFFFF00000001FFFFFF800000000
000000007FFFFFF80000003FFFFFF800000000
000000003FFFFFFC0000007FFFFFF000000000
000000001FFFFFFE000000FFFFFFE000000000
000000000FFFFFFF000000FFFFFFC000000000
000000000FFFFFFF000001FFFFFF8000000000
0000000007FFFFFF800003FFFFFF0000000000
0000000003FFFFFFC00007FFFFFF0000000000
0000000001FFFFFFE0000FFFFFFE0000000000
0000000000FFFFFFF0001FFFFFFC0000000000
00000000007FFFFFF8003FFFFFF80000000000
00000000003FFFFFF8003FFFFFF00000000000
00000000003FFFFFFC007FFFFFE00000000000
00000000001FFFFFFE00FFFFFFC00000000000
00000000000FFFFFFF01FFFFFFC00000000000
000000000007FFFFFF83FFFFFF800000000000
000000000003FFFFFFC7FFFFFF000000000000
000000000001FFFFFFC7FFFFFE000000000000
000000000000FFFFFFEFFFFFFC000000000000
000000000000FFFFFFFFFFFFF8000000000000
0000000000007FFFFFFFFFFFF0000000000000
0000000000003FFFFFFFFFFFF0000000000000
0000000000001FFFFFFFFFFFE0000000000000
0000000000000FFFFFFFFFFFC0000000000000
00000000000007FFFFFFFFFF80000000000000
00000000000007FFFFFFFFFF00000000000000
00000000000003FFFFFFFFFE00000000000000
00000000000001FFFFFFFFFC00000000000000
00000000000000FFFFFFFFFC00000000000000
000000000000007FFFFFFFF800000000000000
000000000000003FFFFFFFF000000000000000
000000000000001FFFFFFFE000000000000000
000000000000001FFFFFFFC000000000000000
000000000000000FFFFFFF8000000000000000
0000000000000007FFFFFF0000000000000000
0000000000000003FFFFFF0000000000000000
0000000000000001FFFFFE0000000000000000
0000000000000000FFFFFC0000000000000000
0000000000000000FFFFF80000000000000000
0000000000000000FFFFF80000000000000000
0000000000000000FFFFF80000000000000000
0000000000000000FFFFF80000000000000000
0000000000000000FFFFF80000000000000000
0000000000000000FFFFF80000000000000000
0000000000000000FFFFF80000000000000000
0000000000000000FFFFF80000000000000000
0000000000000000FFFFF80000000000000000
0000000000000000FFFFF80000000000000000
0000000000000000FFFFF80000000000000000
0000000000000000FFFFF80000000000000000
0000000000000000FFFFF80000000000000000
0000000000000000FFFFF80000000000000000
0000000000000000FFFFF80000000000000000
0000000000000000FFFFF80000000000000000
0000000000000000FFFFF80000000000000000
0000000000000000FFFFF80000000000000000
0000000000000000FFFFF80000000000000000
0000000000000000FFFFF80000000000000000
0000000000000000FFFFF80000000000000000
0000000000000000FFFFF80000000000000000
0000000000000000FFFFF80000000000000000
0000000000000000FFFFF80000000000000000
0000000000000000FFFFF80000000000000000
0000000000000000FFFFF80000000000000000
0000000000000000FFFFF80000000000000000
0000000000000000FFFFF80000000000000000
0000000000000000FFFFF80000000000000000
0000000000000000FFFFF80000000000000000
0000000000000000FFFFF80000000000000000
0000000000000000FFFFF80000000000000000
0000000000000000FFFFF80000000000000000
0000000000000000FFFFF80000000000000000
0000000000000000FFFFF80000000000000000
0000000000000000FFFFF80000000000000000
0000000000000000FFFFF80000000000000000
0000000000000000FFFFF80000000000000000
0000000000000000FFFFF80000000000000000
0000000000000000FFFFF80000000000000000
0000000000000000FFFFF80000000000000000
0000000000000000FFFFF80000000000000000
0000000000000000FFFFF80000000000000000
0000000000000000FFFFF80000000000000000
0000000000000000FFFFF80000000000000000
0000000000000000FFFFF80000000000000000
ENDCHAR
STARTCHAR Z
ENCODING 90
SWIDTH 802 0
DWIDTH 133 0
BBX 119 121 7 0
BITMAP
7FFFFFFFFFFFFFFFFFFFFFFFFFFC00
7FFFFFFFFFFFFFFFFFFFFFFFFFFF80
7FFFFFFFFFFFFFFFFFFFFFFFFFFFE0
7FFFFFFFFFFFFFFFFFFFFFFFFFFFF0
7FFFFFFFFFFFFFFFFFFFFFFFFFFFF8
7FFFFFFFFFFFFFFFFFFFFFFFFFFFF8
7FFFFFFFFFFFFFFFFFFFFFFFFFFFFC
7FFFFFFFFFFFFFFFFFFFFFFFFFFFFC
7FFFFFFFFFFFFFFFFFFFFFFFFFFFFC
7FFFFFFFFFFFFFFFFFFFFFFFFFFFFE
7FFFFFFFFFFFFFFFFFFFFFFFFFFFFE
7FFFFFFFFFFFFFFFFFFFFFFFFFFFFE
7FFFFFFFFFFFFFFFFFFFFFFFFFFFFE
7FFFFFFFFFFFFFFFFFFFFFFFFFFFFC
7FFFFFFFFFFFFFFFFFFFFFFFFFFFFC
7FFFFFFFFFFFFFFFFFFFFFFFFFFFFC
7FFFFFFFFFFFFFFFFFFFFFFFFFFFF8
7FFFFFFFFFFFFFFFFFFFFFFFFFFFF0
7FFFFFFFFFFFFFFFFFFFFFFFFFFFF0
7FFFFFFFFFFFFFFFFFFFFFFFFFFFE0
000000000000000000000FFFFFFFC0
000000000000000000001FFFFFFF80
000000000000000000003FFFFFFF00
000000000000000000007FFFFFFE00
00000000000000000000FFFFFFFC00
00000000000000000001FFFFFFF800
00000000000000000003FFFFFFF000
00000000000000000007FFFFFFE000
0000000000000000000FFFFFFFC000
0000000000000000001FFFFFFF8000
0000000000000000003FFFFFFF0000
0000000000000000007FFFFFFE0000
000000000000000000FFFFFFFC0000
000000000000000001FFFFFFF80000
000000000000000003FFFFFFF00000
000000000000000007FFFFFFE00000
00000000000000000FFFFFFFC00000
00000000000000001FFFFFFF800000
00000000000000003FFFFFFF000000
00000000000000007FFFFFFE000000
0000000000000000FFFFFFFC000000
0000000000000001FFFFFFF8000000
0000000000000003FFFFFFF0000000
0000000000000007FFFFFFE0000000
000000000000000FFFFFFFC0000000
000000000000001FFFFFFF80000000
000000000000003FFFFFFF00000000
000000000000007FFFFFFE00000000
00000000000000FFFFFFFC00000000
00000000000001FFFFFFF800000000
00000000000003FFFFFFF000000000
00000000000007FFFFFFE000000000
0000000000000FFFFFFFC000000000
0000000000001FFFFFFF8000000000
0000000000003FFFFFFF0000000000
0000000000007FFFFFFE0000000000
000000000000FFFFFFFC0000000000
000000000001FFFFFFF80000000000
000000000003FFFFFFF00000000000
000000000007FFFFFFE00000000000
00000000000FFFFFFFC00000000000
00000000001FFFFFFF800000000000
00000000003FFFFFFF000000000000
00000000007FFFFFFE000000000000
0000000000FFFFFFFC000000000000
0000000001FFFFFFF8000000000000
0000000003FFFFFFF0000000000000
0000000007FFFFFFE0000000000000
000000000FFFFFFFC0000000000000
000000001FFFFFFF80000000000000
000000003FFFFFFF00000000000000
000000007FFFFFFE00000000000000
00000000FFFFFFFC00000000000000
00000001FFFFFFF800000000000000
00000003FFFFFFF000000000000000
00000007FFFFFFE000000000000000
0000000FFFFFFFC000000000000000
0000001FFFFFFF8000000000000000
0000003FFFFFFF0000000000000000
0000007FFFFFFE0000000000000000
000000FFFFFFFC0000000000000000
000001FFFFFFF80000000000000000
000003FFFFFFF00000000000000000
000007FFFFFFE00000000000000000
00000FFFFFFFC00000000000000000
00001FFFFFFFC00000000000000000
00003FFFFFFF800000000000000000
00007FFFFFFF000000000000000000
0000FFFFFFFE000000000000000000
0001FFFFFFFC000000000000000000
0003FFFFFFF8000000000000000000
0007FFFFFFF0000000000000000000
000FFFFFFFE0000000000000000000
000FFFFFFFC0000000000000000000
001FFFFFFF80000000000000000000
003FFFFFFF00000000000000000000
007FFFFFFE00000000000000000000
00FFFFFFFC00000000000000000000
01FFFFFFF800000000000000000000
03FFFFFFF000000000000000000000
07FFFFFFE000000000000000000000
0FFFFFFFFFFFFFFFFFFFFFFFFFFFFC
1FFFFFFFFFFFFFFFFFFFFFFFFFFFFC
3FFFFFFFFFFFFFFFFFFFFFFFFFFFFC
7FFFFFFFFFFFFFFFFFFFFFFFFFFFFC
7FFFFFFFFFFFFFFFFFFFFFFFFFFFFC
FFFFFFFFFFFFFFFFFFFFFFFFFFFFFC
FFFFFFFFFFFFFFFFFFFFFFFFFFFFFC
FFFFFFFFFFFFFFFFFFFFFFFFFFFFFC
FFFFFFFFFFFFFFFFFFFFFFFFFFFFFC
FFFFFFFFFFFFFFFFFFFFFFFFFFFFFC
FFFFFFFFFFFFFFFFFFFFFFFFFFFFFC
FFFFFFFFFFFFFFFFFFFFFFFFFFFFFC
FFFFFFFFFFFFFFFFFFFFFFFFFFFFFC
FFFFFFFFFFFFFFFFFFFFFFFFFFFFFC
7FFFFFFFFFFFFFFFFFFFFFFFFFFFFC
7FFFFFFFFFFFFFFFFFFFFFFFFFFFFC
3FFFFFFFFFFFFFFFFFFFFFFFFFFFFC
0FFFFFFFFFFFFFFFFFFFFFFFFFFFFC
07FFFFFFFFFFFFFFFFFFFFFFFFFFFC
00FFFFFFFFFFFFFFFFFFFFFFFFFFFC
ENDCHAR
STARTCHAR bracketleft
ENCODING 91
SWIDTH 333 0
DWIDTH 55 0
BBX 29 152 16 -15
BITMAP
FFFFFFF8
FFFFFFF8
FFFFFFF8
FFFFFFF8
FFFFFFF8
FFFFFFF8
FFFFFFF8
FFFFFFF8
FFFFFFF8
FFFFFFF8
FFFFFFF8
FFFFFFF8
FFFFFFF8
FFFFFFF8
FFFC0000
FFFC0000
FFFC0000
FFFC0000
FFFC0000
FFFC0000
FFFC0000
FFFC0000
FFFC0000
FFFC0000
FFFC0000
FFFC0000
FFFC0000
FFFC0000
FFFC0000
FFFC0000
FFFC0000
FFFC0000
FFFC0000
FFFC0000
FFFC0000
FFFC0000
FFFC0000
FFFC0000
FFFC0000
FFFC0000
FFFC0000
FFFC0000
FFFC0000
FFFC0000
FFFC0000
FFFC0000
FFFC0000
FFFC0000
FFFC0000
FFFC0000
FFFC0000
FFFC0000
FFFC0000
FFFC0000
FFFC0000
FFFC0000
FFFC0000
FFFC0000
FFFC0000
FFFC0000
FFFC0000
FFFC0000
FFFC0000
FFFC0000
FFFC0000
FFFC0000
FFFC0000
FFFC0000
FFFC0000
FFFC0000
FFFC0000
FFFC0000
FFFC0000
FFFC0000
FFFC0000
FFFC0000
FFFC0000
FFFC0000
FFFC0000
FFFC0000
FFFC0000
FFFC0000
FFFC0000
FFFC0000
FFFC0000
FFFC0000
FFFC0000
FFFC0000
FFFC0000
FFFC0000
FFFC0000
FFFC0000
FFFC0000
FFFC0000
FFFC0000
FFFC0000
FFFC0000
FFFC0000
FFFC0000
FFFC0000
FFFC0000
FFFC0000
FFFC0000
FFFC0000
FFFC0000
FFFC0000
FFFC0000
FFFC0000
FFFC0000
FFFC0000
FFFC0000
FFFC0000
FFFC0000
FFFC0000
FFFC0000
FFFC0000
FFFC0000
FFFC0000
FFFC0000
FFFC0000
FFFC0000
FFFC0000
FFFC0000
FFFC0000
FFFC0000
FFFC0000
FFFC0000
FFFC0000
FFFC0000
FFFC0000
FFFC0000
FFFC0000
FFFC0000
FFFC0000
FFFC0000
FFFC0000
FFFC0000
FFFC0000
FFFC0000
FFFFFFF8
FFFFFFF8
FFFFFFF8
FFFFFFF8
FFFFFFF8
FFFFFFF8
FFFFFFF8
FFFFFFF8
FFFFFFF8
FFFFFFF8
FFFFFFF8
FFFFFFF8
FFFFFFF8
ENDCHAR
STARTCHAR backslash
ENCODING 92
SWIDTH 445 0
DWIDTH 74 0
BBX 70 121 2 0
BITMAP
FFFC00000000000000
FFFC00000000000000
7FFE00000000000000
7FFE00000000000000
3FFF00000000000000
3FFF00000000000000
1FFF80000000000000
1FFF80000000000000
0FFFC0000000000000
0FFFC0000000000000
07FFE0000000000000
07FFE0000000000000
07FFE0000000000000
03FFF0000000000000
03FFF0000000000000
01FFF8000000000000
01FFF8000000000000
00FFFC000000000000
00FFFC000000000000
007FFE000000000000
007FFE000000000000
003FFF000000000000
003FFF000000000000
001FFF800000000000
001FFF800000000000
001FFFC00000000000
000FFFC00000000000
000FFFC00000000000
0007FFE00000000000
0007FFE00000000000
0003FFF00000000000
0003FFF00000000000
0001FFF80000000000
0001FFF80000000000
0000FFFC0000000000
0000FFFC0000000000
00007FFE0000000000
00007FFE0000000000
00007FFF0000000000
00003FFF0000000000
00003FFF8000000000
00001FFF8000000000
00001FFF8000000000
00000FFFC000000000
00000FFFC000000000
000007FFE000000000
000007FFE000000000
000003FFF000000000
000003FFF000000000
000001FFF800000000
000001FFF800000000
000001FFFC00000000
000000FFFC00000000
000000FFFE00000000
0000007FFE00000000
0000007FFF00000000
0000003FFF00000000
0000003FFF80000000
0000001FFF80000000
0000001FFF80000000
0000000FFFC0000000
0000000FFFC0000000
00000007FFE0000000
00000007FFE0000000
00000007FFF0000000
00000003FFF0000000
00000003FFF8000000
00000001FFF8000000
00000001FFFC000000
00000000FFFC000000
00000000FFFE000000
000000007FFE000000
000000007FFF000000
000000003FFF000000
000000003FFF000000
000000001FFF800000
000000001FFF800000
000000001FFFC00000
000000000FFFC00000
000000000FFFE00000
0000000007FFE00000
0000000007FFF00000
0000000003FFF00000
0000000003FFF80000
0000000001FFF80000
0000000001FFFC0000
0000000000FFFC0000
0000000000FFFE0000
00000000007FFE0000
00000000007FFE0000
00000000007FFF0000
00000000003FFF0000
00000000003FFF8000
00000000001FFF8000
00000000001FFFC000
00000000000FFFC000
00000000000FFFE000
000000000007FFE000
000000000007FFF000
000000000003FFF000
000000000003FFF800
000000000001FFF800
000000000001FFFC00
000000000000FFFC00
000000000000FFFC00
000000000000FFFE00
0000000000007FFE00
0000000000007FFF00
0000000000003FFF00
0000000000003FFF80
0000000000001FFF80
0000000000001FFFC0
0000000000000FFFC0
0000000000000FFFE0
00000000000007FFE0
00000000000007FFF0
00000000000003FFF0
00000000000003FFF8
00000000000003FFF8
00000000000001FFFC
00000000000001FFFC
ENDCHAR
ENDFONT
